aileron_italic.sfdir

StartChar: exclam
Encoding: 33 33 250
Width: 260
Flags: MW
HStem: -14 21G<64.5 101.5> -14 128<82.5 101.5> 670 20G<163 265 265 265>
VStem: 27 130<41 59>
LayerCount: 2
Fore
SplineSet
153 180 m 1xb0
 75 180 l 1
 163 690 l 1
 265 690 l 1
 153 180 l 1xb0
103 114 m 0x70
 136 114 157 93 157 63 c 0
 157 19 122 -14 81 -14 c 0
 48 -14 27 7 27 37 c 0
 27 81 62 114 103 114 c 0x70
EndSplineSet
EndChar

StartChar: quotedbl
Encoding: 34 34 257
Width: 277
Flags: MW
HStem: 485 250<75 111 41 165 75 181 215 251>
VStem: 41 264<485 735>
LayerCount: 2
Fore
SplineSet
111 485 m 1
 41 485 l 1
 75 735 l 1
 165 735 l 1
 111 485 l 1
251 485 m 1
 181 485 l 1
 215 735 l 1
 305 735 l 1
 251 485 l 1
EndSplineSet
EndChar

StartChar: numbersign
Encoding: 35 35 252
Width: 580
Flags: MW
HStem: 0 21G<68 126 68 68 217 275 217 217> 219 56<74 153 64 175 233 302 74 211 382 474> 415 56<138 230 128 252 138 288 310 379 459 538> 670 20G<337 395 395 395 486 544 544 544>
VStem: 64 484<219 471>
LayerCount: 2
Fore
SplineSet
437 415 m 1
 382 275 l 1
 484 275 l 1
 474 219 l 1
 360 219 l 1
 275 0 l 1
 217 0 l 1
 302 219 l 1
 211 219 l 1
 126 0 l 1
 68 0 l 1
 153 219 l 1
 64 219 l 1
 74 275 l 1
 175 275 l 1
 230 415 l 1
 128 415 l 1
 138 471 l 1
 252 471 l 1
 337 690 l 1
 395 690 l 1
 310 471 l 1
 401 471 l 1
 486 690 l 1
 544 690 l 1
 459 471 l 1
 548 471 l 1
 538 415 l 1
 437 415 l 1
379 415 m 1
 288 415 l 1
 233 275 l 1
 324 275 l 1
 379 415 l 1
EndSplineSet
EndChar

StartChar: dollar
Encoding: 36 36 285
Width: 580
Flags: MW
HStem: -90 144<179 263 179 263> -11 21G<193 193> 635 145<307 391>
VStem: 14 92<186 186> 85 94<477 536> 405 94<142.5 214.5> 445 92<509 509>
LayerCount: 2
Fore
SplineSet
365 631 m 1x6a
 322 391 l 1
 441 351 499 289 499 190 c 0
 499 68 399 -9 250 -14 c 1
 237 -90 l 1
 179 -90 l 1xac
 193 -11 l 1
 69 4 20 84 14 186 c 1
 106 186 l 1
 111 118 142 71 205 58 c 1x74
 250 313 l 1
 153 342 85 385 85 494 c 0
 85 591 157 698 320 704 c 1
 333 780 l 1
 391 780 l 1
 377 701 l 1
 484 684 535 605 537 509 c 1
 445 509 l 1
 443 571 414 616 365 631 c 1x6a
179 504 m 0
 179 450 213 423 267 405 c 1
 307 635 l 1
 220 628 179 568 179 504 c 0
307 301 m 1
 263 54 l 1
 354 59 405 100 405 185 c 0
 405 244 374 277 307 301 c 1
EndSplineSet
EndChar

StartChar: percent
Encoding: 37 37 305
Width: 740
Flags: MW
HStem: -14 60<499.5 542 499.5 570> 0 21G<54 147 54 54> 244 60<523 565.5> 386 60<202.5 245 202.5 273> 644 60<226 268.5> 670 20G<621 714 714 714>
VStem: 84 85<492 551 492 562.5> 302 85<539 598> 381 85<92 151 92 162.5> 599 85<139 198>
LayerCount: 2
Fore
SplineSet
214 386 m 0xbb40
 134 386 84 439 84 516 c 0
 84 609 139 704 257 704 c 0
 337 704 387 651 387 574 c 0
 387 481 332 386 214 386 c 0xbb40
714 690 m 1x7740
 147 0 l 1
 54 0 l 1
 621 690 l 1
 714 690 l 1x7740
250 644 m 0xbb40
 202 644 169 591 169 511 c 0
 169 473 184 446 221 446 c 0
 269 446 302 499 302 579 c 0
 302 617 287 644 250 644 c 0xbb40
554 304 m 0
 634 304 684 251 684 174 c 0
 684 81 629 -14 511 -14 c 0
 431 -14 381 39 381 116 c 0xbac0
 381 209 436 304 554 304 c 0
518 46 m 0xbac0
 566 46 599 99 599 179 c 0
 599 217 584 244 547 244 c 0
 499 244 466 191 466 111 c 0
 466 73 481 46 518 46 c 0xbac0
EndSplineSet
EndChar

StartChar: ampersand
Encoding: 38 38 313
Width: 659
Flags: MW
HStem: -14 68<236.5 310.5> 315 70<367 451 391 438 537 620> 636 68<336.5 412.5> 674 20G<521 521>
VStem: 33 99<120.5 198 120.5 200> 121 97<454.5 534.5 448 556>
LayerCount: 2
Fore
SplineSet
633 385 m 1xe8
 620 315 l 1
 524 315 l 1
 470 7 l 1
 411 -6 344 -14 277 -14 c 0
 142 -14 33 21 33 149 c 0xe8
 33 251 111 331 226 353 c 1
 163 370 121 417 121 492 c 0
 121 620 245 704 403 704 c 0xe4
 452 704 484 701 521 694 c 1xd8
 509 625 l 1
 469 633 437 636 388 636 c 0
 285 636 218 585 218 484 c 0xe4
 218 412 265 390 329 386 c 0
 347 385 369 385 391 385 c 2
 451 385 l 1
 470 497 l 1
 556 497 l 1
 537 385 l 1
 633 385 l 1xe8
438 315 m 1
 378 315 l 2
 356 315 337 315 317 313 c 0
 184 301 132 238 132 158 c 0
 132 83 182 54 291 54 c 0
 331 54 358 56 393 63 c 1
 438 315 l 1
EndSplineSet
EndChar

StartChar: quotesingle
Encoding: 39 39 258
Width: 137
Flags: MW
HStem: 485 250<75 111 41 165>
VStem: 41 124
LayerCount: 2
Fore
SplineSet
111 485 m 1
 41 485 l 1
 75 735 l 1
 165 735 l 1
 111 485 l 1
EndSplineSet
EndChar

StartChar: parenleft
Encoding: 40 40 266
Width: 315
Flags: MW
HStem: -80 860<160 370 160 370>
VStem: 101 64<153 291>
LayerCount: 2
Fore
SplineSet
218 -80 m 1
 160 -80 l 1
 122 -2 101 97 101 202 c 0
 101 380 168 609 312 780 c 1
 370 780 l 1
 226 593 165 381 165 204 c 0
 165 102 183 5 218 -80 c 1
EndSplineSet
EndChar

StartChar: parenright
Encoding: 41 41 267
Width: 315
Flags: MW
HStem: -80 860<-25 185 -25 185>
VStem: 180 64<409 547>
LayerCount: 2
Fore
SplineSet
127 780 m 1
 185 780 l 1
 223 702 244 603 244 498 c 0
 244 320 177 91 33 -80 c 1
 -25 -80 l 1
 119 107 180 319 180 496 c 0
 180 598 162 695 127 780 c 1
EndSplineSet
EndChar

StartChar: asterisk
Encoding: 42 42 244
Width: 530
Flags: MW
HStem: 82 393<131 331 329 329>
VStem: 73 390<298 298>
LayerCount: 2
Fore
SplineSet
291 298 m 1
 455 357 l 1
 463 298 l 1
 298 256 l 1
 386 119 l 1
 329 82 l 1
 257 232 l 1
 131 82 l 1
 88 119 l 1
 223 256 l 1
 73 298 l 1
 103 357 l 1
 246 297 l 1
 269 475 l 1
 331 475 l 1
 291 298 l 1
EndSplineSet
EndChar

StartChar: plus
Encoding: 43 43 307
Width: 580
Flags: MW
HStem: 287 56<75 246 65 256 314 485 75 304>
VStem: 65 430<287 343>
LayerCount: 2
Fore
SplineSet
485 287 m 1
 304 287 l 1
 268 85 l 1
 210 85 l 1
 246 287 l 1
 65 287 l 1
 75 343 l 1
 256 343 l 1
 292 549 l 1
 350 549 l 1
 314 343 l 1
 495 343 l 1
 485 287 l 1
EndSplineSet
EndChar

StartChar: comma
Encoding: 44 44 248
Width: 233
Flags: MW
HStem: -120 220<-87 124 -87 124>
VStem: -87 211
LayerCount: 2
Fore
SplineSet
122 88 m 1
 -6 -120 l 1
 -87 -120 l 1
 30 100 l 1
 124 100 l 1
 122 88 l 1
EndSplineSet
EndChar

StartChar: hyphen
Encoding: 45 45 271
Width: 274
Flags: MW
HStem: 255 56<37 237 27 247>
VStem: 27 220<255 311>
LayerCount: 2
Fore
SplineSet
237 255 m 1
 27 255 l 1
 37 311 l 1
 247 311 l 1
 237 255 l 1
EndSplineSet
EndChar

StartChar: period
Encoding: 46 46 253
Width: 233
Flags: MW
HStem: -14 128<54.5 73.5>
VStem: 0 128<39 61>
LayerCount: 2
Fore
SplineSet
75 114 m 0
 108 114 128 91 128 61 c 0
 128 17 94 -14 53 -14 c 0
 20 -14 0 9 0 39 c 0
 0 83 34 114 75 114 c 0
EndSplineSet
EndChar

StartChar: slash
Encoding: 47 47 260
Width: 303
Flags: MW
HStem: -30 750<-57 388 -57 388>
VStem: -57 445
LayerCount: 2
Fore
SplineSet
5 -30 m 1
 -57 -30 l 1
 326 720 l 1
 388 720 l 1
 5 -30 l 1
EndSplineSet
EndChar

StartChar: zero
Encoding: 48 48 233
Width: 580
Flags: MW
HStem: -14 68<207.5 333.5 207.5 366> 636 68<244.5 370.5>
VStem: 27 96<190.5 305.5 190.5 337.5> 455 96<386 500.5>
LayerCount: 2
Fore
SplineSet
327 704 m 0
 484 704 551 590 551 445 c 0
 551 262 481 -14 251 -14 c 0
 94 -14 27 101 27 246 c 0
 27 429 97 704 327 704 c 0
253 54 m 0
 414 54 455 328 455 444 c 0
 455 557 416 636 325 636 c 0
 164 636 123 364 123 247 c 0
 123 134 162 54 253 54 c 0
EndSplineSet
EndChar

StartChar: one
Encoding: 49 49 234
Width: 580
Flags: MW
HStem: 0 21G<256 342 256 256> 670 20G<409 464 464 464>
VStem: 152 312<486 690>
LayerCount: 2
Fore
SplineSet
464 690 m 1
 342 0 l 1
 256 0 l 1
 362 600 l 1
 152 486 l 1
 168 577 l 1
 330 668 l 2
 360 685 385 690 409 690 c 2
 464 690 l 1
EndSplineSet
EndChar

StartChar: two
Encoding: 50 50 235
Width: 580
Flags: MW
HStem: 0 70<151 476> 636 68<326.5 406.5>
VStem: 475 98<501 565.5>
LayerCount: 2
Fore
SplineSet
151 70 m 1
 488 70 l 1
 476 0 l 1
 13 0 l 1
 22 49 l 1
 317 304 l 2
 428 401 475 456 475 534 c 0
 475 597 442 636 371 636 c 0
 282 636 228 590 202 484 c 1
 200 474 l 1
 114 474 l 1
 116 484 l 1
 154 639 255 704 393 704 c 0
 517 704 573 632 573 545 c 0
 573 457 517 378 353 241 c 1
 151 70 l 1
EndSplineSet
EndChar

StartChar: three
Encoding: 51 51 236
Width: 580
Flags: MW
HStem: -14 68<214 304 214 314.5> 314 70<280 284 267 297> 636 68<326 399>
VStem: 35 86<194 194> 428 98<161.5 243> 471 98<509.5 567>
LayerCount: 2
Fore
SplineSet
415 366 m 1xf8
 485 345 526 295 526 222 c 0
 526 75 393 -14 236 -14 c 0
 105 -14 24 45 35 194 c 1
 36 204 l 1
 122 204 l 1
 121 194 l 1
 114 97 172 54 256 54 c 0
 352 54 428 113 428 210 c 0xf8
 428 276 383 314 284 314 c 2
 267 314 l 1
 280 384 l 1
 297 384 l 2
 389 384 471 442 471 538 c 0
 471 596 431 636 367 636 c 0
 285 636 220 594 201 501 c 2
 199 491 l 1
 113 491 l 1
 115 501 l 2
 140 628 240 704 390 704 c 0
 503 704 569 644 569 556 c 0xf4
 569 463 502 390 415 366 c 1xf8
EndSplineSet
EndChar

StartChar: four
Encoding: 52 52 237
Width: 580
Flags: MW
HStem: 0 21G<330 416 330 330> 174 70<142 361 459 534> 670 20G<458 544 544 544>
VStem: 19 527<174 244>
LayerCount: 2
Fore
SplineSet
534 174 m 1
 446 174 l 1
 416 0 l 1
 330 0 l 1
 361 174 l 1
 19 174 l 1
 26 217 l 1
 458 690 l 1
 544 690 l 1
 459 244 l 1
 546 244 l 1
 534 174 l 1
374 244 m 1
 437 573 l 1
 417 547 394 519 365 487 c 2
 142 244 l 1
 374 244 l 1
EndSplineSet
EndChar

StartChar: five
Encoding: 53 53 238
Width: 580
Flags: MW
HStem: -14 68<204 300 204 312.5> 387 68<313 348> 620 70<242 242 242 564>
VStem: 37 87<183 193> 431 97<192.5 295>
LayerCount: 2
Fore
SplineSet
242 620 m 1
 170 380 l 1
 220 426 l 1
 257 446 292 455 334 455 c 0
 467 455 528 375 528 267 c 0
 528 88 389 -14 236 -14 c 0
 113 -14 27 53 37 183 c 1
 38 193 l 1
 124 193 l 1
 124 183 l 1
 126 96 161 54 247 54 c 0
 353 54 431 131 431 254 c 0
 431 336 387 387 309 387 c 0
 245 387 194 360 148 289 c 1
 66 289 l 1
 185 690 l 1
 577 690 l 1
 564 620 l 1
 242 620 l 1
EndSplineSet
EndChar

StartChar: six
Encoding: 54 54 239
Width: 580
Flags: MW
HStem: -14 68<216.5 303 216.5 323.5> 398 68<315 356.5> 636 68<319.5 406>
VStem: 43 92<152.5 257.5 152.5 378> 435 98<200 299.5> 477 93<508 518 518 518>
LayerCount: 2
Fore
SplineSet
390 704 m 0xf4
 508 704 579 631 570 518 c 1
 569 508 l 1
 477 508 l 1
 477 518 l 1xf4
 475 596 441 636 371 636 c 0
 268 636 174 541 145 353 c 1
 206 422 l 1
 249 453 290 466 340 466 c 0
 465 466 533 387 533 275 c 0xf8
 533 106 398 -14 249 -14 c 0
 126 -14 43 58 43 220 c 0
 43 536 216 704 390 704 c 0xf4
313 398 m 0xf8
 222 398 135 323 135 192 c 0
 135 113 178 54 255 54 c 0
 351 54 435 138 435 262 c 0
 435 337 400 398 313 398 c 0xf8
EndSplineSet
EndChar

StartChar: seven
Encoding: 55 55 240
Width: 580
Flags: MW
HStem: 0 21G<47 147 47 47> 620 70<125 487 112 613>
VStem: 47 566
LayerCount: 2
Fore
SplineSet
613 690 m 1
 606 650 l 1
 147 0 l 1
 47 0 l 1
 487 620 l 1
 112 620 l 1
 125 690 l 1
 613 690 l 1
EndSplineSet
EndChar

StartChar: eight
Encoding: 56 56 241
Width: 580
Flags: MW
HStem: -15 68<210 307.5> 324 68<280 347> 636 68<311 399>
VStem: 27 96<132.5 204.5 132.5 209.5> 115 93<464 530.5 464 555.5> 429 96<169 242.5> 471 94<500.5 563.5>
LayerCount: 2
Fore
SplineSet
421 364 m 1xf4
 482 343 525 288 525 218 c 0
 525 53 375 -15 240 -15 c 0
 123 -15 27 33 27 156 c 0xf4
 27 263 110 339 198 365 c 1
 148 386 115 432 115 493 c 0
 115 618 221 704 373 704 c 0
 493 704 565 643 565 547 c 0xea
 565 454 498 390 421 364 c 1xf4
361 636 m 0xea
 261 636 208 568 208 493 c 0
 208 435 243 392 317 392 c 0
 416 392 471 458 471 536 c 0
 471 591 437 636 361 636 c 0xea
254 53 m 0xf4
 371 53 429 125 429 213 c 0
 429 272 393 324 301 324 c 0
 178 324 123 244 123 165 c 0
 123 100 166 53 254 53 c 0xf4
EndSplineSet
EndChar

StartChar: nine
Encoding: 57 57 242
Width: 580
Flags: MW
HStem: -14 68<192 278.5 192 295> 224 68<241.5 283> 636 68<295 381.5>
VStem: 28 93<172 182> 65 98<390.5 490 390.5 499.5> 463 92<432.5 537.5>
LayerCount: 2
Fore
SplineSet
349 704 m 0xec
 472 704 555 632 555 470 c 0
 555 154 382 -14 208 -14 c 0
 90 -14 19 59 28 172 c 1
 29 182 l 1
 121 182 l 1
 121 172 l 1xf4
 123 94 157 54 227 54 c 0
 330 54 424 149 453 337 c 1
 392 268 l 1
 349 237 308 224 258 224 c 0
 133 224 65 303 65 415 c 0
 65 584 200 704 349 704 c 0xec
285 292 m 0
 376 292 463 367 463 498 c 0
 463 577 420 636 343 636 c 0
 247 636 163 552 163 428 c 0
 163 353 198 292 285 292 c 0
EndSplineSet
EndChar

StartChar: colon
Encoding: 58 58 247
Width: 233
Flags: MW
HStem: -14 21G<36.5 73.5> -14 128<54.5 73.5> 416 128<129.5 148.5> 524 20G<129.5 166.5>
VStem: 0 128<39 61> 75 128<469 491>
LayerCount: 2
Fore
SplineSet
150 544 m 0x94
 183 544 203 521 203 491 c 0
 203 447 169 416 128 416 c 0xa4
 95 416 75 439 75 469 c 0
 75 513 109 544 150 544 c 0x94
75 114 m 0x58
 108 114 128 91 128 61 c 0
 128 17 94 -14 53 -14 c 0
 20 -14 0 9 0 39 c 0
 0 83 34 114 75 114 c 0x58
EndSplineSet
EndChar

StartChar: semicolon
Encoding: 59 59 259
Width: 233
Flags: MW
HStem: -120 220<-87 123 -87 123> 416 128<129.5 148.5> 524 20G<129.5 166.5>
VStem: 75 128<469 491>
LayerCount: 2
Fore
SplineSet
150 544 m 0xb0
 183 544 203 521 203 491 c 0
 203 447 169 416 128 416 c 0xd0
 95 416 75 439 75 469 c 0
 75 513 109 544 150 544 c 0xb0
121 88 m 1
 -6 -120 l 1
 -87 -120 l 1
 30 100 l 1
 123 100 l 1
 121 88 l 1
EndSplineSet
EndChar

StartChar: less
Encoding: 60 60 298
Width: 580
Flags: MW
HStem: 30 470<462 544>
VStem: 96 448<231 500>
LayerCount: 2
Fore
SplineSet
532 427 m 1
 161 261 l 1
 474 95 l 1
 462 30 l 1
 96 231 l 1
 108 299 l 1
 544 500 l 1
 532 427 l 1
EndSplineSet
EndChar

StartChar: equal
Encoding: 61 61 293
Width: 580
Flags: MW
HStem: 187 56<57 467 47 477> 387 56<93 503 83 513>
VStem: 47 466<187 443>
LayerCount: 2
Fore
SplineSet
503 387 m 1
 83 387 l 1
 93 443 l 1
 513 443 l 1
 503 387 l 1
467 187 m 1
 47 187 l 1
 57 243 l 1
 477 243 l 1
 467 187 l 1
EndSplineSet
EndChar

StartChar: greater
Encoding: 62 62 294
Width: 580
Flags: MW
HStem: 30 470<38 120>
VStem: 38 448<30 299>
LayerCount: 2
Fore
SplineSet
486 299 m 1
 474 231 l 1
 38 30 l 1
 50 103 l 1
 421 269 l 1
 108 435 l 1
 120 500 l 1
 486 299 l 1
EndSplineSet
EndChar

StartChar: question
Encoding: 63 63 255
Width: 589
Flags: MW
HStem: -14 21G<223.5 260.5> -14 128<241.5 260.5> 636 68<325.5 394>
VStem: 186 130<41 59> 467 94<519.5 576>
LayerCount: 2
Fore
SplineSet
374 704 m 0xa8
 493 704 561 641 561 555 c 0
 561 475 526 414 416 317 c 0
 352 261 329 229 315 180 c 1
 229 180 l 1
 239 235 260 267 338 343 c 0
 444 446 467 492 467 547 c 0
 467 605 425 636 363 636 c 0
 288 636 228 592 211 494 c 1
 121 494 l 1
 141 624 243 704 374 704 c 0xa8
262 114 m 0x78
 295 114 316 93 316 63 c 0
 316 19 281 -14 240 -14 c 0
 207 -14 186 7 186 37 c 0
 186 81 221 114 262 114 c 0x78
EndSplineSet
EndChar

StartChar: at
Encoding: 64 64 315
Width: 852
Flags: MW
HStem: -104 58<321.5 436> -15 21G<674 674> 67 66<366 382> 417 66<404.5 457 375.5 469> 606 58<382 537>
VStem: 54 62<147 359.5 147 375> 223 94<197 280 197 293.5> 485 82<147 173> 513.34 22.66 728 62<262 421>
LayerCount: 2
Fore
SplineSet
634 465 m 1xfec0
 571 201 l 2
 568 188 567 177 567 169 c 0
 567 151 572 133 605 133 c 0
 665 133 728 195 728 329 c 0
 728 513 608 606 466 606 c 0
 298 606 116 475 116 244 c 0
 116 50 244 -46 399 -46 c 0
 480 -46 577 -20 650 34 c 1
 674 -15 l 1
 577 -81 476 -104 396 -104 c 0
 219 -104 54 9 54 243 c 0
 54 507 264 664 469 664 c 0
 658 664 790 530 790 331 c 0
 790 150 681 75 585 75 c 0
 533 75 493 96 485 147 c 1
 464 106 l 1xff40
 432 79 400 67 364 67 c 0
 300 67 223 106 223 228 c 0
 223 359 312 483 439 483 c 0
 475 483 508 473 527 452 c 1
 536 404 l 1
 553 465 l 1
 634 465 l 1xfec0
498 251 m 2
 507 290 l 2xfec0
 529 386 493 417 445 417 c 0
 364 417 317 326 317 234 c 0
 317 160 347 133 385 133 c 0
 440 133 484 191 498 251 c 2
EndSplineSet
EndChar

StartChar: B
Encoding: 66 66 12
Width: 647
GlyphClass: 2
Flags: MW
HStem: 0 70<150 274> 323 70<207 338 195 340> 620 70<247 247 247 372>
VStem: 486 94<175 253> 515 95<499 557.5>
LayerCount: 2
Fore
SplineSet
460 366 m 1xf0
 537 345 580 297 580 214 c 0xf0
 580 80 469 21 363 5 c 0
 328 0 306 0 274 0 c 2
 52 0 l 1
 174 690 l 1
 377 690 l 2
 410 690 434 690 466 686 c 0
 559 673 610 626 610 547 c 0xe8
 610 445 551 392 460 366 c 1xf0
247 620 m 1
 207 393 l 1
 340 393 l 2
 358 393 375 394 396 397 c 0
 488 411 515 468 515 530 c 0
 515 585 479 612 426 618 c 0xe8
 408 620 388 620 372 620 c 2
 247 620 l 1
342 72 m 0xf0
 419 79 486 129 486 221 c 0
 486 285 447 311 392 319 c 0
 370 322 354 323 338 323 c 2
 195 323 l 1
 150 70 l 1
 294 70 l 2
 310 70 329 71 342 72 c 0xf0
EndSplineSet
Position2: "'cpsp' Capital Spacing in Latin lookup 0 subtable" dx=5 dy=0 dh=10 dv=0
EndChar

StartChar: E
Encoding: 69 69 22
Width: 593
GlyphClass: 2
Flags: MW
HStem: 0 70<150 511> 310 70<205 526 193 538> 620 70<248 248 248 610>
VStem: 52 571
AnchorPoint: "Anchor-0" 257 0 basechar 0
LayerCount: 2
Fore
SplineSet
248 620 m 1
 205 380 l 1
 538 380 l 1
 526 310 l 1
 193 310 l 1
 150 70 l 1
 524 70 l 1
 511 0 l 1
 52 0 l 1
 174 690 l 1
 623 690 l 1
 610 620 l 1
 248 620 l 1
EndSplineSet
Position2: "'cpsp' Capital Spacing in Latin lookup 0 subtable" dx=5 dy=0 dh=10 dv=0
EndChar

StartChar: F
Encoding: 70 70 31
Width: 576
GlyphClass: 2
Flags: MW
HStem: 0 21G<52 138 52 52> 310 70<205 516 193 528> 620 70<248 248 248 610>
VStem: 52 571
LayerCount: 2
Fore
SplineSet
248 620 m 1
 205 380 l 1
 528 380 l 1
 516 310 l 1
 193 310 l 1
 138 0 l 1
 52 0 l 1
 174 690 l 1
 623 690 l 1
 610 620 l 1
 248 620 l 1
EndSplineSet
Position2: "'cpsp' Capital Spacing in Latin lookup 0 subtable" dx=5 dy=0 dh=10 dv=0
EndChar

StartChar: G
Encoding: 71 71 32
Width: 757
GlyphClass: 2
Flags: MW
HStem: -14 68<274 353.5> 0 21G<527 603 527 527> 263 70<415 563 402 662> 636 68<357 497.5>
VStem: 56 98<215 379.5 215 393> 607 87<460 470 470 530>
AnchorPoint: "Anchor-0" 289 0 basechar 0
LayerCount: 2
Fore
SplineSet
454 704 m 0xbc
 629 704 704 605 694 470 c 1
 693 460 l 1
 607 460 l 1
 607 470 l 2
 607 590 555 636 440 636 c 0
 274 636 154 477 154 282 c 0
 154 148 217 54 331 54 c 0xbc
 443 54 542 140 563 263 c 1
 402 263 l 1
 415 333 l 1
 662 333 l 1
 603 0 l 1
 527 0 l 1x7c
 548 119 l 1
 506 56 l 1
 459 12 393 -14 314 -14 c 0
 143 -14 56 108 56 271 c 0
 56 515 229 704 454 704 c 0xbc
EndSplineSet
Position2: "'cpsp' Capital Spacing in Latin lookup 0 subtable" dx=5 dy=0 dh=10 dv=0
EndChar

StartChar: H
Encoding: 72 72 36
Width: 729
GlyphClass: 2
Flags: MW
HStem: 0 21G<52 138 52 52 518 604 518 518> 302 72<204 571 191 584> 670 20G<174 260 260 260 640 726 726 726>
VStem: 52 674
LayerCount: 2
Fore
SplineSet
726 690 m 1
 604 0 l 1
 518 0 l 1
 571 302 l 1
 191 302 l 1
 138 0 l 1
 52 0 l 1
 174 690 l 1
 260 690 l 1
 204 374 l 1
 584 374 l 1
 640 690 l 1
 726 690 l 1
EndSplineSet
Position2: "'cpsp' Capital Spacing in Latin lookup 0 subtable" dx=5 dy=0 dh=10 dv=0
EndChar

StartChar: I
Encoding: 73 73 38
Width: 263
GlyphClass: 2
Flags: MW
HStem: 0 21G<52 138 52 52> 670 20G<174 260 260 260>
VStem: 52 208
LayerCount: 2
Fore
SplineSet
138 0 m 1
 52 0 l 1
 174 690 l 1
 260 690 l 1
 138 0 l 1
EndSplineSet
Position2: "'cpsp' Capital Spacing in Latin lookup 0 subtable" dx=5 dy=0 dh=10 dv=0
EndChar

StartChar: J
Encoding: 74 74 47
Width: 527
GlyphClass: 2
Flags: MW
HStem: -14 68<175 256 175 275> 670 20G<455 541 541 541>
VStem: 18.73 88.05
LayerCount: 2
Fore
SplineSet
541 690 m 1
 466 264 l 2
 461 238 457 215 449 181 c 0
 422 65 348 -14 202 -14 c 0
 74 -14 2 65 22 194 c 1
 28 235 l 1
 114 235 l 1
 109 194 l 2
 97 99 134 54 216 54 c 0
 296 54 343 96 365 186 c 0
 370 206 374 231 381 267 c 2
 455 690 l 1
 541 690 l 1
EndSplineSet
Position2: "'cpsp' Capital Spacing in Latin lookup 0 subtable" dx=5 dy=0 dh=10 dv=0
EndChar

StartChar: K
Encoding: 75 75 48
Width: 629
GlyphClass: 2
Flags: MW
HStem: 0 21G<52 138 52 52 461 566 461 461> 670 20G<174 260 260 260 597 702 702 702>
VStem: 52 650
AnchorPoint: "Anchor-0" 286 0 basechar 0
LayerCount: 2
Fore
SplineSet
298 345 m 1
 566 0 l 1
 461 0 l 1
 235 298 l 1
 183 252 l 1
 138 0 l 1
 52 0 l 1
 174 690 l 1
 260 690 l 1
 200 351 l 1
 597 690 l 1
 702 690 l 1
 298 345 l 1
EndSplineSet
Position2: "'cpsp' Capital Spacing in Latin lookup 0 subtable" dx=5 dy=0 dh=10 dv=0
EndChar

StartChar: M
Encoding: 77 77 56
Width: 865
GlyphClass: 2
Flags: MW
HStem: 0 21G<52 138 52 52 342 450 342 342 654 740 654 654> 0 90<413 413 413 450 342 413> 600 90<762 762> 609 81<244 244>
VStem: 52 810<0 690>
LayerCount: 2
Fore
SplineSet
862 690 m 1x98
 740 0 l 1
 654 0 l 1
 762 600 l 1xa8
 450 0 l 1
 342 0 l 1
 244 609 l 1
 138 0 l 1
 52 0 l 1
 174 690 l 1
 316 690 l 1
 413 90 l 1x58
 720 690 l 1
 862 690 l 1x98
EndSplineSet
Position2: "'cpsp' Capital Spacing in Latin lookup 0 subtable" dx=5 dy=0 dh=10 dv=0
EndChar

StartChar: N
Encoding: 78 78 57
Width: 717
GlyphClass: 2
Flags: MW
HStem: 0 21G<52 138 52 52 460 592 460 460> 0 82<521 521 521 592 460 521> 608 82<243 243> 670 20G<174 306 306 306 628 714 714 714>
VStem: 52 662
AnchorPoint: "Anchor-0" 322 0 basechar 0
LayerCount: 2
Fore
SplineSet
714 690 m 1x98
 592 0 l 1
 460 0 l 1
 243 608 l 1xa8
 138 0 l 1
 52 0 l 1
 174 690 l 1
 306 690 l 1
 521 82 l 1x58
 628 690 l 1
 714 690 l 1x98
EndSplineSet
Position2: "'cpsp' Capital Spacing in Latin lookup 0 subtable" dx=5 dy=0 dh=10 dv=0
EndChar

StartChar: O
Encoding: 79 79 63
Width: 747
GlyphClass: 2
Flags: MW
HStem: -14 68<291.5 450 291.5 472> 636 68<334 492>
VStem: 59 94<216 363.5 216 388> 631 94<326.5 474>
LayerCount: 2
Fore
SplineSet
447 704 m 0
 630 704 725 568 725 405 c 0
 725 199 607 -14 337 -14 c 0
 154 -14 59 122 59 285 c 0
 59 491 177 704 447 704 c 0
355 54 m 0
 545 54 631 248 631 405 c 0
 631 543 555 636 429 636 c 0
 239 636 153 442 153 285 c 0
 153 147 228 54 355 54 c 0
EndSplineSet
Position2: "'cpsp' Capital Spacing in Latin lookup 0 subtable" dx=5 dy=0 dh=10 dv=0
EndChar

StartChar: P
Encoding: 80 80 73
Width: 605
GlyphClass: 2
Flags: MW
HStem: 0 21G<52 138 52 52> 282 72<201 316 188 336> 618 72<248 383 248 248>
VStem: 532 93<465 543.5>
LayerCount: 2
Fore
SplineSet
477 686 m 0
 570 674 625 617 625 523 c 0
 625 384 522 301 406 286 c 0
 374 282 351 282 316 282 c 2
 188 282 l 1
 138 0 l 1
 52 0 l 1
 174 690 l 1
 388 690 l 2
 423 690 447 690 477 686 c 0
414 359 m 0
 474 372 532 417 532 513 c 0
 532 574 499 604 459 613 c 0
 441 617 414 618 383 618 c 2
 248 618 l 1
 201 354 l 1
 336 354 l 2
 367 354 394 355 414 359 c 0
EndSplineSet
Position2: "'cpsp' Capital Spacing in Latin lookup 0 subtable" dx=5 dy=0 dh=10 dv=0
EndChar

StartChar: Q
Encoding: 81 81 75
Width: 756
GlyphClass: 2
Flags: MW
HStem: -14 21G -14 68<290.5 356> 4 50<290.5 506> 636 68<333 491>
VStem: 58 94<216 363.5 216 383> 630 94<342 474>
LayerCount: 2
Fore
SplineSet
724 405 m 0x5c
 724 279 675 149 572 70 c 1
 612 61 645 39 677 7 c 1x9c
 618 -52 l 1
 548 -6 525 4 487 4 c 0x3c
 464 4 441 1 412 -6 c 0
 389 -12 366 -14 346 -14 c 0
 143 -14 58 122 58 285 c 0
 58 481 176 704 436 704 c 0
 639 704 724 568 724 405 c 0x5c
152 285 m 0
 152 147 227 54 354 54 c 0
 544 54 630 248 630 405 c 0
 630 543 554 636 428 636 c 0
 238 636 152 442 152 285 c 0
EndSplineSet
Position2: "'cpsp' Capital Spacing in Latin lookup 0 subtable" dx=5 dy=0 dh=10 dv=0
EndChar

StartChar: R
Encoding: 82 82 76
Width: 618
GlyphClass: 2
Flags: MW
HStem: 0 21G<52 138 52 52 459 552 459 459> 297 70<203 321 191 335> 620 70<248 388 248 248>
VStem: 448 86 539 94<474 550>
AnchorPoint: "Anchor-0" 262 0 basechar 0
LayerCount: 2
Fore
SplineSet
633 536 m 0
 633 411 539 349 454 334 c 1
 514 327 534 291 534 111 c 0
 534 63 539 23 552 0 c 1
 459 0 l 1
 453 27 450 62 448 189 c 0
 447 250 430 292 370 296 c 0xf0
 354 297 337 297 321 297 c 2
 191 297 l 1
 138 0 l 1
 52 0 l 1
 174 690 l 1
 400 690 l 2
 435 690 459 690 490 686 c 0
 575 675 633 628 633 536 c 0
403 369 m 0
 478 376 539 427 539 521 c 0
 539 579 508 608 456 616 c 0
 437 619 419 620 388 620 c 2
 248 620 l 1
 203 367 l 1
 335 367 l 2
 366 367 383 367 403 369 c 0
EndSplineSet
Position2: "'cpsp' Capital Spacing in Latin lookup 0 subtable" dx=5 dy=0 dh=10 dv=0
EndChar

StartChar: T
Encoding: 84 84 85
Width: 613
GlyphClass: 2
Flags: MW
HStem: 0 21G<234 320 234 234> 620 70<110 344 97 688 430 675 430 430>
VStem: 97 591<620 690>
AnchorPoint: "Anchor-0" 277 0 basechar 0
LayerCount: 2
Fore
SplineSet
675 620 m 1
 430 620 l 1
 320 0 l 1
 234 0 l 1
 344 620 l 1
 97 620 l 1
 110 690 l 1
 688 690 l 1
 675 620 l 1
EndSplineSet
Position2: "'cpsp' Capital Spacing in Latin lookup 0 subtable" dx=5 dy=0 dh=10 dv=0
EndChar

StartChar: V
Encoding: 86 86 99
Width: 652
GlyphClass: 2
Flags: MW
HStem: 0 65<295 295 295 345> 670 20G<107 200 200 200 617 715 715 715>
VStem: 107 608<690 690>
LayerCount: 2
Fore
SplineSet
345 0 m 1
 223 0 l 1
 107 690 l 1
 200 690 l 1
 295 65 l 1
 617 690 l 1
 715 690 l 1
 345 0 l 1
EndSplineSet
Position2: "'cpsp' Capital Spacing in Latin lookup 0 subtable" dx=5 dy=0 dh=10 dv=0
EndChar

StartChar: X
Encoding: 88 88 105
Width: 627
GlyphClass: 2
Flags: MW
HStem: 0 21G<-22 79 -22 -22 474 578 474 474> 670 20G<117 214 214 214 586 688 688 688>
VStem: -22 710<0 690>
LayerCount: 2
Fore
SplineSet
388 351 m 1
 578 0 l 1
 474 0 l 1
 326 291 l 1
 79 0 l 1
 -22 0 l 1
 286 353 l 1
 117 690 l 1
 214 690 l 1
 349 414 l 1
 586 690 l 1
 688 690 l 1
 388 351 l 1
EndSplineSet
Position2: "'cpsp' Capital Spacing in Latin lookup 0 subtable" dx=5 dy=0 dh=10 dv=0
EndChar

StartChar: Y
Encoding: 89 89 106
Width: 581
GlyphClass: 2
Flags: MW
HStem: 0 21G<216 302 216 216> 670 20G<94 185 185 185 567 668 668 668>
VStem: 94 574<690 690>
LayerCount: 2
Fore
SplineSet
349 268 m 1
 302 0 l 1
 216 0 l 1
 264 272 l 1
 94 690 l 1
 185 690 l 1
 319 350 l 1
 567 690 l 1
 668 690 l 1
 349 268 l 1
EndSplineSet
Position2: "'cpsp' Capital Spacing in Latin lookup 0 subtable" dx=5 dy=0 dh=10 dv=0
EndChar

StartChar: Z
Encoding: 90 90 111
Width: 591
GlyphClass: 2
Flags: MW
HStem: 0 70<123 522> 620 70<149 517 136 638>
VStem: -1 639
LayerCount: 2
Fore
SplineSet
626 621 m 1
 123 70 l 1
 535 70 l 1
 522 0 l 1
 -1 0 l 1
 11 66 l 1
 517 620 l 1
 136 620 l 1
 149 690 l 1
 638 690 l 1
 626 621 l 1
EndSplineSet
Position2: "'cpsp' Capital Spacing in Latin lookup 0 subtable" dx=5 dy=0 dh=10 dv=0
EndChar

StartChar: bracketleft
Encoding: 91 91 264
Width: 307
Flags: MW
HStem: -80 56<86 181> 724 56<218 323 218 218>
VStem: 18 315
LayerCount: 2
Fore
SplineSet
170 780 m 1
 333 780 l 1
 323 724 l 1
 218 724 l 1
 86 -24 l 1
 191 -24 l 1
 181 -80 l 1
 18 -80 l 1
 170 780 l 1
EndSplineSet
EndChar

StartChar: backslash
Encoding: 92 92 245
Width: 303
Flags: MW
HStem: -30 750<75 256 75 194>
VStem: 75 181
LayerCount: 2
Fore
SplineSet
256 -30 m 1
 194 -30 l 1
 75 720 l 1
 137 720 l 1
 256 -30 l 1
EndSplineSet
EndChar

StartChar: bracketright
Encoding: 93 93 265
Width: 307
Flags: MW
HStem: -80 56<-5 100 -5 148 -15 100> 724 56<137 232 127 300>
VStem: -15 315
LayerCount: 2
Fore
SplineSet
148 -80 m 1
 -15 -80 l 1
 -5 -24 l 1
 100 -24 l 1
 232 724 l 1
 127 724 l 1
 137 780 l 1
 300 780 l 1
 148 -80 l 1
EndSplineSet
EndChar

StartChar: asciicircum
Encoding: 94 94 314
Width: 580
Flags: MW
HStem: 560 56<318 318>
VStem: 45 421<215 215>
LayerCount: 2
Fore
SplineSet
398 215 m 1
 318 560 l 1
 116 215 l 1
 45 215 l 1
 291 616 l 1
 360 616 l 1
 466 215 l 1
 398 215 l 1
EndSplineSet
EndChar

StartChar: underscore
Encoding: 95 95 261
Width: 500
Flags: MW
HStem: -86 56<55 445 45 455>
VStem: 45 410<-86 -30>
LayerCount: 2
Fore
SplineSet
445 -86 m 1
 45 -86 l 1
 55 -30 l 1
 455 -30 l 1
 445 -86 l 1
EndSplineSet
EndChar

StartChar: grave
Encoding: 96 96 333
Width: 300
Flags: MW
HStem: 580 110<116 131 51 172 116 116>
VStem: 51 121<580 690>
LayerCount: 2
Fore
SplineSet
172 580 m 1
 116 580 l 1
 51 690 l 1
 131 690 l 1
 172 580 l 1
EndSplineSet
EndChar

StartChar: a
Encoding: 97 97 115
Width: 506
GlyphClass: 2
Flags: MW
HStem: -14 66<170 187> 0 21G<330 416 330 330> 259.17 62.29 478 66<258 334>
VStem: 12 94<106 183 106 199.5> 332 84 388 86<402 424.5>
LayerCount: 2
Fore
SplineSet
304 544 m 0xba
 423 544 474 491 474 413 c 0
 474 391 470 363 465 334 c 2xba
 430 135 l 2
 423 95 419 59 416 0 c 1
 330 0 l 1
 334 76 l 1x7c
 296 28 l 1xbc
 264 -3 217 -14 157 -14 c 0
 83 -14 12 29 12 123 c 0
 12 276 171 335 377 319 c 1
 379 333 l 1
 386 372 388 389 388 404 c 0
 388 445 365 478 303 478 c 0
 213 478 175 439 159 366 c 1
 69 366 l 1
 92 479 180 544 304 544 c 0xba
197 52 m 0
 264 52 340 115 356 201 c 2
 366 256 l 1
 228 271 106 234 106 132 c 0
 106 80 143 52 197 52 c 0
EndSplineSet
Substitution2: "'salt' Stylistic Alternatives in Latin lookup 5 subtable" a.alt
EndChar

StartChar: b
Encoding: 98 98 126
Width: 614
GlyphClass: 2
Flags: MW
HStem: -14 66<252 353 232 381> 0 21G<28 114 28 28> 478 66<363 409.5> 715 20G<158 244 244 244>
VStem: 129 24.22 494 94<256.5 369>
LayerCount: 2
Fore
SplineSet
390 544 m 0xb4
 522 544 588 449 588 328 c 0
 588 164 488 -14 274 -14 c 0
 230 -14 176 4 153 30 c 1
 129 82 l 1xbc
 114 0 l 1
 28 0 l 1x7c
 158 735 l 1
 244 735 l 1
 193 445 l 1
 243 502 l 1
 277 527 336 544 390 544 c 0xb4
286 52 m 0
 420 52 494 189 494 324 c 0
 494 414 453 478 366 478 c 0
 278 478 189 422 162 270 c 2
 157 241 l 2xbc
 140 143 178 52 286 52 c 0
EndSplineSet
EndChar

StartChar: f
Encoding: 102 102 145
Width: 273
GlyphClass: 2
Flags: MW
HStem: 0 21G<35 121 35 35> 460 66<80 116 68 127 213 310> 682 67<298 371>
VStem: 35 336
LayerCount: 2
Fore
SplineSet
237 632 m 0
 229 609 225 593 222 578 c 2
 213 526 l 1
 322 526 l 1
 310 460 l 1
 201 460 l 1
 121 0 l 1
 35 0 l 1
 116 460 l 1
 68 460 l 1
 80 526 l 1
 127 526 l 1
 135 570 l 2
 139 592 144 616 150 634 c 0
 174 711 228 754 300 754 c 0
 332 754 353 752 371 749 c 1
 358 678 l 1
 344 681 331 682 319 682 c 0
 277 682 249 665 237 632 c 0
EndSplineSet
EndChar

StartChar: i
Encoding: 105 105 152
Width: 234
GlyphClass: 2
Flags: MW
HStem: 0 21G<28 114 28 28> 510 20G<122 208 208 208> 594 110<178 196> 684 20G<178 210>
VStem: 131 112<640 658>
LayerCount: 2
Fore
SplineSet
196 704 m 0xd8
 224 704 243 684 243 658 c 0
 243 622 214 594 178 594 c 0xe8
 150 594 131 614 131 640 c 0
 131 676 160 704 196 704 c 0xd8
114 0 m 1
 28 0 l 1
 122 530 l 1
 208 530 l 1
 114 0 l 1
EndSplineSet
EndChar

StartChar: j
Encoding: 106 106 161
Width: 203
GlyphClass: 2
Flags: MW
HStem: -210 72<-92 -23> 510 20G<107 193 193 193> 594 110<160 178> 684 20G<160 192>
VStem: 113 112<640 658>
LayerCount: 2
Fore
SplineSet
178 704 m 0xd8
 206 704 225 684 225 658 c 0
 225 622 196 594 160 594 c 0xe8
 132 594 113 614 113 640 c 0
 113 676 142 704 178 704 c 0xd8
193 530 m 1
 92 -46 l 2
 88 -66 83 -92 78 -110 c 0
 59 -174 18 -210 -64 -210 c 0
 -80 -210 -92 -210 -105 -208 c 1
 -92 -138 l 1
 -46 -144 -17 -128 -6 -95 c 0
 -1 -81 2 -67 7 -40 c 2
 107 530 l 1
 193 530 l 1
EndSplineSet
EndChar

StartChar: k
Encoding: 107 107 162
Width: 517
GlyphClass: 2
Flags: MW
HStem: 0 21G<28 114 28 28 371 474 371 371> 510 20G<455 565 565 565> 715 20G<158 244 244 244>
VStem: 28 537<0 530>
AnchorPoint: "Anchor-0" 227 0 basechar 0
LayerCount: 2
Fore
SplineSet
274 279 m 1
 474 0 l 1
 371 0 l 1
 211 231 l 1
 145 173 l 1
 114 0 l 1
 28 0 l 1
 158 735 l 1
 244 735 l 1
 162 269 l 1
 455 530 l 1
 565 530 l 1
 274 279 l 1
EndSplineSet
EndChar

StartChar: m
Encoding: 109 109 170
Width: 855
GlyphClass: 2
Flags: MW
HStem: 0 21G<28 114 28 28 340 426 340 340 652 738 652 652> 476 54 476 68<332.5 342.5 644.5 654.5>
VStem: 716 90<403 421.5>
LayerCount: 2
Fore
SplineSet
668 544 m 0xb0
 762 544 806 489 806 417 c 0
 806 389 803 368 795 324 c 2
 738 0 l 1
 652 0 l 1
 702 284 l 2
 711 335 716 365 716 394 c 0
 716 449 683 476 626 476 c 0
 559 476 496 394 472 264 c 1
 472 262 l 1
 426 0 l 1
 340 0 l 1
 390 284 l 2
 399 335 404 365 404 394 c 0
 404 449 371 476 314 476 c 0xb0
 247 476 183 393 160 262 c 2
 114 0 l 1
 28 0 l 1
 121 530 l 1
 207 530 l 1
 193 452 l 1xd0
 238 513 l 1
 269 535 309 544 356 544 c 0
 437 544 481 503 492 445 c 1
 550 513 l 1
 581 535 621 544 668 544 c 0xb0
EndSplineSet
EndChar

StartChar: n
Encoding: 110 110 171
Width: 595
GlyphClass: 2
Flags: MW
HStem: 0 21G<28 114 28 28 390 476 390 390> 476 68 510 20G<121 207 207 207>
VStem: 454 89<394 411>
AnchorPoint: "Anchor-0" 250 0 basechar 0
LayerCount: 2
Fore
SplineSet
381 544 m 0xd0
 489 544 543 491 543 408 c 0
 543 380 542 362 530 298 c 2
 476 0 l 1
 390 0 l 1
 443 292 l 2
 451 337 454 363 454 384 c 0
 454 438 426 478 351 476 c 0xd0
 267 474 187 414 155 233 c 2
 114 0 l 1
 28 0 l 1
 121 530 l 1
 207 530 l 1
 191 439 l 1xb0
 235 500 l 1
 286 535 327 544 381 544 c 0xd0
EndSplineSet
EndChar

StartChar: p
Encoding: 112 112 187
Width: 614
GlyphClass: 2
Flags: MW
HStem: -14 66<252 353 232 381> 478 66<363 409.5> 510 20G<122 208 208 208>
VStem: 129 24.22 494 94<256.5 369>
LayerCount: 2
Fore
SplineSet
390 544 m 0xc8
 522 544 588 449 588 328 c 0
 588 164 488 -14 274 -14 c 0
 230 -14 176 4 153 30 c 1
 129 82 l 1
 79 -196 l 1
 -7 -196 l 1
 122 530 l 1
 208 530 l 1
 193 445 l 1xb8
 243 502 l 1
 277 527 336 544 390 544 c 0xc8
286 52 m 0
 420 52 494 189 494 324 c 0
 494 414 453 478 366 478 c 0
 278 478 189 422 162 270 c 2
 157 241 l 2xd8
 140 143 178 52 286 52 c 0
EndSplineSet
EndChar

StartChar: q
Encoding: 113 113 189
Width: 612
GlyphClass: 2
Flags: MW
HStem: -14 66<204.5 251> 478 66<261 362 233 382> 510 20G<500 586 586 586>
VStem: 26 94<161 273.5 161 284> 460.76 24.24
LayerCount: 2
Fore
SplineSet
586 530 m 1xb8
 457 -196 l 1
 371 -196 l 1
 421 84 l 1
 371 28 l 1
 337 3 278 -14 224 -14 c 0
 92 -14 26 81 26 202 c 0
 26 366 126 544 340 544 c 0
 384 544 438 526 461 500 c 1
 485 448 l 1xd8
 500 530 l 1
 586 530 l 1xb8
452 260 m 2
 457 289 l 2
 474 387 436 478 328 478 c 0
 194 478 120 341 120 206 c 0
 120 116 161 52 248 52 c 0
 336 52 425 108 452 260 c 2
EndSplineSet
EndChar

StartChar: r
Encoding: 114 114 190
Width: 324
GlyphClass: 2
Flags: MW
HStem: 0 21G<28 114 28 28> 510 20G<122 208 208 208> 522 20G<319.5 339> 535 7
VStem: 28 339
AnchorPoint: "Anchor-0" 71 0 basechar 0
LayerCount: 2
Fore
SplineSet
332 542 m 0xa8
 346 542 357 540 367 535 c 1
 355 470 l 1x98
 266 476 189 423 167 302 c 2
 114 0 l 1
 28 0 l 1
 122 530 l 1
 208 530 l 1
 193 447 l 1xc8
 254 518 l 1
 278 533 307 542 332 542 c 0xa8
EndSplineSet
EndChar

StartChar: s
Encoding: 115 115 194
Width: 451
GlyphClass: 2
Flags: MW
HStem: -20 66<167 229 167 258> 478 66<212 279>
VStem: 52 94<368.5 415 368.5 427.5> 305 94<108 159.5> 340 90<379 379>
AnchorPoint: "Anchor-0" 172 0 basechar 0
LayerCount: 2
Fore
SplineSet
253 544 m 0xe8
 376 544 428 476 430 379 c 1
 340 379 l 1xe8
 337 441 309 478 249 478 c 0
 175 478 146 437 146 393 c 0
 146 344 185 320 242 303 c 0
 344 272 399 230 399 143 c 0
 399 51 324 -20 192 -20 c 0
 43 -20 -6 69 -10 150 c 1
 80 150 l 1
 87 73 135 46 199 46 c 0
 259 46 305 80 305 136 c 0xf0
 305 183 274 210 199 233 c 0
 117 258 52 292 52 384 c 0
 52 471 120 544 253 544 c 0xe8
EndSplineSet
EndChar

StartChar: v
Encoding: 118 118 214
Width: 494
GlyphClass: 2
Flags: MW
HStem: 0 69<209 209 209 252 142 209> 510 20G<35 133 133 133 448 547 547 547>
VStem: 35 512<530 530>
LayerCount: 2
Fore
SplineSet
547 530 m 1
 252 0 l 1
 142 0 l 1
 35 530 l 1
 133 530 l 1
 209 69 l 1
 448 530 l 1
 547 530 l 1
EndSplineSet
EndChar

StartChar: w
Encoding: 119 119 215
Width: 760
GlyphClass: 2
Flags: MW
HStem: 0 21G<110 213 110 110 448 550 448 448> 0 89<518 518 518 550 448 518> 444 86<409 409> 510 20G<35 134 134 134 369 478 478 478 719 813 813 813>
VStem: 35 778<530 530>
LayerCount: 2
Fore
SplineSet
813 530 m 1x98
 550 0 l 1
 448 0 l 1
 409 444 l 1xa8
 213 0 l 1
 110 0 l 1
 35 530 l 1
 134 530 l 1
 178 90 l 1
 369 530 l 1
 478 530 l 1
 518 89 l 1x58
 719 530 l 1
 813 530 l 1x98
EndSplineSet
EndChar

StartChar: x
Encoding: 120 120 220
Width: 473
GlyphClass: 2
Flags: MW
HStem: 0 21G<-53 48 -53 -53 323 425 323 323> 510 20G<50 152 152 152 417 519 519 519>
VStem: -53 572<0 530>
LayerCount: 2
Fore
SplineSet
283 264 m 1
 425 0 l 1
 323 0 l 1
 221 203 l 1
 48 0 l 1
 -53 0 l 1
 181 265 l 1
 50 530 l 1
 152 530 l 1
 244 324 l 1
 417 530 l 1
 519 530 l 1
 283 264 l 1
EndSplineSet
EndChar

StartChar: z
Encoding: 122 122 226
Width: 474
GlyphClass: 2
Flags: MW
HStem: 0 68<98 395> 458 68<96 368 84 482>
VStem: -18 500
LayerCount: 2
Fore
SplineSet
470 457 m 1
 98 68 l 1
 407 68 l 1
 395 0 l 1
 -18 0 l 1
 -7 66 l 1
 368 458 l 1
 84 458 l 1
 96 526 l 1
 482 526 l 1
 470 457 l 1
EndSplineSet
EndChar

StartChar: braceleft
Encoding: 123 123 262
Width: 303
Flags: MW
HStem: -80 56<160.5 219 207 209> 724 56<302.5 361 350 351>
VStem: 76 60<1.5 21> 144 60<256.5 280.5>
LayerCount: 2
Fore
SplineSet
361 780 m 1
 351 724 l 1
 339 724 l 2
 266 724 244 705 247 575 c 0
 250 458 226 362 130 349 c 1
 177 344 204 317 204 272 c 0xf0
 204 241 197 207 167 125 c 0
 141 54 136 33 136 13 c 0
 136 -10 156 -24 207 -24 c 2
 219 -24 l 1
 209 -80 l 1
 198 -80 l 2
 123 -80 76 -62 76 8 c 0xe0
 76 34 81 53 112 135 c 0
 138 204 144 239 144 264 c 0
 144 297 124 317 74 322 c 1
 84 378 l 1
 159 385 191 409 188 565 c 0xf0
 185 736 222 780 350 780 c 2
 361 780 l 1
EndSplineSet
EndChar

StartChar: bar
Encoding: 124 124 316
Width: 250
Flags: MW
HStem: -200 1000<8 242 8 242>
VStem: 8 234
LayerCount: 2
Fore
SplineSet
66 -200 m 1
 8 -200 l 1
 184 800 l 1
 242 800 l 1
 66 -200 l 1
EndSplineSet
EndChar

StartChar: braceright
Encoding: 125 125 263
Width: 303
Flags: MW
HStem: -80 56<-18 -17 -28 -6> 351 27 724 56<124 126 114 135>
VStem: 129 60<419.5 443.5> 197 60<679 698.5>
LayerCount: 2
Fore
SplineSet
189 436 m 0
 189 403 209 383 259 378 c 1
 249 322 l 1
 174 315 142 291 145 135 c 0
 148 -36 111 -80 -17 -80 c 2
 -28 -80 l 1
 -18 -24 l 1
 -6 -24 l 2
 67 -24 89 -5 86 125 c 0
 83 242 107 338 203 351 c 1
 156 356 129 383 129 428 c 0xf8
 129 459 136 493 166 575 c 0
 192 646 197 667 197 687 c 0
 197 710 177 724 126 724 c 2
 114 724 l 1
 124 780 l 1
 135 780 l 2
 210 780 257 762 257 692 c 0xa8
 257 666 252 647 221 565 c 0
 195 496 189 461 189 436 c 0
EndSplineSet
EndChar

StartChar: asciitilde
Encoding: 126 126 290
Width: 580
Flags: MW
HStem: 223 57<372 405 372 408> 299 57<156 189>
VStem: 56 449<223 356>
LayerCount: 2
Fore
SplineSet
449 356 m 1
 505 356 l 1
 490 270 445 223 371 223 c 0xe0
 332 223 310 236 263 264 c 0
 229 284 203 299 175 299 c 0
 137 299 121 270 112 223 c 1
 56 223 l 1
 71 309 116 356 190 356 c 0x60
 229 356 251 343 298 315 c 0
 332 295 358 280 386 280 c 0
 424 280 440 309 449 356 c 1
EndSplineSet
EndChar

StartChar: exclamdown
Encoding: 161 161 251
Width: 260
Flags: MW
HStem: 416 128<158.5 177.5>
VStem: 103 130<471 489>
LayerCount: 2
Fore
SplineSet
157 416 m 0
 124 416 103 437 103 467 c 0
 103 511 138 544 179 544 c 0
 212 544 233 523 233 493 c 0
 233 449 198 416 157 416 c 0
107 350 m 1
 185 350 l 1
 97 -160 l 1
 -5 -160 l 1
 107 350 l 1
EndSplineSet
EndChar

StartChar: cent
Encoding: 162 162 283
Width: 580
Flags: MW
HStem: -13 21G<200 200 258 258> 523 20G<356 356>
VStem: 30 94<154.5 273 154.5 278.5> 432 90<352 352>
LayerCount: 2
Fore
SplineSet
344 476 m 1
 270 54 l 1
 328 64 374 103 401 169 c 1
 491 169 l 1
 443 56 370 -4 258 -13 c 1
 244 -90 l 1
 186 -90 l 1
 200 -13 l 1
 100 -2 30 68 30 195 c 0
 30 362 123 522 298 542 c 1
 312 620 l 1
 370 620 l 1
 356 543 l 1
 469 535 521 461 522 352 c 1
 432 352 l 1
 429 426 400 467 344 476 c 1
124 198 m 0
 124 111 161 67 212 55 c 1
 286 475 l 1
 191 455 124 348 124 198 c 0
EndSplineSet
EndChar

StartChar: sterling
Encoding: 163 163 287
Width: 580
Flags: MW
HStem: 0 70<128 468> 317 56<68 116 68 132 58 116 227 227 227 422> 636 68<287.5 363>
VStem: 102 94<464 530.5 464 539.5> 143 91<218 257> 439 92<508 508>
LayerCount: 2
Fore
SplineSet
234 258 m 0xec
 234 178 210 124 128 70 c 1
 480 70 l 1
 468 0 l 1
 -7 0 l 1
 4 62 l 1
 115 88 143 182 143 245 c 0
 143 269 139 290 132 317 c 1
 58 317 l 1
 68 373 l 1xec
 116 373 l 1
 107 405 102 438 102 485 c 0
 102 594 181 704 340 704 c 0
 479 704 523 616 531 508 c 1
 439 508 l 1
 434 595 401 636 325 636 c 0
 250 636 196 574 196 487 c 0
 196 441 203 412 215 373 c 1xf4
 432 373 l 1
 422 317 l 1
 227 317 l 1
 232 297 234 277 234 258 c 0xec
EndSplineSet
EndChar

StartChar: currency
Encoding: 164 164 284
Width: 580
Flags: MW
HStem: 121 58<234.5 272.5> 423 58<286 323.5>
VStem: 103 61<267 304.5> 396 61<298 334.5 298 348>
LayerCount: 2
Fore
SplineSet
509 464 m 1
 436 402 l 1
 449 378 457 349 457 320 c 0
 457 276 441 228 409 190 c 1
 453 135 l 1
 407 96 l 1
 361 150 l 1
 331 132 294 121 251 121 c 0
 214 121 182 135 156 158 c 1
 86 99 l 1
 52 140 l 1
 124 200 l 1
 110 224 103 252 103 282 c 0
 103 327 119 376 152 414 c 1
 108 468 l 1
 154 507 l 1
 200 454 l 1
 229 471 265 481 307 481 c 0
 344 481 377 467 403 444 c 1
 475 505 l 1
 509 464 l 1
164 288 m 0
 164 220 207 179 262 179 c 0
 345 179 396 248 396 314 c 0
 396 382 351 423 296 423 c 0
 213 423 164 354 164 288 c 0
EndSplineSet
EndChar

StartChar: yen
Encoding: 165 165 288
Width: 580
Flags: MW
HStem: 0 21G<176 262 176 176> 181 56<56 208 46 218 304 456> 301 56<77 201 77 222 67 201 367 477> 670 20G<78 181 181 181 511 612 612 612>
VStem: 46 566<181 690>
LayerCount: 2
Fore
SplineSet
367 357 m 1
 487 357 l 1
 477 301 l 1
 325 301 l 1
 312 282 l 1
 304 237 l 1
 466 237 l 1
 456 181 l 1
 294 181 l 1
 262 0 l 1
 176 0 l 1
 208 181 l 1
 46 181 l 1
 56 237 l 1
 218 237 l 1
 227 289 l 1
 222 301 l 1
 67 301 l 1
 77 357 l 1
 201 357 l 1
 78 690 l 1
 181 690 l 1
 286 359 l 1
 511 690 l 1
 612 690 l 1
 367 357 l 1
EndSplineSet
EndChar

StartChar: brokenbar
Encoding: 166 166 317
Width: 250
Flags: MW
HStem: 670 20G<165 223 223 223>
VStem: 15 208
LayerCount: 2
Fore
SplineSet
163 350 m 1
 105 350 l 1
 165 690 l 1
 223 690 l 1
 163 350 l 1
73 -160 m 1
 15 -160 l 1
 75 180 l 1
 133 180 l 1
 73 -160 l 1
EndSplineSet
EndChar

StartChar: section
Encoding: 167 167 324
Width: 560
Flags: MW
HStem: -174 66<193.5 255.5 193.5 270> 638 66<305 360.5>
VStem: 36 94<265.5 318.5 265.5 318.5> 144 94<517 569.5 514.5 576> 336 94<-43.5 17> 430 90<538 538> 437 94<219 272.5>
LayerCount: 2
Fore
SplineSet
531 252 m 0xf2
 531 182 483 118 399 92 c 1
 419 67 430 36 430 -2 c 0
 430 -108 334 -174 206 -174 c 0
 113 -174 27 -120 18 0 c 1
 108 0 l 1
 115 -77 167 -108 220 -108 c 0
 291 -108 336 -76 336 -11 c 0
 336 45 301 74 203 110 c 0
 105 146 36 190 36 286 c 0xe8
 36 351 79 416 172 445 c 1
 154 469 144 499 144 535 c 0
 144 617 211 704 344 704 c 0
 447 704 511 639 520 538 c 1
 430 538 l 1xf4
 424 600 390 638 331 638 c 0
 279 638 238 601 238 538 c 0
 238 491 275 455 354 432 c 0
 474 397 531 339 531 252 c 0xf2
331 147 m 1
 400 152 437 193 437 245 c 0
 437 300 395 331 308 360 c 0
 281 368 255 379 231 393 c 1
 163 383 130 343 130 294 c 0xe2
 130 237 176 208 249 182 c 0
 279 171 307 160 331 147 c 1
EndSplineSet
EndChar

StartChar: dieresis
Encoding: 168 168 331
Width: 300
Flags: MW
HStem: 583 92<71.5 82.5 217.5 228.5>
VStem: 30 94<622 636> 176 94<622 636>
LayerCount: 2
Fore
SplineSet
85 675 m 0
 108 675 124 658 124 636 c 0
 124 608 96 583 69 583 c 0
 46 583 30 600 30 622 c 0
 30 650 58 675 85 675 c 0
231 675 m 0
 254 675 270 658 270 636 c 0
 270 608 242 583 215 583 c 0
 192 583 176 600 176 622 c 0
 176 650 204 675 231 675 c 0
EndSplineSet
EndChar

StartChar: guillemotleft
Encoding: 171 171 272
Width: 537
Flags: MW
HStem: 82 332<280 293 222 363 280 382 440 453>
VStem: 114 409<248 414>
LayerCount: 2
Fore
SplineSet
190 241 m 1
 293 82 l 1
 222 82 l 1
 114 248 l 1
 280 414 l 1
 363 414 l 1
 190 241 l 1
350 241 m 1
 453 82 l 1
 382 82 l 1
 274 248 l 1
 440 414 l 1
 523 414 l 1
 350 241 l 1
EndSplineSet
EndChar

StartChar: logicalnot
Encoding: 172 172 300
Width: 580
Flags: MW
HStem: 328 56<91 392 81 460>
VStem: 81 379<328 384>
LayerCount: 2
Fore
SplineSet
430 210 m 1
 372 210 l 1
 392 328 l 1
 81 328 l 1
 91 384 l 1
 460 384 l 1
 430 210 l 1
EndSplineSet
EndChar

StartChar: registered
Encoding: 174 174 323
Width: 508
Flags: MW
HStem: 344 46<191.5 298 191.5 307.5> 523 42<231 247 224 251> 618 41<240 260 240 240> 718 46<212 318.5>
VStem: 37 48<490 581 490 591> 296 53<591.5 600.5> 425 48<527 618>
LayerCount: 2
Fore
SplineSet
278 764 m 0
 400 764 473 682 473 577 c 0
 473 457 383 344 232 344 c 0
 110 344 37 426 37 531 c 0
 37 651 127 764 278 764 c 0
240 390 m 0
 356 390 425 477 425 577 c 0
 425 659 367 718 270 718 c 0
 154 718 85 631 85 531 c 0
 85 449 143 390 240 390 c 0
294 658 m 0
 329 654 349 635 349 604 c 0
 349 579 335 557 301 548 c 1
 318 542 325 528 324 509 c 0
 323 494 325 470 331 455 c 1
 275 455 l 1
 272 472 271 483 271 504 c 0
 271 519 261 523 247 523 c 2
 224 523 l 1
 212 455 l 1
 162 455 l 1
 198 659 l 1
 268 659 l 2
 278 659 286 659 294 658 c 0
231 565 m 1
 251 565 l 2
 258 565 262 565 268 566 c 0
 285 568 296 577 296 594 c 0
 296 607 288 615 276 617 c 0
 270 618 266 618 260 618 c 2
 240 618 l 1
 231 565 l 1
EndSplineSet
EndChar

StartChar: macron
Encoding: 175 175 335
Width: 300
Flags: MW
HStem: 604 52<35 265 25 275>
VStem: 25 250<604 656>
LayerCount: 2
Fore
SplineSet
265 604 m 1
 25 604 l 1
 35 656 l 1
 275 656 l 1
 265 604 l 1
EndSplineSet
EndChar

StartChar: degree
Encoding: 176 176 321
Width: 301
Flags: MW
HStem: 511 56<192 226 192 245.5> 693 56<204 238>
VStem: 92 63<601 643 601 649.5> 275 63<617 659>
LayerCount: 2
Fore
SplineSet
229 749 m 0
 295 749 338 704 338 647 c 0
 338 574 290 511 201 511 c 0
 135 511 92 556 92 613 c 0
 92 686 140 749 229 749 c 0
223 693 m 0
 185 693 155 668 155 618 c 0
 155 584 177 567 207 567 c 0
 245 567 275 592 275 642 c 0
 275 676 253 693 223 693 c 0
EndSplineSet
EndChar

StartChar: plusminus
Encoding: 177 177 308
Width: 580
Flags: MW
HStem: 0 56<34 444 24 454> 291 56<85 256 75 266 324 495 85 314>
VStem: 24 481<0 347>
LayerCount: 2
Fore
SplineSet
505 347 m 1
 495 291 l 1
 314 291 l 1
 282 111 l 1
 224 111 l 1
 256 291 l 1
 75 291 l 1
 85 347 l 1
 266 347 l 1
 297 523 l 1
 355 523 l 1
 324 347 l 1
 505 347 l 1
34 56 m 1
 454 56 l 1
 444 0 l 1
 24 0 l 1
 34 56 l 1
EndSplineSet
EndChar

StartChar: acute
Encoding: 180 180 326
Width: 300
Flags: MW
HStem: 580 110<106 267 106 267>
VStem: 106 161<580 690>
LayerCount: 2
Fore
SplineSet
162 580 m 1
 106 580 l 1
 187 690 l 1
 267 690 l 1
 162 580 l 1
EndSplineSet
EndChar

StartChar: paragraph
Encoding: 182 182 322
Width: 557
Flags: MW
HStem: 634 56<399 491 399 399>
VStem: 78 481<440.5 690>
LayerCount: 2
Fore
SplineSet
559 690 m 1
 417 -110 l 1
 359 -110 l 1
 491 634 l 1
 399 634 l 1
 267 -110 l 1
 209 -110 l 1
 285 320 l 1
 262 320 l 2
 244 320 223 320 206 321 c 0
 121 326 78 402 78 479 c 0
 78 564 135 681 271 689 c 0
 289 690 310 690 328 690 c 2
 559 690 l 1
EndSplineSet
EndChar

StartChar: periodcentered
Encoding: 183 183 254
Width: 202
Flags: MW
HStem: 236 138<98.5 117.5>
VStem: 38 140<295.5 314.5>
LayerCount: 2
Fore
SplineSet
120 374 m 0
 155 374 178 350 178 318 c 0
 178 273 139 236 96 236 c 0
 61 236 38 260 38 292 c 0
 38 337 77 374 120 374 c 0
EndSplineSet
EndChar

StartChar: cedilla
Encoding: 184 184 329
Width: 300
Flags: MW
HStem: -210 42<77.5 112 77.5 120> -40 49<149 149>
VStem: 159 58<-134 -105>
LayerCount: 2
Fore
SplineSet
185 9 m 1
 149 -40 l 1
 194 -48 217 -78 217 -115 c 0
 217 -182 157 -210 83 -210 c 0
 59 -210 42 -207 29 -201 c 1
 37 -161 l 1
 50 -166 67 -168 88 -168 c 0
 136 -168 159 -148 159 -120 c 0
 159 -90 128 -71 70 -78 c 1
 132 9 l 1
 185 9 l 1
EndSplineSet
EndChar

StartChar: guillemotright
Encoding: 187 187 273
Width: 537
Flags: MW
HStem: 82 332<78 91 8 149 78 168 238 251>
VStem: 8 409<82 248>
LayerCount: 2
Fore
SplineSet
257 248 m 1
 91 82 l 1
 8 82 l 1
 181 255 l 1
 78 414 l 1
 149 414 l 1
 257 248 l 1
417 248 m 1
 251 82 l 1
 168 82 l 1
 341 255 l 1
 238 414 l 1
 309 414 l 1
 417 248 l 1
EndSplineSet
EndChar

StartChar: questiondown
Encoding: 191 191 256
Width: 553
Flags: MW
HStem: -174 68<205 273.5 205 290.5> 416 128<338.5 357.5>
VStem: 38 94<-46 10.5 -46 15> 283 130<471 489>
LayerCount: 2
Fore
SplineSet
337 416 m 0
 304 416 283 437 283 467 c 0
 283 511 318 544 359 544 c 0
 392 544 413 523 413 493 c 0
 413 449 378 416 337 416 c 0
225 -174 m 0
 106 -174 38 -111 38 -25 c 0
 38 55 73 116 183 213 c 0
 247 269 270 301 284 350 c 1
 370 350 l 1
 360 295 339 263 261 187 c 0
 155 84 132 38 132 -17 c 0
 132 -75 174 -106 236 -106 c 0
 311 -106 371 -62 388 36 c 1
 478 36 l 1
 458 -94 356 -174 225 -174 c 0
EndSplineSet
EndChar

StartChar: Agrave
Encoding: 192 192 6
Width: 646
GlyphClass: 2
Flags: MW
HStem: 0 21G<-17 81 -17 -17 498 498 498 591> 244 70<243 449 243 460 207 449> 622 68<402 402> 736 94<403 403 403 421 341 459>
VStem: -17 608<0 0>
LayerCount: 2
Fore
SplineSet
403 736 m 1
 341 830 l 1
 421 830 l 1
 459 736 l 1
 403 736 l 1
460 244 m 1
 207 244 l 1
 81 0 l 1
 -17 0 l 1
 353 690 l 1
 475 690 l 1
 591 0 l 1
 498 0 l 1
 460 244 l 1
449 314 m 1
 402 622 l 1
 243 314 l 1
 449 314 l 1
EndSplineSet
Position2: "'cpsp' Capital Spacing in Latin lookup 0 subtable" dx=5 dy=0 dh=10 dv=0
EndChar

StartChar: Aacute
Encoding: 193 193 2
Width: 646
GlyphClass: 2
Flags: MW
HStem: 0 21G<-17 81 -17 -17 498 498 498 591> 244 70<243 449 243 460 207 449> 622 68<402 402> 736 94<394 544 394 544>
VStem: -17 608<0 0>
LayerCount: 2
Fore
SplineSet
450 736 m 1
 394 736 l 1
 464 830 l 1
 544 830 l 1
 450 736 l 1
460 244 m 1
 207 244 l 1
 81 0 l 1
 -17 0 l 1
 353 690 l 1
 475 690 l 1
 591 0 l 1
 498 0 l 1
 460 244 l 1
449 314 m 1
 402 622 l 1
 243 314 l 1
 449 314 l 1
EndSplineSet
Position2: "'cpsp' Capital Spacing in Latin lookup 0 subtable" dx=5 dy=0 dh=10 dv=0
EndChar

StartChar: Acircumflex
Encoding: 194 194 4
Width: 646
GlyphClass: 2
Flags: MW
HStem: 0 21G<-17 81 -17 -17 498 498 498 591> 244 70<243 449 243 460 207 449> 622 68<402 402> 736 94<331 473 331 473 457 457 457 473 414 524>
VStem: -17 608<0 0>
LayerCount: 2
Fore
SplineSet
397 736 m 1
 331 736 l 1
 414 830 l 1
 473 830 l 1
 524 736 l 1
 457 736 l 1
 436 791 l 1
 397 736 l 1
460 244 m 1
 207 244 l 1
 81 0 l 1
 -17 0 l 1
 353 690 l 1
 475 690 l 1
 591 0 l 1
 498 0 l 1
 460 244 l 1
449 314 m 1
 402 622 l 1
 243 314 l 1
 449 314 l 1
EndSplineSet
Position2: "'cpsp' Capital Spacing in Latin lookup 0 subtable" dx=5 dy=0 dh=10 dv=0
EndChar

StartChar: Atilde
Encoding: 195 195 10
Width: 646
GlyphClass: 2
Flags: MW
HStem: 0 21G<-17 81 -17 -17 498 498 498 591> 244 70<243 449 243 460 207 449> 622 68<402 402> 746 71<472.5 547> 750 71<323 397.5 323 397.5>
VStem: -17 608<0 0>
LayerCount: 2
Fore
SplineSet
381 770 m 0xec
 371 770 364 765 361 750 c 1
 323 750 l 1
 333 806 356 821 388 821 c 0xec
 407 821 422 817 447 808 c 0
 470 800 480 797 489 797 c 0
 499 797 506 802 509 817 c 1
 547 817 l 1
 537 761 514 746 482 746 c 0xf4
 463 746 448 750 423 759 c 0
 400 767 390 770 381 770 c 0xec
460 244 m 1
 207 244 l 1
 81 0 l 1
 -17 0 l 1
 353 690 l 1
 475 690 l 1
 591 0 l 1
 498 0 l 1
 460 244 l 1
449 314 m 1
 402 622 l 1
 243 314 l 1
 449 314 l 1
EndSplineSet
Position2: "'cpsp' Capital Spacing in Latin lookup 0 subtable" dx=5 dy=0 dh=10 dv=0
EndChar

StartChar: Adieresis
Encoding: 196 196 5
Width: 646
GlyphClass: 2
Flags: MW
HStem: 0 21G<-17 81 -17 -17 498 498 498 591> 244 70<243 449 243 460 207 449> 622 68<402 402> 737 92<359.5 370.5 499.5 510.5>
VStem: 318 94<776 790> 458 94<776 790>
LayerCount: 2
Fore
SplineSet
357 737 m 0
 334 737 318 754 318 776 c 0
 318 804 346 829 373 829 c 0
 396 829 412 812 412 790 c 0
 412 762 384 737 357 737 c 0
497 737 m 0
 474 737 458 754 458 776 c 0
 458 804 486 829 513 829 c 0
 536 829 552 812 552 790 c 0
 552 762 524 737 497 737 c 0
460 244 m 1
 207 244 l 1
 81 0 l 1
 -17 0 l 1
 353 690 l 1
 475 690 l 1
 591 0 l 1
 498 0 l 1
 460 244 l 1
449 314 m 1
 402 622 l 1
 243 314 l 1
 449 314 l 1
EndSplineSet
Position2: "'cpsp' Capital Spacing in Latin lookup 0 subtable" dx=5 dy=0 dh=10 dv=0
EndChar

StartChar: Aring
Encoding: 197 197 9
Width: 646
GlyphClass: 2
Flags: MW
HStem: 0 21G<-17 81 -17 -17 498 498 498 591> 244 70<243 449 243 460 207 449> 622 68<402 402> 716 36<419.5 443.5 419.5 455> 838 36<432.5 456.5>
VStem: 346 50<777 803.5 777 812> 480 50<786.5 813>
LayerCount: 2
Fore
SplineSet
428 716 m 0
 376 716 346 745 346 783 c 0
 346 841 394 874 448 874 c 0
 500 874 530 845 530 807 c 0
 530 749 482 716 428 716 c 0
446 838 m 0
 419 838 396 820 396 787 c 0
 396 767 409 752 430 752 c 0
 457 752 480 770 480 803 c 0
 480 823 467 838 446 838 c 0
460 244 m 1
 207 244 l 1
 81 0 l 1
 -17 0 l 1
 353 690 l 1
 475 690 l 1xee
 591 0 l 1
 498 0 l 1
 460 244 l 1
449 314 m 1
 402 622 l 1
 243 314 l 1
 449 314 l 1
EndSplineSet
Position2: "'cpsp' Capital Spacing in Latin lookup 0 subtable" dx=5 dy=0 dh=10 dv=0
EndChar

StartChar: AE
Encoding: 198 198 11
Width: 929
GlyphClass: 2
Flags: MW
HStem: 0 70<506 847> 244 70<266 441 213 450> 310 70<542 862 533 874> 620 70<569 569 569 946>
VStem: -80 1039<0 690>
LayerCount: 2
Fore
SplineSet
569 620 m 1xb8
 542 380 l 1
 874 380 l 1
 862 310 l 1
 533 310 l 1xb8
 506 70 l 1
 860 70 l 1
 847 0 l 1
 412 0 l 1
 441 244 l 1
 213 244 l 1xd8
 28 0 l 1
 -80 0 l 1
 450 690 l 1
 959 690 l 1
 946 620 l 1
 569 620 l 1xb8
484 602 m 1
 266 314 l 1
 450 314 l 1xd8
 484 602 l 1
EndSplineSet
Position2: "'cpsp' Capital Spacing in Latin lookup 0 subtable" dx=5 dy=0 dh=10 dv=0
EndChar

StartChar: Ccedilla
Encoding: 199 199 16
Width: 717
GlyphClass: 2
Flags: MW
HStem: -210 42<182.5 217 182.5 225> -14 68<313 395.5 281 412> -11 21G<275 275> -2 21G<229 229> 636 68<347 487.5>
VStem: 57 97 264 58<-134 -105> 607 87<460 470 470 529.5>
AnchorPoint: "Anchor-0" 258 0 basechar 0
LayerCount: 2
Fore
SplineSet
444 704 m 0xcf
 619 704 704 605 694 470 c 1
 693 460 l 1
 607 460 l 1
 607 470 l 2
 607 589 545 636 430 636 c 0
 264 636 154 477 154 282 c 0
 154 128 224 54 338 54 c 0
 453 54 519 121 557 220 c 1
 561 230 l 1
 647 230 l 1
 644 220 l 1
 606 85 503 -14 321 -14 c 0xcf
 305 -14 290 -13 275 -11 c 1
 254 -40 l 1xaf
 299 -48 322 -78 322 -115 c 0
 322 -182 262 -210 188 -210 c 0
 164 -210 147 -207 134 -201 c 1
 142 -161 l 1
 155 -166 172 -168 193 -168 c 0
 241 -168 264 -148 264 -120 c 0
 264 -90 233 -71 175 -78 c 1
 229 -2 l 1x9f
 116 32 56 132 57 271 c 1
 56 515 219 704 444 704 c 0xcf
EndSplineSet
Position2: "'cpsp' Capital Spacing in Latin lookup 0 subtable" dx=5 dy=0 dh=10 dv=0
EndChar

StartChar: Egrave
Encoding: 200 200 28
Width: 593
GlyphClass: 2
Flags: MW
HStem: 0 70<150 511> 310 70<205 526 193 538> 620 70<248 248 248 610> 736 94<394 394 394 412 332 450>
VStem: 52 571
AnchorPoint: "Anchor-0" 257 0 basechar 0
LayerCount: 2
Fore
SplineSet
394 736 m 1
 332 830 l 1
 412 830 l 1
 450 736 l 1
 394 736 l 1
248 620 m 1
 205 380 l 1
 538 380 l 1
 526 310 l 1
 193 310 l 1
 150 70 l 1
 524 70 l 1
 511 0 l 1
 52 0 l 1
 174 690 l 1
 623 690 l 1
 610 620 l 1
 248 620 l 1
EndSplineSet
Position2: "'cpsp' Capital Spacing in Latin lookup 0 subtable" dx=5 dy=0 dh=10 dv=0
EndChar

StartChar: Eacute
Encoding: 201 201 23
Width: 593
GlyphClass: 2
Flags: MW
HStem: 0 70<150 511> 310 70<205 526 193 538> 620 70<248 248 248 610> 736 94<385 535 385 535>
VStem: 52 571
AnchorPoint: "Anchor-0" 257 0 basechar 0
LayerCount: 2
Fore
SplineSet
441 736 m 1
 385 736 l 1
 455 830 l 1
 535 830 l 1
 441 736 l 1
248 620 m 1
 205 380 l 1
 538 380 l 1
 526 310 l 1
 193 310 l 1
 150 70 l 1
 524 70 l 1
 511 0 l 1
 52 0 l 1
 174 690 l 1
 623 690 l 1
 610 620 l 1
 248 620 l 1
EndSplineSet
Position2: "'cpsp' Capital Spacing in Latin lookup 0 subtable" dx=5 dy=0 dh=10 dv=0
EndChar

StartChar: Ecircumflex
Encoding: 202 202 25
Width: 593
GlyphClass: 2
Flags: MW
HStem: 0 70<150 511> 310 70<205 526 193 538> 620 70<248 248 248 610> 736 94<322 464 322 464 448 448 448 464 405 515>
VStem: 52 571
AnchorPoint: "Anchor-0" 257 0 basechar 0
LayerCount: 2
Fore
SplineSet
388 736 m 1
 322 736 l 1
 405 830 l 1
 464 830 l 1
 515 736 l 1
 448 736 l 1
 427 791 l 1
 388 736 l 1
248 620 m 1
 205 380 l 1
 538 380 l 1
 526 310 l 1
 193 310 l 1
 150 70 l 1
 524 70 l 1
 511 0 l 1
 52 0 l 1
 174 690 l 1
 623 690 l 1
 610 620 l 1
 248 620 l 1
EndSplineSet
Position2: "'cpsp' Capital Spacing in Latin lookup 0 subtable" dx=5 dy=0 dh=10 dv=0
EndChar

StartChar: Edieresis
Encoding: 203 203 26
Width: 593
GlyphClass: 2
Flags: MW
HStem: 0 70<150 511> 310 70<205 526 193 538> 620 70<248 248 248 610> 737 92<350.5 361.5 490.5 501.5>
VStem: 309 94<776 790> 449 94<776 790>
AnchorPoint: "Anchor-0" 257 0 basechar 0
LayerCount: 2
Fore
SplineSet
348 737 m 0
 325 737 309 754 309 776 c 0
 309 804 337 829 364 829 c 0
 387 829 403 812 403 790 c 0
 403 762 375 737 348 737 c 0
488 737 m 0
 465 737 449 754 449 776 c 0
 449 804 477 829 504 829 c 0
 527 829 543 812 543 790 c 0
 543 762 515 737 488 737 c 0
248 620 m 1
 205 380 l 1
 538 380 l 1
 526 310 l 1
 193 310 l 1
 150 70 l 1
 524 70 l 1
 511 0 l 1
 52 0 l 1
 174 690 l 1
 623 690 l 1
 610 620 l 1
 248 620 l 1
EndSplineSet
Position2: "'cpsp' Capital Spacing in Latin lookup 0 subtable" dx=5 dy=0 dh=10 dv=0
EndChar

StartChar: Igrave
Encoding: 204 204 44
Width: 263
GlyphClass: 2
Flags: MW
HStem: 0 21G<52 138 52 52> 670 20G<174 260 260 260> 736 94<201 219 139 257 201 201>
VStem: 52 208
LayerCount: 2
Fore
SplineSet
257 736 m 1
 201 736 l 1
 139 830 l 1
 219 830 l 1
 257 736 l 1
138 0 m 1
 52 0 l 1
 174 690 l 1
 260 690 l 1
 138 0 l 1
EndSplineSet
Position2: "'cpsp' Capital Spacing in Latin lookup 0 subtable" dx=5 dy=0 dh=10 dv=0
EndChar

StartChar: Iacute
Encoding: 205 205 40
Width: 263
GlyphClass: 2
Flags: MW
HStem: 0 21G<52 138 52 52> 670 20G<174 260 260 260> 736 94<192 342 192 342>
VStem: 52 290
LayerCount: 2
Fore
SplineSet
248 736 m 1
 192 736 l 1
 262 830 l 1
 342 830 l 1
 248 736 l 1
138 0 m 1
 52 0 l 1
 174 690 l 1
 260 690 l 1
 138 0 l 1
EndSplineSet
Position2: "'cpsp' Capital Spacing in Latin lookup 0 subtable" dx=5 dy=0 dh=10 dv=0
EndChar

StartChar: Icircumflex
Encoding: 206 206 41
Width: 263
GlyphClass: 2
Flags: MW
HStem: 0 21G<52 138 52 52> 670 20G<174 260 260 260> 736 94<129 271 129 271 255 255 255 271 212 322>
VStem: 52 270
LayerCount: 2
Fore
SplineSet
195 736 m 1
 129 736 l 1
 212 830 l 1
 271 830 l 1
 322 736 l 1
 255 736 l 1
 234 791 l 1
 195 736 l 1
174 690 m 1
 260 690 l 1
 138 0 l 1
 52 0 l 1
 174 690 l 1
EndSplineSet
Position2: "'cpsp' Capital Spacing in Latin lookup 0 subtable" dx=5 dy=0 dh=10 dv=0
EndChar

StartChar: Idieresis
Encoding: 207 207 42
Width: 263
GlyphClass: 2
Flags: MW
HStem: 0 21G<52 138 52 52> 670 20G<174 260 260 260> 737 92<157.5 168.5 297.5 308.5>
VStem: 116 94<776 790> 256 94<776 790>
LayerCount: 2
Fore
SplineSet
171 829 m 0
 194 829 210 812 210 790 c 0
 210 762 182 737 155 737 c 0
 132 737 116 754 116 776 c 0
 116 804 144 829 171 829 c 0
311 829 m 0
 334 829 350 812 350 790 c 0
 350 762 322 737 295 737 c 0
 272 737 256 754 256 776 c 0
 256 804 284 829 311 829 c 0
138 0 m 1
 52 0 l 1
 174 690 l 1
 260 690 l 1
 138 0 l 1
EndSplineSet
Position2: "'cpsp' Capital Spacing in Latin lookup 0 subtable" dx=5 dy=0 dh=10 dv=0
EndChar

StartChar: Eth
Encoding: 208 208 19
Width: 711
GlyphClass: 2
Flags: MW
HStem: 0 70<150 238> 305 56<21 106 11 116 201 315> 620 70<247 348 247 247>
VStem: 594 95<316 461.5>
LayerCount: 2
Fore
SplineSet
438 687 m 0
 575 675 689 580 689 392 c 0
 689 213 570 26 327 3 c 0
 291 0 270 0 238 0 c 2
 52 0 l 1
 106 305 l 1
 11 305 l 1
 21 361 l 1
 116 361 l 1
 174 690 l 1
 351 690 l 2
 388 690 404 690 438 687 c 0
334 74 m 0
 517 100 594 242 594 390 c 0
 594 533 518 603 424 616 c 0
 402 619 380 620 348 620 c 2
 247 620 l 1
 201 361 l 1
 325 361 l 1
 315 305 l 1
 192 305 l 1
 150 70 l 1
 256 70 l 2
 287 70 312 71 334 74 c 0
EndSplineSet
Position2: "'cpsp' Capital Spacing in Latin lookup 0 subtable" dx=5 dy=0 dh=10 dv=0
EndChar

StartChar: Ntilde
Encoding: 209 209 62
Width: 717
GlyphClass: 2
Flags: MW
HStem: 0 21G<52 138 52 52 460 592 460 460> 0 82<521 521 521 592 460 521> 608 82<243 243> 670 20G<174 306 306 306 628 714 714 714> 746 71<497.5 572> 750 71<348 422.5 348 422.5>
VStem: 52 662
AnchorPoint: "Anchor-0" 322 0 basechar 0
LayerCount: 2
Fore
SplineSet
406 770 m 0x96
 396 770 389 765 386 750 c 1
 348 750 l 1
 358 806 381 821 413 821 c 0x96
 432 821 447 817 472 808 c 0
 495 800 505 797 514 797 c 0
 524 797 531 802 534 817 c 1
 572 817 l 1
 562 761 539 746 507 746 c 0x9a
 488 746 473 750 448 759 c 0
 425 767 415 770 406 770 c 0x96
714 690 m 1
 592 0 l 1
 460 0 l 1
 243 608 l 1xa6
 138 0 l 1
 52 0 l 1
 174 690 l 1
 306 690 l 1
 521 82 l 1x56
 628 690 l 1
 714 690 l 1
EndSplineSet
Position2: "'cpsp' Capital Spacing in Latin lookup 0 subtable" dx=5 dy=0 dh=10 dv=0
EndChar

StartChar: Ograve
Encoding: 210 210 67
Width: 747
GlyphClass: 2
Flags: MW
HStem: -14 68<291.5 450 291.5 472> 636 68<334 492> 736 94<431 431 431 449 369 487>
VStem: 59 94<216 363.5 216 388> 631 94<326.5 474>
LayerCount: 2
Fore
SplineSet
431 736 m 1
 369 830 l 1
 449 830 l 1
 487 736 l 1
 431 736 l 1
447 704 m 0
 630 704 725 568 725 405 c 0
 725 199 607 -14 337 -14 c 0
 154 -14 59 122 59 285 c 0
 59 491 177 704 447 704 c 0
355 54 m 0
 545 54 631 248 631 405 c 0
 631 543 555 636 429 636 c 0
 239 636 153 442 153 285 c 0
 153 147 228 54 355 54 c 0
EndSplineSet
Position2: "'cpsp' Capital Spacing in Latin lookup 0 subtable" dx=5 dy=0 dh=10 dv=0
EndChar

StartChar: Otilde
Encoding: 213 213 71
Width: 747
GlyphClass: 2
Flags: MW
HStem: -14 68<291.5 450 291.5 472> 636 68<334 492> 746 71<500.5 575> 750 71<351 425.5 351 425.5>
VStem: 59 94<216 363.5 216 388> 631 94<326.5 474>
LayerCount: 2
Fore
SplineSet
409 770 m 0xdc
 399 770 392 765 389 750 c 1
 351 750 l 1
 361 806 384 821 416 821 c 0xdc
 435 821 450 817 475 808 c 0
 498 800 508 797 517 797 c 0
 527 797 534 802 537 817 c 1
 575 817 l 1
 565 761 542 746 510 746 c 0xec
 491 746 476 750 451 759 c 0
 428 767 418 770 409 770 c 0xdc
447 704 m 0
 630 704 725 568 725 405 c 0
 725 199 607 -14 337 -14 c 0
 154 -14 59 122 59 285 c 0
 59 491 177 704 447 704 c 0
355 54 m 0
 545 54 631 248 631 405 c 0
 631 543 555 636 429 636 c 0
 239 636 153 442 153 285 c 0
 153 147 228 54 355 54 c 0
EndSplineSet
Position2: "'cpsp' Capital Spacing in Latin lookup 0 subtable" dx=5 dy=0 dh=10 dv=0
EndChar

StartChar: Odieresis
Encoding: 214 214 66
Width: 747
GlyphClass: 2
Flags: MW
HStem: -14 68<291.5 450 291.5 472> 636 68<334 492> 737 92<387.5 398.5 527.5 538.5>
VStem: 59 94<216 363.5 216 388> 346 94<776 790> 486 94<776 790> 631 94<326.5 474>
LayerCount: 2
Fore
SplineSet
385 737 m 0
 362 737 346 754 346 776 c 0
 346 804 374 829 401 829 c 0
 424 829 440 812 440 790 c 0
 440 762 412 737 385 737 c 0
525 737 m 0
 502 737 486 754 486 776 c 0
 486 804 514 829 541 829 c 0
 564 829 580 812 580 790 c 0
 580 762 552 737 525 737 c 0
447 704 m 0
 630 704 725 568 725 405 c 0
 725 199 607 -14 337 -14 c 0
 154 -14 59 122 59 285 c 0
 59 491 177 704 447 704 c 0
355 54 m 0
 545 54 631 248 631 405 c 0
 631 543 555 636 429 636 c 0
 239 636 153 442 153 285 c 0
 153 147 228 54 355 54 c 0
EndSplineSet
Position2: "'cpsp' Capital Spacing in Latin lookup 0 subtable" dx=5 dy=0 dh=10 dv=0
EndChar

StartChar: multiply
Encoding: 215 215 302
Width: 580
Flags: MW
HStem: 131 366<114 446>
VStem: 73 414<180 448>
LayerCount: 2
Fore
SplineSet
325 310 m 1
 435 176 l 1
 386 135 l 1
 276 269 l 1
 114 131 l 1
 73 180 l 1
 235 318 l 1
 125 452 l 1
 174 493 l 1
 284 359 l 1
 446 497 l 1
 487 448 l 1
 325 310 l 1
EndSplineSet
EndChar

StartChar: Oslash
Encoding: 216 216 70
Width: 748
GlyphClass: 2
Flags: MW
HStem: -14 68<322.5 455 322.5 477> 636 68<339 470>
VStem: 64 94<268 363.5 268 388> 636 94<326.5 423.5>
LayerCount: 2
Fore
SplineSet
778 638 m 1
 693 566 l 1
 718 519 730 464 730 405 c 0
 730 199 612 -14 342 -14 c 0
 245 -14 173 24 126 84 c 1
 40 11 l 1
 6 52 l 1
 98 130 l 1
 75 175 64 229 64 285 c 0
 64 491 182 704 452 704 c 0
 546 704 617 668 664 611 c 1
 744 679 l 1
 778 638 l 1
158 285 m 0
 158 251 163 220 171 192 c 1
 596 554 l 1
 562 606 506 636 434 636 c 0
 244 636 158 442 158 285 c 0
636 405 m 0
 636 442 631 475 621 504 c 1
 194 142 l 1
 228 87 285 54 360 54 c 0
 550 54 636 248 636 405 c 0
EndSplineSet
Position2: "'cpsp' Capital Spacing in Latin lookup 0 subtable" dx=5 dy=0 dh=10 dv=0
EndChar

StartChar: Ucircumflex
Encoding: 219 219 92
Width: 683
GlyphClass: 2
Flags: MW
HStem: -14 68<267.5 370 267.5 389.5> 670 20G<170 256 256 256 602 688 688 688> 736 94<341 483 341 483 467 467 467 483 424 534>
VStem: 86 86<143 194>
LayerCount: 2
Fore
SplineSet
407 736 m 1
 341 736 l 1
 424 830 l 1
 483 830 l 1
 534 736 l 1
 467 736 l 1
 446 791 l 1
 407 736 l 1
688 690 m 1
 611 255 l 2
 607 233 603 213 598 193 c 0
 566 61 474 -14 305 -14 c 0
 159 -14 86 55 86 179 c 0
 86 209 89 235 94 262 c 2
 170 690 l 1
 256 690 l 1
 182 270 l 2
 174 224 172 208 172 182 c 0
 172 104 218 54 317 54 c 0
 423 54 485 97 514 202 c 0
 519 220 523 241 527 263 c 2
 602 690 l 1
 688 690 l 1
EndSplineSet
Position2: "'cpsp' Capital Spacing in Latin lookup 0 subtable" dx=5 dy=0 dh=10 dv=0
EndChar

StartChar: Udieresis
Encoding: 220 220 93
Width: 683
GlyphClass: 2
Flags: MW
HStem: -14 68<267.5 370 267.5 389.5> 670 20G<170 256 256 256 602 688 688 688> 737 92<369.5 380.5 509.5 520.5>
VStem: 86 86<143 194> 328 94<776 790> 468 94<776 790>
LayerCount: 2
Fore
SplineSet
383 829 m 0
 406 829 422 812 422 790 c 0
 422 762 394 737 367 737 c 0
 344 737 328 754 328 776 c 0
 328 804 356 829 383 829 c 0
523 829 m 0
 546 829 562 812 562 790 c 0
 562 762 534 737 507 737 c 0
 484 737 468 754 468 776 c 0
 468 804 496 829 523 829 c 0
688 690 m 1
 611 255 l 2
 607 233 603 213 598 193 c 0
 566 61 474 -14 305 -14 c 0
 159 -14 86 55 86 179 c 0
 86 209 89 235 94 262 c 2
 170 690 l 1
 256 690 l 1
 182 270 l 2
 174 224 172 208 172 182 c 0
 172 104 218 54 317 54 c 0
 423 54 485 97 514 202 c 0
 519 220 523 241 527 263 c 2
 602 690 l 1
 688 690 l 1
EndSplineSet
Position2: "'cpsp' Capital Spacing in Latin lookup 0 subtable" dx=5 dy=0 dh=10 dv=0
EndChar

StartChar: Yacute
Encoding: 221 221 107
Width: 581
GlyphClass: 2
Flags: MW
HStem: 0 21G<216 302 216 216> 670 20G<94 185 185 185 567 668 668 668> 736 94<356 506 356 506>
VStem: 94 574<690 690>
LayerCount: 2
Fore
SplineSet
412 736 m 1
 356 736 l 1
 426 830 l 1
 506 830 l 1
 412 736 l 1
349 268 m 1
 302 0 l 1
 216 0 l 1
 264 272 l 1
 94 690 l 1
 185 690 l 1
 319 350 l 1
 567 690 l 1
 668 690 l 1
 349 268 l 1
EndSplineSet
Position2: "'cpsp' Capital Spacing in Latin lookup 0 subtable" dx=5 dy=0 dh=10 dv=0
EndChar

StartChar: Thorn
Encoding: 222 222 74
Width: 609
GlyphClass: 2
Flags: MW
HStem: 0 21G<52 138 52 52> 211 72<188 308 175 321> 530 72<244 365 232 377> 530 160<232 260 174 365 232 232>
VStem: 517 94<442 461.5>
LayerCount: 2
Fore
SplineSet
467 598 m 0xe8
 552 587 611 536 611 448 c 0
 611 436 610 422 607 408 c 0
 587 295 501 228 399 215 c 0
 367 211 343 211 308 211 c 2
 175 211 l 1
 138 0 l 1
 52 0 l 1
 174 690 l 1
 260 690 l 1xd8
 244 602 l 1
 377 602 l 2
 412 602 436 602 467 598 c 0xe8
515 406 m 0
 517 416 517 425 517 433 c 0
 517 490 482 515 441 525 c 0
 422 529 396 530 365 530 c 2
 232 530 l 1
 188 283 l 1
 321 283 l 2
 352 283 379 284 399 288 c 0xd8
 450 299 501 330 515 406 c 0
EndSplineSet
Position2: "'cpsp' Capital Spacing in Latin lookup 0 subtable" dx=5 dy=0 dh=10 dv=0
EndChar

StartChar: germandbls
Encoding: 223 223 199
Width: 587
GlyphClass: 2
Flags: MW
HStem: -4 66<330 385.5 330 405.5> 0 21G<28 114 28 28> 686 68<314.5 411>
VStem: 349 92<369 399 369 404.5> 457 94<138.5 174.5> 484 94<588 625>
LayerCount: 2
Fore
SplineSet
382 754 m 0xb4
 514 754 578 688 578 600 c 0
 578 564 565 518 533 476 c 1
 458 440 441 415 441 383 c 0xb4
 441 355 451 335 484 302 c 1
 524 264 551 221 551 162 c 0
 551 78 478 -4 333 -4 c 0
 300 -4 275 -2 237 6 c 1
 249 75 l 1
 291 64 319 62 341 62 c 0
 430 62 457 117 457 160 c 0xb8
 457 189 445 224 409 261 c 0
 366 306 349 330 349 381 c 0
 349 428 375 473 457 514 c 1
 479 547 484 576 484 600 c 0
 484 650 449 686 373 686 c 0
 256 686 217 584 200 488 c 2
 114 0 l 1
 28 0 l 1x74
 113 480 l 2
 139 628 195 754 382 754 c 0xb4
EndSplineSet
EndChar

StartChar: aacute
Encoding: 225 225 116
Width: 506
GlyphClass: 2
Flags: MW
HStem: -14 66<170 187> 0 21G<330 416 330 330> 259.17 62.29 478 66<258 334> 580 110<285 446 285 446>
VStem: 12 94<106 183 106 199.5> 332 84 388 86<402 424.5>
LayerCount: 2
Fore
SplineSet
341 580 m 1xbd
 285 580 l 1
 366 690 l 1
 446 690 l 1
 341 580 l 1xbd
304 544 m 0
 423 544 474 491 474 413 c 0
 474 391 470 363 465 334 c 2xbd
 430 135 l 2
 423 95 419 59 416 0 c 1
 330 0 l 1
 334 76 l 1x7e
 296 28 l 1xbe
 264 -3 217 -14 157 -14 c 0
 83 -14 12 29 12 123 c 0
 12 276 171 335 377 319 c 1
 379 333 l 1
 386 372 388 389 388 404 c 0
 388 445 365 478 303 478 c 0
 213 478 175 439 159 366 c 1
 69 366 l 1
 92 479 180 544 304 544 c 0
197 52 m 0
 264 52 340 115 356 201 c 2
 366 256 l 1
 228 271 106 234 106 132 c 0
 106 80 143 52 197 52 c 0
EndSplineSet
EndChar

StartChar: acircumflex
Encoding: 226 226 118
Width: 506
GlyphClass: 2
Flags: MW
HStem: -14 66<170 187> 0 21G<330 416 330 330> 259.17 62.29 478 66<258 334> 580 110<223 369 223 369 352 352 352 369 310 416> 643 47<330 330>
VStem: 12 94<106 183 106 199.5> 332 84 388 86<402 424.5>
LayerCount: 2
Fore
SplineSet
286 580 m 1xba80
 223 580 l 1
 310 690 l 1
 369 690 l 1
 416 580 l 1
 352 580 l 1xba80
 330 643 l 1xb680
 286 580 l 1xba80
304 544 m 0
 423 544 474 491 474 413 c 0
 474 391 470 363 465 334 c 2xba80
 430 135 l 2
 423 95 419 59 416 0 c 1
 330 0 l 1
 334 76 l 1x7b
 296 28 l 1xbb
 264 -3 217 -14 157 -14 c 0
 83 -14 12 29 12 123 c 0
 12 276 171 335 377 319 c 1
 379 333 l 1
 386 372 388 389 388 404 c 0
 388 445 365 478 303 478 c 0
 213 478 175 439 159 366 c 1
 69 366 l 1
 92 479 180 544 304 544 c 0
197 52 m 0
 264 52 340 115 356 201 c 2
 366 256 l 1
 228 271 106 234 106 132 c 0
 106 80 143 52 197 52 c 0
EndSplineSet
EndChar

StartChar: atilde
Encoding: 227 227 124
Width: 506
GlyphClass: 2
Flags: MW
HStem: -14 66<170 187> 0 21G<330 416 330 330> 259.17 62.29 478 66<258 334> 596 71<365.5 440> 600 71<216 290.5 216 290.5>
VStem: 12 94<106 183 106 199.5> 332 84 388 86<402 424.5>
LayerCount: 2
Fore
SplineSet
274 620 m 0xb680
 264 620 257 615 254 600 c 1
 216 600 l 1
 226 656 249 671 281 671 c 0xb680
 300 671 315 667 340 658 c 0
 363 650 373 647 382 647 c 0
 392 647 399 652 402 667 c 1
 440 667 l 1
 430 611 407 596 375 596 c 0xba80
 356 596 341 600 316 609 c 0
 293 617 283 620 274 620 c 0xb680
304 544 m 0
 423 544 474 491 474 413 c 0
 474 391 470 363 465 334 c 2xb680
 430 135 l 2
 423 95 419 59 416 0 c 1
 330 0 l 1
 334 76 l 1x77
 296 28 l 1xb7
 264 -3 217 -14 157 -14 c 0
 83 -14 12 29 12 123 c 0
 12 276 171 335 377 319 c 1
 379 333 l 1
 386 372 388 389 388 404 c 0
 388 445 365 478 303 478 c 0
 213 478 175 439 159 366 c 1
 69 366 l 1
 92 479 180 544 304 544 c 0
197 52 m 0
 264 52 340 115 356 201 c 2
 366 256 l 1
 228 271 106 234 106 132 c 0
 106 80 143 52 197 52 c 0
EndSplineSet
EndChar

StartChar: adieresis
Encoding: 228 228 119
Width: 506
GlyphClass: 2
Flags: MW
HStem: -14 66<170 187> 0 21G<330 416 330 330> 259.17 62.29 478 66<258 334> 583 92<248.5 259.5 394.5 405.5>
VStem: 12 94<106 183 106 199.5> 207 94<622 636> 332 84 353 94<622 636> 388 86<402 424.5>
LayerCount: 2
Fore
SplineSet
246 583 m 0xbe40
 223 583 207 600 207 622 c 0
 207 650 235 675 262 675 c 0
 285 675 301 658 301 636 c 0
 301 608 273 583 246 583 c 0xbe40
392 583 m 0xbe80
 369 583 353 600 353 622 c 0
 353 650 381 675 408 675 c 0
 431 675 447 658 447 636 c 0
 447 608 419 583 392 583 c 0xbe80
304 544 m 0xbe40
 423 544 474 491 474 413 c 0
 474 391 470 363 465 334 c 2xbe40
 430 135 l 2
 423 95 419 59 416 0 c 1
 330 0 l 1
 334 76 l 1x7f
 296 28 l 1xbf
 264 -3 217 -14 157 -14 c 0
 83 -14 12 29 12 123 c 0
 12 276 171 335 377 319 c 1
 379 333 l 1
 386 372 388 389 388 404 c 0
 388 445 365 478 303 478 c 0
 213 478 175 439 159 366 c 1
 69 366 l 1
 92 479 180 544 304 544 c 0xbe40
197 52 m 0
 264 52 340 115 356 201 c 2
 366 256 l 1
 228 271 106 234 106 132 c 0
 106 80 143 52 197 52 c 0
EndSplineSet
EndChar

StartChar: aring
Encoding: 229 229 123
Width: 506
GlyphClass: 2
Flags: MW
HStem: -14 66<170 187> 0 21G<330 416 330 330> 259.17 62.29 478 66<258 334> 565 36<312.5 336.5 312.5 345.5> 697 36<325.5 349.5>
VStem: 12 94<106 183 106 199.5> 238 51<625.5 655.5 625.5 661.5> 332 84 373 51<642.5 672.5> 388 86<402 424.5>
LayerCount: 2
Fore
SplineSet
316 565 m 0xbf40
 269 565 238 593 238 633 c 0
 238 690 287 733 346 733 c 0
 393 733 424 705 424 665 c 0
 424 608 375 565 316 565 c 0xbf40
339 697 m 0
 312 697 289 674 289 637 c 0
 289 614 302 601 323 601 c 0
 350 601 373 624 373 661 c 0
 373 684 360 697 339 697 c 0
304 544 m 0xb720
 423 544 474 491 474 413 c 0
 474 391 470 363 465 334 c 2xb720
 430 135 l 2
 423 95 419 59 416 0 c 1
 330 0 l 1
 334 76 l 1x7780
 296 28 l 1xb780
 264 -3 217 -14 157 -14 c 0
 83 -14 12 29 12 123 c 0
 12 276 171 335 377 319 c 1
 379 333 l 1
 386 372 388 389 388 404 c 0
 388 445 365 478 303 478 c 0
 213 478 175 439 159 366 c 1
 69 366 l 1
 92 479 180 544 304 544 c 0xb720
197 52 m 0
 264 52 340 115 356 201 c 2
 366 256 l 1
 228 271 106 234 106 132 c 0
 106 80 143 52 197 52 c 0
EndSplineSet
EndChar

StartChar: ae
Encoding: 230 230 125
Width: 877
GlyphClass: 2
Flags: MW
HStem: -14 66<169.5 206.5 541.5 610.5> 239 66<373 373 471 768> 478 66<263.5 334.5 630.5 712.5>
VStem: 11 96<103 168.5 103 171> 370.5 85.5 768 89<305 406.5>
LayerCount: 2
Fore
SplineSet
841 239 m 1
 459 239 l 1
 457 224 456 210 456 197 c 0
 456 95 507 52 576 52 c 0
 645 52 709 95 734 171 c 1
 824 171 l 1
 781 43 670 -14 561 -14 c 0
 477 -14 409 17 383 101 c 1
 346 47 l 1
 291 1 248 -14 165 -14 c 0
 78 -14 11 37 11 117 c 0
 11 225 99 305 351 305 c 2
 385 305 l 1
 393 350 395 367 395 382 c 0
 395 441 368 478 301 478 c 0
 226 478 183 439 167 366 c 1
 77 366 l 1
 100 479 188 544 312 544 c 0
 419 544 459 504 472 454 c 1
 524 511 591 544 670 544 c 0
 794 544 857 466 857 347 c 0
 857 312 851 271 841 239 c 1
657 478 m 0
 572 478 502 418 471 305 c 1
 768 305 l 1
 774 378 768 478 657 478 c 0
198 52 m 0
 278 52 351 113 368 209 c 2
 373 239 l 1
 354 240 335 240 318 240 c 0
 184 240 107 210 107 127 c 0
 107 79 141 52 198 52 c 0
EndSplineSet
EndChar

StartChar: ccedilla
Encoding: 231 231 130
Width: 531
GlyphClass: 2
Flags: MW
HStem: -210 42<143.5 178 143.5 186> -11 21G<184 184> 478 66<257 348>
VStem: 25 94<147 281.5 147 284> 225 58<-134 -105> 425 90<352 352>
AnchorPoint: "Anchor-0" 214 0 basechar 0
LayerCount: 2
Fore
SplineSet
235 52 m 0
 308 52 365 92 396 169 c 1
 486 169 l 1
 436 50 357 -10 234 -14 c 1
 215 -40 l 1
 260 -48 283 -78 283 -115 c 0
 283 -182 223 -210 149 -210 c 0
 125 -210 108 -207 95 -201 c 1
 103 -161 l 1
 116 -166 133 -168 154 -168 c 0
 202 -168 225 -148 225 -120 c 0
 225 -90 194 -71 136 -78 c 1
 184 -11 l 1
 90 3 25 73 25 195 c 0
 25 373 131 544 328 544 c 0
 455 544 514 468 515 352 c 1
 425 352 l 1
 421 437 384 478 312 478 c 0
 202 478 119 365 119 198 c 0
 119 96 170 52 235 52 c 0
EndSplineSet
EndChar

StartChar: egrave
Encoding: 232 232 142
Width: 539
GlyphClass: 2
Flags: MW
HStem: -14 66<204.5 273.5 204.5 278.5> 239 66<131 431 131 504 121 431> 478 66<255.5 345.5> 580 110<311 311 311 326 246 367>
VStem: 25 94<146.5 203.5 146.5 271> 433 87<336 385.5>
AnchorPoint: "Anchor-0" 223 0 basechar 0
LayerCount: 2
Fore
SplineSet
311 580 m 1
 246 690 l 1
 326 690 l 1
 367 580 l 1
 311 580 l 1
504 239 m 1
 121 239 l 1
 120 225 119 210 119 197 c 0
 119 96 170 52 239 52 c 0
 308 52 372 95 397 171 c 1
 487 171 l 1
 444 43 333 -14 224 -14 c 0
 105 -14 25 60 25 194 c 0
 25 348 108 544 320 544 c 0
 444 544 520 466 520 347 c 0
 520 312 514 271 504 239 c 1
307 478 m 0
 204 478 152 395 131 305 c 1
 431 305 l 1
 432 318 433 330 433 342 c 0
 433 429 384 478 307 478 c 0
EndSplineSet
EndChar

StartChar: edieresis
Encoding: 235 235 140
Width: 539
GlyphClass: 2
Flags: MW
HStem: -14 66<204.5 273.5 204.5 278.5> 239 66<131 431 131 504 121 431> 478 66<255.5 345.5> 583 92<264.5 275.5 410.5 421.5>
VStem: 25 94<146.5 203.5 146.5 271> 223 94<622 636> 369 94<622 636> 433 87<336 385.5>
AnchorPoint: "Anchor-0" 223 0 basechar 0
LayerCount: 2
Fore
SplineSet
262 583 m 0xfd
 239 583 223 600 223 622 c 0
 223 650 251 675 278 675 c 0
 301 675 317 658 317 636 c 0
 317 608 289 583 262 583 c 0xfd
408 583 m 0xfe
 385 583 369 600 369 622 c 0
 369 650 397 675 424 675 c 0
 447 675 463 658 463 636 c 0
 463 608 435 583 408 583 c 0xfe
504 239 m 1xfd
 121 239 l 1
 120 225 119 210 119 197 c 0
 119 96 170 52 239 52 c 0
 308 52 372 95 397 171 c 1
 487 171 l 1
 444 43 333 -14 224 -14 c 0
 105 -14 25 60 25 194 c 0
 25 348 108 544 320 544 c 0
 444 544 520 466 520 347 c 0
 520 312 514 271 504 239 c 1xfd
307 478 m 0
 204 478 152 395 131 305 c 1
 431 305 l 1
 432 318 433 330 433 342 c 0
 433 429 384 478 307 478 c 0
EndSplineSet
EndChar

StartChar: igrave
Encoding: 236 236 157
Width: 234
GlyphClass: 2
Flags: MW
HStem: 0 21G<28 114 28 28> 510 20G<122 208 208 208> 580 110<150 165 85 206 150 150>
VStem: 28 180
LayerCount: 2
Fore
SplineSet
206 580 m 1
 150 580 l 1
 85 690 l 1
 165 690 l 1
 206 580 l 1
114 0 m 1
 28 0 l 1
 122 530 l 1
 208 530 l 1
 114 0 l 1
EndSplineSet
EndChar

StartChar: iacute
Encoding: 237 237 154
Width: 234
GlyphClass: 2
Flags: MW
HStem: 0 21G<28 114 28 28> 510 20G<122 208 208 208> 580 110<140 301 140 301>
VStem: 28 273
LayerCount: 2
Fore
SplineSet
196 580 m 1
 140 580 l 1
 221 690 l 1
 301 690 l 1
 196 580 l 1
114 0 m 1
 28 0 l 1
 122 530 l 1
 208 530 l 1
 114 0 l 1
EndSplineSet
EndChar

StartChar: icircumflex
Encoding: 238 238 155
Width: 234
GlyphClass: 2
Flags: MW
HStem: 0 21G<28 114 28 28> 510 20G<122 208 208 208> 580 110<78 224 78 224 207 207 207 224 165 271> 643 47<185 185>
VStem: 28 243
LayerCount: 2
Fore
SplineSet
141 580 m 1xe8
 78 580 l 1
 165 690 l 1
 224 690 l 1
 271 580 l 1
 207 580 l 1xe8
 185 643 l 1xd8
 141 580 l 1xe8
122 530 m 1
 208 530 l 1
 114 0 l 1
 28 0 l 1
 122 530 l 1
EndSplineSet
EndChar

StartChar: idieresis
Encoding: 239 239 156
Width: 234
GlyphClass: 2
Flags: MW
HStem: 0 21G<28 114 28 28> 510 20G<122 208 208 208> 583 92<103.5 114.5 249.5 260.5>
VStem: 62 94<622 636> 208 94<530 647 622 636>
LayerCount: 2
Fore
SplineSet
117 675 m 0
 140 675 156 658 156 636 c 0
 156 608 128 583 101 583 c 0
 78 583 62 600 62 622 c 0
 62 650 90 675 117 675 c 0
263 675 m 0
 286 675 302 658 302 636 c 0
 302 608 274 583 247 583 c 0
 224 583 208 600 208 622 c 0
 208 650 236 675 263 675 c 0
114 0 m 1
 28 0 l 1
 122 530 l 1
 208 530 l 1
 114 0 l 1
EndSplineSet
EndChar

StartChar: eth
Encoding: 240 240 133
Width: 596
GlyphClass: 2
Flags: MW
HStem: -14 66<204 315 204 345.5> 478 66<243 337.5 215.5 345> 674 20G<312 312> 725 20G<372 372>
VStem: 25 94<153 263 153 276> 445 94<277.5 387.5>
LayerCount: 2
Fore
SplineSet
552 665 m 1
 491 641 l 1
 526 579 539 492 539 370 c 0
 539 185 457 -14 234 -14 c 0
 92 -14 25 85 25 205 c 0
 25 347 118 544 313 544 c 0
 362 544 392 537 425 515 c 1
 454 463 l 1
 452 518 444 570 416 613 c 1
 279 560 l 1
 261 609 l 1
 379 654 l 1
 361 669 339 683 312 694 c 1
 372 745 l 1
 407 729 436 710 459 685 c 1
 534 714 l 1
 552 665 l 1
241 52 m 0
 389 52 445 205 445 337 c 0
 445 438 378 478 312 478 c 0
 174 478 119 318 119 208 c 0
 119 98 167 52 241 52 c 0
EndSplineSet
EndChar

StartChar: ntilde
Encoding: 241 241 176
Width: 595
GlyphClass: 2
Flags: MW
HStem: 0 21G<28 114 28 28 390 476 390 390> 476 68 510 20G<121 207 207 207> 596 71<407.5 482> 600 71<258 332.5 258 332.5>
VStem: 454 89<394 411>
AnchorPoint: "Anchor-0" 250 0 basechar 0
LayerCount: 2
Fore
SplineSet
316 620 m 0xcc
 306 620 299 615 296 600 c 1
 258 600 l 1
 268 656 291 671 323 671 c 0xcc
 342 671 357 667 382 658 c 0
 405 650 415 647 424 647 c 0
 434 647 441 652 444 667 c 1
 482 667 l 1
 472 611 449 596 417 596 c 0xd4
 398 596 383 600 358 609 c 0
 335 617 325 620 316 620 c 0xcc
381 544 m 0
 489 544 543 491 543 408 c 0
 543 380 542 362 530 298 c 2
 476 0 l 1
 390 0 l 1
 443 292 l 2
 451 337 454 363 454 384 c 0
 454 438 426 478 351 476 c 0xcc
 267 474 187 414 155 233 c 2
 114 0 l 1
 28 0 l 1
 121 530 l 1
 207 530 l 1
 191 439 l 1xac
 235 500 l 1
 286 535 327 544 381 544 c 0
EndSplineSet
EndChar

StartChar: oacute
Encoding: 243 243 178
Width: 588
GlyphClass: 2
Flags: MW
HStem: -14 66<216 332 216 363> 478 66<256 372> 580 110<316 477 316 477>
VStem: 28 94<175.5 282.5 175.5 291.5> 466 94<247.5 354.5>
LayerCount: 2
Fore
SplineSet
372 580 m 1
 316 580 l 1
 397 690 l 1
 477 690 l 1
 372 580 l 1
333 544 m 0
 497 544 560 431 560 310 c 0
 560 167 471 -14 255 -14 c 0
 91 -14 28 99 28 220 c 0
 28 363 117 544 333 544 c 0
266 52 m 0
 398 52 466 187 466 308 c 0
 466 401 422 478 322 478 c 0
 190 478 122 343 122 222 c 0
 122 129 166 52 266 52 c 0
EndSplineSet
EndChar

StartChar: ocircumflex
Encoding: 244 244 179
Width: 588
GlyphClass: 2
Flags: MW
HStem: -14 66<216 332 216 363> 478 66<256 372> 580 110<254 400 254 400 383 383 383 400 341 447> 643 47<361 361>
VStem: 28 94<175.5 282.5 175.5 291.5> 466 94<247.5 354.5>
LayerCount: 2
Fore
SplineSet
317 580 m 1xec
 254 580 l 1
 341 690 l 1
 400 690 l 1
 447 580 l 1
 383 580 l 1xec
 361 643 l 1xdc
 317 580 l 1xec
333 544 m 0
 497 544 560 431 560 310 c 0
 560 167 471 -14 255 -14 c 0
 91 -14 28 99 28 220 c 0
 28 363 117 544 333 544 c 0
266 52 m 0
 398 52 466 187 466 308 c 0
 466 401 422 478 322 478 c 0
 190 478 122 343 122 222 c 0
 122 129 166 52 266 52 c 0
EndSplineSet
EndChar

StartChar: otilde
Encoding: 245 245 185
Width: 588
GlyphClass: 2
Flags: MW
HStem: -14 66<216 332 216 363> 478 66<256 372> 596 71<396.5 471> 600 71<247 321.5 247 321.5>
VStem: 28 94<175.5 282.5 175.5 291.5> 466 94<247.5 354.5>
LayerCount: 2
Fore
SplineSet
305 620 m 0xdc
 295 620 288 615 285 600 c 1
 247 600 l 1
 257 656 280 671 312 671 c 0xdc
 331 671 346 667 371 658 c 0
 394 650 404 647 413 647 c 0
 423 647 430 652 433 667 c 1
 471 667 l 1
 461 611 438 596 406 596 c 0xec
 387 596 372 600 347 609 c 0
 324 617 314 620 305 620 c 0xdc
333 544 m 0
 497 544 560 431 560 310 c 0
 560 167 471 -14 255 -14 c 0
 91 -14 28 99 28 220 c 0
 28 363 117 544 333 544 c 0
266 52 m 0
 398 52 466 187 466 308 c 0
 466 401 422 478 322 478 c 0
 190 478 122 343 122 222 c 0
 122 129 166 52 266 52 c 0
EndSplineSet
EndChar

StartChar: odieresis
Encoding: 246 246 180
Width: 588
GlyphClass: 2
Flags: MW
HStem: -14 66<216 332 216 363> 478 66<256 372> 583 92<279.5 290.5 425.5 436.5>
VStem: 28 94<175.5 282.5 175.5 291.5> 238 94<622 636> 384 94<622 636> 466 94<247.5 354.5>
LayerCount: 2
Fore
SplineSet
277 583 m 0xfa
 254 583 238 600 238 622 c 0
 238 650 266 675 293 675 c 0
 316 675 332 658 332 636 c 0
 332 608 304 583 277 583 c 0xfa
423 583 m 0xfc
 400 583 384 600 384 622 c 0
 384 650 412 675 439 675 c 0
 462 675 478 658 478 636 c 0
 478 608 450 583 423 583 c 0xfc
333 544 m 0xfa
 497 544 560 431 560 310 c 0
 560 167 471 -14 255 -14 c 0
 91 -14 28 99 28 220 c 0
 28 363 117 544 333 544 c 0xfa
266 52 m 0
 398 52 466 187 466 308 c 0
 466 401 422 478 322 478 c 0
 190 478 122 343 122 222 c 0
 122 129 166 52 266 52 c 0
EndSplineSet
EndChar

StartChar: divide
Encoding: 247 247 291
Width: 580
Flags: MW
HStem: 101 112<246 261.5> 291 56<75 485 65 495> 421 112<302.5 318> 513 20G<302.5 334>
VStem: 197 114<148.5 164.5> 253 114<469.5 485.5>
LayerCount: 2
Fore
SplineSet
320 533 m 0xd4
 348 533 367 514 367 488 c 0
 367 451 336 421 300 421 c 0xe4
 271 421 253 440 253 467 c 0
 253 504 285 533 320 533 c 0xd4
485 291 m 1xd8
 65 291 l 1
 75 347 l 1
 495 347 l 1
 485 291 l 1xd8
264 213 m 0
 293 213 311 194 311 167 c 0
 311 130 279 101 244 101 c 0
 216 101 197 120 197 146 c 0
 197 183 228 213 264 213 c 0
EndSplineSet
EndChar

StartChar: oslash
Encoding: 248 248 184
Width: 630
GlyphClass: 2
Flags: MW
HStem: -14 66<250 342 250 373> 478 66<266 360>
VStem: 38 94<210 282.5 210 291.5> 476 94<247.5 318>
LayerCount: 2
Fore
SplineSet
638 508 m 1
 545 429 l 1
 562 393 570 352 570 310 c 0
 570 167 481 -14 265 -14 c 0
 189 -14 134 10 98 49 c 1
 18 -19 l 1
 -16 22 l 1
 67 92 l 1
 47 130 38 174 38 220 c 0
 38 363 127 544 343 544 c 0
 424 544 480 517 516 474 c 1
 604 549 l 1
 638 508 l 1
132 222 m 0
 132 198 135 176 141 155 c 1
 449 417 l 1
 426 454 388 478 332 478 c 0
 200 478 132 343 132 222 c 0
476 308 m 0
 476 328 474 347 470 365 c 1
 164 105 l 1
 187 73 224 52 276 52 c 0
 408 52 476 187 476 308 c 0
EndSplineSet
EndChar

StartChar: uacute
Encoding: 250 250 206
Width: 590
GlyphClass: 2
Flags: MW
HStem: -14 68 0 21G<384 470 384 384> 510 20G<115 201 201 201 477 563 563 563> 580 110<316 477 316 477>
VStem: 48 89<119 136>
LayerCount: 2
Fore
SplineSet
372 580 m 1xb8
 316 580 l 1
 397 690 l 1
 477 690 l 1
 372 580 l 1xb8
563 530 m 1
 470 0 l 1
 384 0 l 1
 400 91 l 1x78
 356 30 l 1
 305 -5 264 -14 210 -14 c 0
 102 -14 48 39 48 122 c 0
 48 150 49 168 61 232 c 2
 115 530 l 1
 201 530 l 1
 148 238 l 2
 140 193 137 167 137 146 c 0
 137 92 165 52 240 54 c 0
 324 56 404 116 436 297 c 2
 477 530 l 1
 563 530 l 1
EndSplineSet
EndChar

StartChar: ucircumflex
Encoding: 251 251 207
Width: 590
GlyphClass: 2
Flags: MW
HStem: -14 68 0 21G<384 470 384 384> 510 20G<115 201 201 201 477 563 563 563> 580 110<254 400 254 400 383 383 383 400 341 447> 643 47<361 361>
VStem: 48 89<119 136>
LayerCount: 2
Fore
SplineSet
317 580 m 1xb4
 254 580 l 1
 341 690 l 1
 400 690 l 1
 447 580 l 1
 383 580 l 1xb4
 361 643 l 1xac
 317 580 l 1xb4
563 530 m 1
 470 0 l 1
 384 0 l 1
 400 91 l 1x74
 356 30 l 1
 305 -5 264 -14 210 -14 c 0
 102 -14 48 39 48 122 c 0
 48 150 49 168 61 232 c 2
 115 530 l 1
 201 530 l 1
 148 238 l 2
 140 193 137 167 137 146 c 0
 137 92 165 52 240 54 c 0
 324 56 404 116 436 297 c 2
 477 530 l 1
 563 530 l 1
EndSplineSet
EndChar

StartChar: udieresis
Encoding: 252 252 208
Width: 590
GlyphClass: 2
Flags: MW
HStem: -14 68 0 21G<384 470 384 384> 510 20G<115 201 201 201 477 563 563 563> 583 92<279.5 290.5 425.5 436.5>
VStem: 48 89<119 136> 238 94<622 636> 384 94<622 636>
LayerCount: 2
Fore
SplineSet
277 583 m 0xbe
 254 583 238 600 238 622 c 0
 238 650 266 675 293 675 c 0
 316 675 332 658 332 636 c 0
 332 608 304 583 277 583 c 0xbe
423 583 m 0
 400 583 384 600 384 622 c 0
 384 650 412 675 439 675 c 0
 462 675 478 658 478 636 c 0
 478 608 450 583 423 583 c 0
563 530 m 1
 470 0 l 1
 384 0 l 1
 400 91 l 1x7e
 356 30 l 1
 305 -5 264 -14 210 -14 c 0
 102 -14 48 39 48 122 c 0
 48 150 49 168 61 232 c 2
 115 530 l 1
 201 530 l 1
 148 238 l 2
 140 193 137 167 137 146 c 0
 137 92 165 52 240 54 c 0
 324 56 404 116 436 297 c 2
 477 530 l 1
 563 530 l 1
EndSplineSet
EndChar

StartChar: ydieresis
Encoding: 255 255 224
Width: 494
GlyphClass: 2
Flags: MW
HStem: -210 71<8 39.5 8 62> 510 20G<35 133 133 133 448 547 547 547> 583 92<229.5 240.5 375.5 386.5>
VStem: 188 94<622 636> 334 94<622 636>
LayerCount: 2
Fore
SplineSet
227 583 m 0
 204 583 188 600 188 622 c 0
 188 650 216 675 243 675 c 0
 266 675 282 658 282 636 c 0
 282 608 254 583 227 583 c 0
373 583 m 0
 350 583 334 600 334 622 c 0
 334 650 362 675 389 675 c 0
 412 675 428 658 428 636 c 0
 428 608 400 583 373 583 c 0
547 530 m 1
 252 0 l 2
 161 -163 112 -210 12 -210 c 0
 -3 -210 -17 -209 -30 -207 c 1
 -18 -136 l 1
 -7 -138 3 -139 13 -139 c 0
 66 -139 101 -117 139 -46 c 2
 148 -29 l 1
 35 530 l 1
 133 530 l 1
 209 63 l 1
 448 530 l 1
 547 530 l 1
EndSplineSet
EndChar

StartChar: Amacron
Encoding: 256 256 7
Width: 646
GlyphClass: 2
Flags: MW
HStem: 0 21G<-17 81 -17 -17 498 498 498 591> 244 70<243 449 243 460 207 449> 622 68<402 402> 757 52<320 550 310 560>
VStem: -17 608<0 0>
LayerCount: 2
Fore
SplineSet
550 757 m 1
 310 757 l 1
 320 809 l 1
 560 809 l 1
 550 757 l 1
460 244 m 1
 207 244 l 1
 81 0 l 1
 -17 0 l 1
 353 690 l 1
 475 690 l 1
 591 0 l 1
 498 0 l 1
 460 244 l 1
449 314 m 1
 402 622 l 1
 243 314 l 1
 449 314 l 1
EndSplineSet
Position2: "'cpsp' Capital Spacing in Latin lookup 0 subtable" dx=5 dy=0 dh=10 dv=0
EndChar

StartChar: Abreve
Encoding: 258 258 3
Width: 646
GlyphClass: 2
Flags: MW
HStem: 0 21G<-17 81 -17 -17 498 498 498 591> 244 70<243 449 243 460 207 449> 622 68<402 402> 722 55<417.5 448.5 417.5 460.5>
VStem: 339.89 55.11
LayerCount: 2
Fore
SplineSet
424 722 m 0
 350 722 333 777 342 830 c 1
 395 830 l 1
 390 797 401 777 434 777 c 0
 463 777 485 794 493 830 c 1
 546 830 l 1
 533 761 497 722 424 722 c 0
460 244 m 1
 207 244 l 1
 81 0 l 1
 -17 0 l 1
 353 690 l 1
 475 690 l 1
 591 0 l 1
 498 0 l 1
 460 244 l 1
449 314 m 1
 402 622 l 1
 243 314 l 1
 449 314 l 1
EndSplineSet
Position2: "'cpsp' Capital Spacing in Latin lookup 0 subtable" dx=5 dy=0 dh=10 dv=0
EndChar

StartChar: abreve
Encoding: 259 259 117
Width: 506
GlyphClass: 2
Flags: MW
HStem: -14 66<170 187> 0 21G<330 416 330 330> 259.17 62.29 478 66<258 334> 566 55<305 340.5 305 351.5> 566 124<273 289 236 351.5>
VStem: 12 94<106 183 106 199.5> 231.76 57.24 332 84 388 86<402 424.5>
LayerCount: 2
Fore
SplineSet
316 566 m 0xb740
 230 566 225 631 236 690 c 1
 289 690 l 1xb740
 285 654 284 621 326 621 c 0xbb40
 355 621 377 638 387 690 c 1
 440 690 l 1
 425 607 387 566 316 566 c 0xb740
304 544 m 0xb340
 423 544 474 491 474 413 c 0
 474 391 470 363 465 334 c 2xb340
 430 135 l 2
 423 95 419 59 416 0 c 1
 330 0 l 1
 334 76 l 1x7380
 296 28 l 1xb380
 264 -3 217 -14 157 -14 c 0
 83 -14 12 29 12 123 c 0
 12 276 171 335 377 319 c 1
 379 333 l 1
 386 372 388 389 388 404 c 0
 388 445 365 478 303 478 c 0
 213 478 175 439 159 366 c 1
 69 366 l 1
 92 479 180 544 304 544 c 0xb340
197 52 m 0
 264 52 340 115 356 201 c 2
 366 256 l 1
 228 271 106 234 106 132 c 0
 106 80 143 52 197 52 c 0
EndSplineSet
EndChar

StartChar: Aogonek
Encoding: 260 260 8
Width: 646
GlyphClass: 2
Flags: MW
HStem: -223 54<416 490> 0 21G<-17 81 -17 -17 560 591 560 560> 244 70<243 449 243 460 207 449> 622 68<402 402>
VStem: 357 86<-142 -118.5>
LayerCount: 2
Fore
SplineSet
591 0 m 1
 560 0 l 1
 492 -11 443 -81 443 -127 c 0
 443 -157 456 -169 480 -169 c 0
 500 -169 519 -163 539 -149 c 1
 530 -195 l 1
 506 -212 474 -223 437 -223 c 0
 395 -223 357 -203 357 -150 c 0
 357 -87 405 -22 496 10 c 1
 460 244 l 1
 207 244 l 1
 81 0 l 1
 -17 0 l 1
 353 690 l 1
 475 690 l 1
 591 0 l 1
449 314 m 1
 402 622 l 1
 243 314 l 1
 449 314 l 1
EndSplineSet
Position2: "'cpsp' Capital Spacing in Latin lookup 0 subtable" dx=5 dy=0 dh=10 dv=0
EndChar

StartChar: aogonek
Encoding: 261 261 122
Width: 506
GlyphClass: 2
Flags: MW
HStem: -223 54<249 323> -14 66<170 187> 0 21G<393 416 393 393> 259.17 62.29 478 66<258 334>
VStem: 12 94<106 183 106 199.5> 190 86<-142 -118> 332.5 83.5 388 86<402 424.5>
LayerCount: 2
Fore
SplineSet
304 544 m 0x5e80
 423 544 474 491 474 413 c 0
 474 391 470 363 465 334 c 2x5e80
 430 135 l 2
 423 95 419 59 416 0 c 1
 393 0 l 1x3f
 325 -11 276 -81 276 -127 c 0
 276 -157 289 -169 313 -169 c 0
 333 -169 352 -163 372 -149 c 1
 363 -195 l 1
 339 -212 307 -223 270 -223 c 0
 228 -223 190 -203 190 -150 c 0
 190 -86 239 -22 331 11 c 1
 334 76 l 1
 296 28 l 1xdf
 264 -3 217 -14 157 -14 c 0
 83 -14 12 29 12 123 c 0
 12 276 171 335 377 319 c 1
 379 333 l 1
 386 372 388 389 388 404 c 0
 388 445 365 478 303 478 c 0
 213 478 175 439 159 366 c 1
 69 366 l 1
 92 479 180 544 304 544 c 0x5e80
197 52 m 0
 264 52 340 115 356 201 c 2
 366 256 l 1
 228 271 106 234 106 132 c 0
 106 80 143 52 197 52 c 0
EndSplineSet
EndChar

StartChar: cacute
Encoding: 263 263 128
Width: 531
GlyphClass: 2
Flags: MW
HStem: -14 66<202.5 271.5 202.5 287> 478 66<257 348> 580 110<293 454 293 454>
VStem: 25 94<147 281.5 147 284> 425 90<352 352>
AnchorPoint: "Anchor-0" 214 0 basechar 0
LayerCount: 2
Fore
SplineSet
349 580 m 1
 293 580 l 1
 374 690 l 1
 454 690 l 1
 349 580 l 1
328 544 m 0
 455 544 514 468 515 352 c 1
 425 352 l 1
 421 437 384 478 312 478 c 0
 202 478 119 365 119 198 c 0
 119 96 170 52 235 52 c 0
 308 52 365 92 396 169 c 1
 486 169 l 1
 434 46 352 -14 222 -14 c 0
 108 -14 25 57 25 195 c 0
 25 373 131 544 328 544 c 0
EndSplineSet
EndChar

StartChar: cdotaccent
Encoding: 267 267 131
Width: 531
GlyphClass: 2
Flags: MW
HStem: -14 66<202.5 271.5 202.5 287> 478 66<257 348> 594 110<331 349> 684 20G<331 363>
VStem: 25 94<147 281.5 147 284> 284 112<640 658> 425 90<352 352>
AnchorPoint: "Anchor-0" 214 0 basechar 0
LayerCount: 2
Fore
SplineSet
349 704 m 0xdc
 377 704 396 684 396 658 c 0
 396 622 367 594 331 594 c 0xec
 303 594 284 614 284 640 c 0
 284 676 313 704 349 704 c 0xdc
328 544 m 0xde
 455 544 514 468 515 352 c 1
 425 352 l 1
 421 437 384 478 312 478 c 0
 202 478 119 365 119 198 c 0
 119 96 170 52 235 52 c 0
 308 52 365 92 396 169 c 1
 486 169 l 1
 434 46 352 -14 222 -14 c 0
 108 -14 25 57 25 195 c 0
 25 373 131 544 328 544 c 0xde
EndSplineSet
EndChar

StartChar: Ccaron
Encoding: 268 268 15
Width: 717
GlyphClass: 2
Flags: MW
HStem: -14 68<281 395.5 281 412> 636 68<347 487.5> 736 94<421 421 421 437 370 482>
VStem: 57 97 607 87<460 470 470 529.5>
AnchorPoint: "Anchor-0" 258 0 basechar 0
LayerCount: 2
Fore
SplineSet
421 736 m 1
 370 830 l 1
 437 830 l 1
 458 775 l 1
 497 830 l 1
 565 830 l 1
 482 736 l 1
 421 736 l 1
444 704 m 0
 619 704 704 605 694 470 c 1
 693 460 l 1
 607 460 l 1
 607 470 l 2
 607 589 545 636 430 636 c 0
 264 636 154 477 154 282 c 0
 154 128 224 54 338 54 c 0
 453 54 519 121 557 220 c 1
 561 230 l 1
 647 230 l 1
 644 220 l 1
 606 85 503 -14 321 -14 c 0
 149 -14 56 98 57 271 c 1
 56 515 219 704 444 704 c 0
EndSplineSet
Position2: "'cpsp' Capital Spacing in Latin lookup 0 subtable" dx=5 dy=0 dh=10 dv=0
EndChar

StartChar: ccaron
Encoding: 269 269 129
Width: 531
GlyphClass: 2
Flags: MW
HStem: -14 66<202.5 271.5 202.5 287> 478 66<257 348> 580 110<298 298 298 315 251 357>
VStem: 25 94<147 281.5 147 284> 425 90<352 352>
AnchorPoint: "Anchor-0" 214 0 basechar 0
LayerCount: 2
Fore
SplineSet
298 580 m 1
 251 690 l 1
 315 690 l 1
 337 627 l 1
 381 690 l 1
 444 690 l 1
 357 580 l 1
 298 580 l 1
235 52 m 0
 308 52 365 92 396 169 c 1
 486 169 l 1
 434 46 352 -14 222 -14 c 0
 108 -14 25 57 25 195 c 0
 25 373 131 544 328 544 c 0
 455 544 514 468 515 352 c 1
 425 352 l 1
 421 437 384 478 312 478 c 0
 202 478 119 365 119 198 c 0
 119 96 170 52 235 52 c 0
EndSplineSet
EndChar

StartChar: dcroat
Encoding: 273 273 135
Width: 614
GlyphClass: 2
Flags: MW
HStem: -14 66<204.5 251> 0 21G<406 492 406 406> 478 66<261 362 233 382> 595 56<403 511 393 521 607 639> 595 140<393 622 597 622 536 639 597 597>
VStem: 26 94<161 273.5 161 284> 460.76 24.24
LayerCount: 2
Fore
SplineSet
639 595 m 1xac
 597 595 l 1
 492 0 l 1
 406 0 l 1
 421 85 l 1x6c
 371 28 l 1
 337 3 278 -14 224 -14 c 0
 92 -14 26 81 26 202 c 0
 26 366 126 544 340 544 c 0
 384 544 438 526 461 500 c 1
 485 448 l 1
 511 595 l 1
 393 595 l 1xae
 403 651 l 1
 521 651 l 1xb6
 536 735 l 1
 622 735 l 1xae
 607 651 l 1
 649 651 l 1xb4
 639 595 l 1xac
452 260 m 2
 457 289 l 2
 474 387 436 478 328 478 c 0
 194 478 120 341 120 206 c 0
 120 116 161 52 248 52 c 0xae
 336 52 425 108 452 260 c 2
EndSplineSet
EndChar

StartChar: Edotaccent
Encoding: 278 278 27
Width: 593
GlyphClass: 2
Flags: MW
HStem: 0 70<150 511> 310 70<205 526 193 538> 620 70<248 248 248 610> 737 92<420.5 431.5>
VStem: 379 94<776 790>
AnchorPoint: "Anchor-0" 257 0 basechar 0
LayerCount: 2
Fore
SplineSet
418 737 m 0
 395 737 379 754 379 776 c 0
 379 804 407 829 434 829 c 0
 457 829 473 812 473 790 c 0
 473 762 445 737 418 737 c 0
248 620 m 1
 205 380 l 1
 538 380 l 1
 526 310 l 1
 193 310 l 1
 150 70 l 1
 524 70 l 1
 511 0 l 1
 52 0 l 1
 174 690 l 1
 623 690 l 1
 610 620 l 1
 248 620 l 1
EndSplineSet
Position2: "'cpsp' Capital Spacing in Latin lookup 0 subtable" dx=5 dy=0 dh=10 dv=0
EndChar

StartChar: edotaccent
Encoding: 279 279 141
Width: 539
GlyphClass: 2
Flags: MW
HStem: -14 66<204.5 273.5 204.5 278.5> 239 66<131 431 131 504 121 431> 478 66<255.5 345.5> 594 110<339 357> 684 20G<339 371>
VStem: 25 94<146.5 203.5 146.5 271> 292 112<640 658> 433 87<336 385.5>
AnchorPoint: "Anchor-0" 223 0 basechar 0
LayerCount: 2
Fore
SplineSet
339 594 m 0xf7
 311 594 292 614 292 640 c 0
 292 676 321 704 357 704 c 0
 385 704 404 684 404 658 c 0
 404 622 375 594 339 594 c 0xf7
504 239 m 1xed
 121 239 l 1
 120 225 119 210 119 197 c 0
 119 96 170 52 239 52 c 0
 308 52 372 95 397 171 c 1
 487 171 l 1
 444 43 333 -14 224 -14 c 0
 105 -14 25 60 25 194 c 0
 25 348 108 544 320 544 c 0
 444 544 520 466 520 347 c 0
 520 312 514 271 504 239 c 1xed
307 478 m 0
 204 478 152 395 131 305 c 1
 431 305 l 1
 432 318 433 330 433 342 c 0
 433 429 384 478 307 478 c 0
EndSplineSet
EndChar

StartChar: Eogonek
Encoding: 280 280 30
Width: 593
GlyphClass: 2
Flags: MW
HStem: -223 54<368 442> 0 70<150 423 512 512> 310 70<205 526 193 538> 620 70<248 248 248 610>
VStem: 309 86<-142 -121.5>
AnchorPoint: "Anchor-0" 257 0 basechar 0
LayerCount: 2
Fore
SplineSet
248 620 m 1
 205 380 l 1
 538 380 l 1
 526 310 l 1
 193 310 l 1
 150 70 l 1
 524 70 l 1
 512 0 l 1
 444 -11 395 -81 395 -127 c 0
 395 -157 408 -169 432 -169 c 0
 452 -169 471 -163 491 -149 c 1
 482 -195 l 1
 458 -212 426 -223 389 -223 c 0
 347 -223 309 -203 309 -150 c 0
 309 -93 348 -34 423 0 c 1
 52 0 l 1
 174 690 l 1
 623 690 l 1
 610 620 l 1
 248 620 l 1
EndSplineSet
Position2: "'cpsp' Capital Spacing in Latin lookup 0 subtable" dx=5 dy=0 dh=10 dv=0
EndChar

StartChar: eogonek
Encoding: 281 281 144
Width: 539
GlyphClass: 2
Flags: MW
HStem: -223 54<151 225> -11 21G 239 66<131 431 131 504 121 431> 478 66<255.5 345.5>
VStem: 25 94<146.5 203.5 146.5 271> 92 86<-142 -124> 433 87<336 385.5>
AnchorPoint: "Anchor-0" 223 0 basechar 0
LayerCount: 2
Fore
SplineSet
504 239 m 1xf6
 121 239 l 1
 120 225 119 210 119 197 c 0xfa
 119 96 170 52 239 52 c 0
 308 52 372 95 397 171 c 1
 487 171 l 1
 449 57 356 -1 259 -12 c 1
 210 -37 178 -90 178 -127 c 0
 178 -157 191 -169 215 -169 c 0
 235 -169 254 -163 274 -149 c 1
 265 -195 l 1
 241 -212 209 -223 172 -223 c 0
 130 -223 92 -203 92 -150 c 0xf6
 92 -98 124 -46 185 -11 c 1
 88 4 25 75 25 194 c 0xfa
 25 348 108 544 320 544 c 0
 444 544 520 466 520 347 c 0
 520 312 514 271 504 239 c 1xf6
307 478 m 0
 204 478 152 395 131 305 c 1
 431 305 l 1
 432 318 433 330 433 342 c 0
 433 429 384 478 307 478 c 0
EndSplineSet
EndChar

StartChar: Ecaron
Encoding: 282 282 24
Width: 593
GlyphClass: 2
Flags: MW
HStem: 0 70<150 511> 310 70<205 526 193 538> 620 70<248 248 248 610> 736 94<389 389 389 405 338 450>
VStem: 52 571
AnchorPoint: "Anchor-0" 257 0 basechar 0
LayerCount: 2
Fore
SplineSet
389 736 m 1
 338 830 l 1
 405 830 l 1
 426 775 l 1
 465 830 l 1
 533 830 l 1
 450 736 l 1
 389 736 l 1
248 620 m 1
 205 380 l 1
 538 380 l 1
 526 310 l 1
 193 310 l 1
 150 70 l 1
 524 70 l 1
 511 0 l 1
 52 0 l 1
 174 690 l 1
 623 690 l 1
 610 620 l 1
 248 620 l 1
EndSplineSet
Position2: "'cpsp' Capital Spacing in Latin lookup 0 subtable" dx=5 dy=0 dh=10 dv=0
EndChar

StartChar: Gbreve
Encoding: 286 286 33
Width: 757
GlyphClass: 2
Flags: MW
HStem: -14 68<274 353.5> 0 21G<527 603 527 527> 263 70<415 563 402 662> 636 68<357 497.5> 722 55<533.5 564.5 533.5 576.5>
VStem: 56 98<215 379.5 215 393> 455.89 55.11 607 87<460 470 470 530>
AnchorPoint: "Anchor-0" 289 0 basechar 0
LayerCount: 2
Fore
SplineSet
540 722 m 0xbf
 466 722 449 777 458 830 c 1
 511 830 l 1
 506 797 517 777 550 777 c 0
 579 777 601 794 609 830 c 1
 662 830 l 1
 649 761 613 722 540 722 c 0xbf
454 704 m 0xb7
 629 704 704 605 694 470 c 1
 693 460 l 1
 607 460 l 1
 607 470 l 2
 607 590 555 636 440 636 c 0
 274 636 154 477 154 282 c 0
 154 148 217 54 331 54 c 0xb7
 443 54 542 140 563 263 c 1
 402 263 l 1
 415 333 l 1
 662 333 l 1
 603 0 l 1
 527 0 l 1x77
 548 119 l 1
 506 56 l 1
 459 12 393 -14 314 -14 c 0
 143 -14 56 108 56 271 c 0
 56 515 229 704 454 704 c 0xb7
EndSplineSet
Position2: "'cpsp' Capital Spacing in Latin lookup 0 subtable" dx=5 dy=0 dh=10 dv=0
EndChar

StartChar: gbreve
Encoding: 287 287 147
Width: 612
GlyphClass: 2
Flags: MW
HStem: -210 66<168.5 266.5 168.5 283.5> -14 66<204.5 251> 478 66<261 362 233 382> 510 20G<500 586 586 586> 566 55<349 384.5 349 395.5> 566 124<317 333 280 395.5>
VStem: -4 87<-35 -34> 26 94<161 273.5 161 284> 275.76 57.24 460.76 24.24
LayerCount: 2
Fore
SplineSet
360 566 m 0xe580
 274 566 269 631 280 690 c 1
 333 690 l 1xe580
 329 654 328 621 370 621 c 0xe980
 399 621 421 638 431 690 c 1
 484 690 l 1
 469 607 431 566 360 566 c 0xe580
586 530 m 1xd1c0
 515 130 l 2
 509 97 502 56 496 27 c 0
 464 -128 365 -210 202 -210 c 0
 71 -210 -13 -147 -4 -35 c 1
 -3 -25 l 1
 84 -25 l 1
 83 -34 l 1xe280
 79 -99 123 -144 214 -144 c 0
 319 -144 386 -84 408 18 c 0
 413 43 417 60 420 76 c 2
 422 85 l 1
 371 28 l 1
 337 3 278 -14 224 -14 c 0
 92 -14 26 81 26 202 c 0
 26 366 126 544 340 544 c 0
 384 544 438 526 461 500 c 1
 485 447 l 1xe1c0
 500 530 l 1
 586 530 l 1xd1c0
248 52 m 0
 336 52 425 108 452 260 c 1
 452 255 l 1
 459 296 l 1
 457 289 l 1
 474 387 436 478 328 478 c 0
 194 478 120 341 120 206 c 0xe1c0
 120 116 161 52 248 52 c 0
EndSplineSet
EndChar

StartChar: Gdotaccent
Encoding: 288 288 35
Width: 757
GlyphClass: 2
Flags: MW
HStem: -14 68<274 353.5> 0 21G<527 603 527 527> 263 70<415 563 402 662> 636 68<357 497.5> 737 92<545.5 556.5>
VStem: 56 98<215 379.5 215 393> 504 94<776 790> 607 87<460 470 470 530>
AnchorPoint: "Anchor-0" 289 0 basechar 0
LayerCount: 2
Fore
SplineSet
543 737 m 0xbf
 520 737 504 754 504 776 c 0
 504 804 532 829 559 829 c 0
 582 829 598 812 598 790 c 0
 598 762 570 737 543 737 c 0xbf
454 704 m 0xb5
 629 704 704 605 694 470 c 1
 693 460 l 1
 607 460 l 1
 607 470 l 2
 607 590 555 636 440 636 c 0
 274 636 154 477 154 282 c 0
 154 148 217 54 331 54 c 0xb5
 443 54 542 140 563 263 c 1
 402 263 l 1
 415 333 l 1
 662 333 l 1
 603 0 l 1
 527 0 l 1x75
 548 119 l 1
 506 56 l 1
 459 12 393 -14 314 -14 c 0
 143 -14 56 108 56 271 c 0
 56 515 229 704 454 704 c 0xb5
EndSplineSet
Position2: "'cpsp' Capital Spacing in Latin lookup 0 subtable" dx=5 dy=0 dh=10 dv=0
EndChar

StartChar: gcommaaccent
Encoding: 291 291 148
Width: 612
GlyphClass: 2
Flags: MW
HStem: -210 66<168.5 266.5 168.5 283.5> -14 66<204.5 251> 478 66<261 362 233 382> 510 20G<500 586 586 586> 581 144<319 448 319 448>
VStem: -4 87<-35 -34> 26 94<161 273.5 161 284> 460.76 24.24
LayerCount: 2
Fore
SplineSet
388 581 m 1xea
 319 581 l 1
 319 588 l 1
 400 725 l 1
 448 725 l 1
 388 581 l 1xea
586 530 m 1xdb
 515 130 l 2
 509 97 502 56 496 27 c 0
 464 -128 365 -210 202 -210 c 0
 71 -210 -13 -147 -4 -35 c 1
 -3 -25 l 1
 84 -25 l 1
 83 -34 l 1xec
 79 -99 123 -144 214 -144 c 0
 319 -144 386 -84 408 18 c 0
 413 43 417 60 420 76 c 2
 422 85 l 1
 371 28 l 1
 337 3 278 -14 224 -14 c 0
 92 -14 26 81 26 202 c 0
 26 366 126 544 340 544 c 0
 384 544 438 526 461 500 c 1
 485 447 l 1xeb
 500 530 l 1
 586 530 l 1xdb
248 52 m 0
 336 52 425 108 452 260 c 1
 452 255 l 1
 459 296 l 1
 457 289 l 1
 474 387 436 478 328 478 c 0
 194 478 120 341 120 206 c 0xeb
 120 116 161 52 248 52 c 0
EndSplineSet
EndChar

StartChar: Hbar
Encoding: 294 294 37
Width: 729
GlyphClass: 2
Flags: MW
HStem: 0 21G<52 138 52 52 518 604 518 518> 302 72<204 571 191 584> 502 56<111 141 101 151 237 607 703 733> 502 188<101 260 101 260 227 227 227 260 174 607 693 726 693 693>
VStem: 52 691<0 558>
LayerCount: 2
Fore
SplineSet
733 502 m 1xe8
 693 502 l 1
 604 0 l 1
 518 0 l 1
 571 302 l 1
 191 302 l 1
 138 0 l 1
 52 0 l 1
 141 502 l 1
 101 502 l 1
 111 558 l 1
 151 558 l 1xe8
 174 690 l 1
 260 690 l 1xd8
 237 558 l 1
 617 558 l 1xe8
 640 690 l 1
 726 690 l 1xd8
 703 558 l 1
 743 558 l 1
 733 502 l 1xe8
607 502 m 1
 227 502 l 1
 204 374 l 1
 584 374 l 1
 607 502 l 1
EndSplineSet
Position2: "'cpsp' Capital Spacing in Latin lookup 0 subtable" dx=5 dy=0 dh=10 dv=0
EndChar

StartChar: hbar
Encoding: 295 295 151
Width: 613
GlyphClass: 2
Flags: MW
HStem: 0 21G<46 132 46 46 408 494 408 408> 476 68 595 56<102 151 92 160 246 338> 595 145<92 262 92 262 237 237 237 262 176 338>
VStem: 472 89<394 411>
LayerCount: 2
Fore
SplineSet
399 544 m 0xd8
 507 544 561 491 561 408 c 0
 561 380 560 362 548 298 c 2
 494 0 l 1
 408 0 l 1
 461 292 l 2
 469 337 472 363 472 384 c 0
 472 438 444 478 369 476 c 0
 285 474 205 414 173 233 c 2
 132 0 l 1
 46 0 l 1
 151 595 l 1
 92 595 l 1xd8
 102 651 l 1
 160 651 l 1xe8
 176 740 l 1
 262 740 l 1xd8
 246 651 l 1
 348 651 l 1xe8
 338 595 l 1
 237 595 l 1
 209 439 l 1
 253 500 l 1
 304 535 345 544 399 544 c 0xd8
EndSplineSet
EndChar

StartChar: Imacron
Encoding: 298 298 45
Width: 263
GlyphClass: 2
Flags: MW
HStem: 0 21G<52 138 52 52> 670 20G<174 260 260 260> 757 52<118 348 108 358>
VStem: 52 306
LayerCount: 2
Fore
SplineSet
348 757 m 1
 108 757 l 1
 118 809 l 1
 358 809 l 1
 348 757 l 1
138 0 m 1
 52 0 l 1
 174 690 l 1
 260 690 l 1
 138 0 l 1
EndSplineSet
Position2: "'cpsp' Capital Spacing in Latin lookup 0 subtable" dx=5 dy=0 dh=10 dv=0
EndChar

StartChar: imacron
Encoding: 299 299 159
Width: 234
GlyphClass: 2
Flags: MW
HStem: 0 21G<28 114 28 28> 510 20G<122 208 208 208> 604 52<68 298 58 308>
VStem: 28 280
LayerCount: 2
Fore
SplineSet
298 604 m 1
 58 604 l 1
 68 656 l 1
 308 656 l 1
 298 604 l 1
114 0 m 1
 28 0 l 1
 122 530 l 1
 208 530 l 1
 114 0 l 1
EndSplineSet
EndChar

StartChar: Iogonek
Encoding: 302 302 46
Width: 263
GlyphClass: 2
Flags: MW
HStem: -223 54<-30 44> 0 21G<114 138 114 114> 670 20G<174 260 260 260>
VStem: -89 86<-142 -118>
LayerCount: 2
Fore
SplineSet
260 690 m 1
 138 0 l 1
 114 0 l 1
 46 -11 -3 -81 -3 -127 c 0
 -3 -157 10 -169 34 -169 c 0
 54 -169 73 -163 93 -149 c 1
 84 -195 l 1
 60 -212 28 -223 -9 -223 c 0
 -51 -223 -89 -203 -89 -150 c 0
 -89 -86 -40 -21 54 11 c 1
 174 690 l 1
 260 690 l 1
EndSplineSet
Position2: "'cpsp' Capital Spacing in Latin lookup 0 subtable" dx=5 dy=0 dh=10 dv=0
EndChar

StartChar: iogonek
Encoding: 303 303 160
Width: 234
GlyphClass: 2
Flags: MW
HStem: -223 54<-53 21> 0 21G<91 114 91 91> 510 20G<122 208 208 208> 594 110<178 196> 684 20G<178 210>
VStem: -112 86<-142 -118> 131 112<640 658>
LayerCount: 2
Fore
SplineSet
196 704 m 0xee
 224 704 243 684 243 658 c 0
 243 622 214 594 178 594 c 0xf6
 150 594 131 614 131 640 c 0
 131 676 160 704 196 704 c 0xee
122 530 m 1
 208 530 l 1
 114 0 l 1
 91 0 l 1
 23 -11 -26 -81 -26 -127 c 0
 -26 -157 -13 -169 11 -169 c 0
 31 -169 50 -163 70 -149 c 1
 61 -195 l 1
 37 -212 5 -223 -32 -223 c 0
 -74 -223 -112 -203 -112 -150 c 0
 -112 -86 -63 -21 30 11 c 1
 122 530 l 1
EndSplineSet
EndChar

StartChar: Idotaccent
Encoding: 304 304 43
Width: 263
GlyphClass: 2
Flags: MW
HStem: 0 21G<52 138 52 52> 670 20G<174 260 260 260> 737 92<227.5 238.5>
VStem: 186 94<776 790>
LayerCount: 2
Fore
SplineSet
241 829 m 0
 264 829 280 812 280 790 c 0
 280 762 252 737 225 737 c 0
 202 737 186 754 186 776 c 0
 186 804 214 829 241 829 c 0
138 0 m 1
 52 0 l 1
 174 690 l 1
 260 690 l 1
 138 0 l 1
EndSplineSet
Position2: "'cpsp' Capital Spacing in Latin lookup 0 subtable" dx=5 dy=0 dh=10 dv=0
EndChar

StartChar: dotlessi
Encoding: 305 305 153
Width: 234
GlyphClass: 2
Flags: MW
HStem: 0 21G<28 114 28 28> 510 20G<122 208 208 208>
VStem: 28 180
LayerCount: 2
Fore
SplineSet
114 0 m 1
 28 0 l 1
 122 530 l 1
 208 530 l 1
 114 0 l 1
EndSplineSet
EndChar

StartChar: IJ
Encoding: 306 306 39
Width: 790
GlyphClass: 2
Flags: MW
HStem: -14 68<438 519 438 538> 0 21G<52 138 52 52> 670 20G<174 260 260 260 718 804 804 804>
VStem: 281.73 88.05
LayerCount: 2
Fore
SplineSet
138 0 m 1x70
 52 0 l 1
 174 690 l 1
 260 690 l 1
 138 0 l 1x70
804 690 m 1
 729 264 l 2
 724 238 720 215 712 181 c 0
 685 65 611 -14 465 -14 c 0
 337 -14 265 65 285 194 c 1
 291 235 l 1
 377 235 l 1
 372 194 l 2
 360 99 397 54 479 54 c 0xb0
 559 54 606 96 628 186 c 0
 633 206 637 231 644 267 c 2
 718 690 l 1
 804 690 l 1
EndSplineSet
Position2: "'cpsp' Capital Spacing in Latin lookup 0 subtable" dx=5 dy=0 dh=10 dv=0
EndChar

StartChar: ij
Encoding: 307 307 158
Width: 437
GlyphClass: 2
Flags: MW
HStem: -210 72<142 211> 0 21G<28 114 28 28> 510 20G<122 208 208 208 341 427 427 427> 594 110<178 196 394 412>
VStem: 131 112<640 658> 347 112<640 658>
LayerCount: 2
Fore
SplineSet
196 704 m 0
 224 704 243 684 243 658 c 0
 243 622 214 594 178 594 c 0
 150 594 131 614 131 640 c 0
 131 676 160 704 196 704 c 0
412 704 m 0
 440 704 459 684 459 658 c 0
 459 622 430 594 394 594 c 0
 366 594 347 614 347 640 c 0
 347 676 376 704 412 704 c 0
114 0 m 1
 28 0 l 1
 122 530 l 1
 208 530 l 1
 114 0 l 1
427 530 m 1
 326 -46 l 2
 322 -66 317 -92 312 -110 c 0
 293 -174 252 -210 170 -210 c 0
 154 -210 142 -210 129 -208 c 1
 142 -138 l 1
 188 -144 217 -128 228 -95 c 0
 233 -81 236 -67 241 -40 c 2
 341 530 l 1
 427 530 l 1
EndSplineSet
EndChar

StartChar: kcommaaccent
Encoding: 311 311 163
Width: 517
GlyphClass: 2
Flags: MW
HStem: -195 144<133 262 133 262> 0 21G<28 114 28 28 371 474 371 371> 510 20G<455 565 565 565> 715 20G<158 244 244 244>
VStem: 28 537<0 530>
AnchorPoint: "Anchor-0" 227 0 basechar 0
LayerCount: 2
Fore
SplineSet
274 279 m 1
 474 0 l 1
 371 0 l 1
 211 231 l 1
 145 173 l 1
 114 0 l 1
 28 0 l 1
 158 735 l 1
 244 735 l 1
 162 269 l 1
 455 530 l 1
 565 530 l 1
 274 279 l 1
193 -51 m 1
 262 -51 l 1
 262 -58 l 1
 181 -195 l 1
 133 -195 l 1
 193 -51 l 1
EndSplineSet
EndChar

StartChar: Lacute
Encoding: 313 313 51
Width: 578
GlyphClass: 2
Flags: MW
HStem: 0 70<150 511> 670 20G<174 260 260 260> 736 94<192 342 192 342>
VStem: 52 472<0 70>
AnchorPoint: "Anchor-0" 282 0 basechar 0
LayerCount: 2
Fore
SplineSet
248 736 m 1
 192 736 l 1
 262 830 l 1
 342 830 l 1
 248 736 l 1
524 70 m 1
 511 0 l 1
 52 0 l 1
 174 690 l 1
 260 690 l 1
 150 70 l 1
 524 70 l 1
EndSplineSet
Position2: "'cpsp' Capital Spacing in Latin lookup 0 subtable" dx=5 dy=0 dh=10 dv=0
EndChar

StartChar: Lcommaaccent
Encoding: 315 315 53
Width: 578
GlyphClass: 2
Flags: MW
HStem: -195 144<188 317 188 317> 0 70<150 511> 670 20G<174 260 260 260>
VStem: 52 472<0 70>
AnchorPoint: "Anchor-0" 282 0 basechar 0
LayerCount: 2
Fore
SplineSet
524 70 m 1
 511 0 l 1
 52 0 l 1
 174 690 l 1
 260 690 l 1
 150 70 l 1
 524 70 l 1
248 -51 m 1
 317 -51 l 1
 317 -58 l 1
 236 -195 l 1
 188 -195 l 1
 248 -51 l 1
EndSplineSet
Position2: "'cpsp' Capital Spacing in Latin lookup 0 subtable" dx=5 dy=0 dh=10 dv=0
EndChar

StartChar: lcommaaccent
Encoding: 316 316 167
Width: 248
GlyphClass: 2
Flags: MW
HStem: -195 144<-17 112 -17 112> -4 67<91.5 187> 715 20G<153 239 239 239>
VStem: 37 92<35 106>
AnchorPoint: "Anchor-0" 77 0 basechar 0
LayerCount: 2
Fore
SplineSet
239 735 m 1
 136 152 l 2
 131 125 129 112 129 100 c 0
 129 65 147 59 187 63 c 1
 176 0 l 1
 156 -3 134 -4 114 -4 c 0
 69 -4 37 9 37 61 c 0
 37 76 40 95 50 149 c 2
 153 735 l 1
 239 735 l 1
112 -58 m 1
 31 -195 l 1
 -17 -195 l 1
 43 -51 l 1
 112 -51 l 1
 112 -58 l 1
EndSplineSet
EndChar

StartChar: Ldot
Encoding: 319 319 54
Width: 578
GlyphClass: 2
Flags: MW
HStem: 0 70<150 511> 345 110<387 405> 670 20G<174 260 260 260>
VStem: 340 112<391 409>
AnchorPoint: "Anchor-0" 282 0 basechar 0
LayerCount: 2
Fore
SplineSet
524 70 m 1
 511 0 l 1
 52 0 l 1
 174 690 l 1
 260 690 l 1
 150 70 l 1
 524 70 l 1
387 345 m 0
 359 345 340 365 340 391 c 0
 340 427 369 455 405 455 c 0
 433 455 452 435 452 409 c 0
 452 373 423 345 387 345 c 0
EndSplineSet
Ligature2: "Ligature Substitution lookup 6 subtable" L periodcentered
Position2: "'cpsp' Capital Spacing in Latin lookup 0 subtable" dx=5 dy=0 dh=10 dv=0
EndChar

StartChar: ldot
Encoding: 320 320 168
Width: 338
GlyphClass: 2
Flags: MW
HStem: -4 67<91.5 187> 345 110<285 303> 715 20G<153 239 239 239>
VStem: 37 92<35 106> 238 112<391 409>
AnchorPoint: "Anchor-0" 77 0 basechar 0
LayerCount: 2
Fore
SplineSet
239 735 m 1
 136 152 l 2
 131 125 129 112 129 100 c 0
 129 65 147 59 187 63 c 1
 176 0 l 1
 156 -3 134 -4 114 -4 c 0
 69 -4 37 9 37 61 c 0
 37 76 40 95 50 149 c 2
 153 735 l 1
 239 735 l 1
303 455 m 0
 331 455 350 435 350 409 c 0
 350 373 321 345 285 345 c 0
 257 345 238 365 238 391 c 0
 238 427 267 455 303 455 c 0
EndSplineSet
Ligature2: "Ligature Substitution lookup 6 subtable" l periodcentered
EndChar

StartChar: Lslash
Encoding: 321 321 55
Width: 615
GlyphClass: 2
Flags: MW
HStem: 0 70<187 548> 670 20G<211 297 297 297>
VStem: 8 553<70 224>
AnchorPoint: "Anchor-0" 319 0 basechar 0
LayerCount: 2
Fore
SplineSet
561 70 m 1
 548 0 l 1
 89 0 l 1
 141 296 l 1
 8 224 l 1
 19 291 l 1
 153 363 l 1
 211 690 l 1
 297 690 l 1
 248 414 l 1
 373 481 l 1
 361 414 l 1
 236 347 l 1
 187 70 l 1
 561 70 l 1
EndSplineSet
Position2: "'cpsp' Capital Spacing in Latin lookup 0 subtable" dx=5 dy=0 dh=10 dv=0
EndChar

StartChar: lslash
Encoding: 322 322 169
Width: 284
GlyphClass: 2
Flags: MW
HStem: -4 67<117.5 213> 715 20G<179 265 265 265>
VStem: 63 92<35 106>
AnchorPoint: "Anchor-0" 103 0 basechar 0
LayerCount: 2
Fore
SplineSet
191 314 m 1
 162 152 l 2
 157 125 155 112 155 100 c 0
 155 65 173 59 213 63 c 1
 202 0 l 1
 182 -3 160 -4 140 -4 c 0
 95 -4 63 9 63 61 c 0
 63 76 66 95 76 149 c 2
 96 263 l 1
 25 225 l 1
 37 292 l 1
 108 330 l 1
 179 735 l 1
 265 735 l 1
 202 381 l 1
 276 420 l 1
 264 353 l 1
 191 314 l 1
EndSplineSet
EndChar

StartChar: Nacute
Encoding: 323 323 58
Width: 717
GlyphClass: 2
Flags: MW
HStem: 0 21G<52 138 52 52 460 592 460 460> 0 82<521 521 521 592 460 521> 608 82<243 243> 670 20G<174 306 306 306 628 714 714 714> 736 94<419 569 419 569>
VStem: 52 662
AnchorPoint: "Anchor-0" 322 0 basechar 0
LayerCount: 2
Fore
SplineSet
475 736 m 1x9c
 419 736 l 1
 489 830 l 1
 569 830 l 1
 475 736 l 1x9c
714 690 m 1
 592 0 l 1
 460 0 l 1
 243 608 l 1xac
 138 0 l 1
 52 0 l 1
 174 690 l 1
 306 690 l 1
 521 82 l 1x5c
 628 690 l 1
 714 690 l 1
EndSplineSet
Position2: "'cpsp' Capital Spacing in Latin lookup 0 subtable" dx=5 dy=0 dh=10 dv=0
EndChar

StartChar: nacute
Encoding: 324 324 172
Width: 595
GlyphClass: 2
Flags: MW
HStem: 0 21G<28 114 28 28 390 476 390 390> 476 68 510 20G<121 207 207 207> 580 110<327 488 327 488>
VStem: 454 89<394 411>
AnchorPoint: "Anchor-0" 250 0 basechar 0
LayerCount: 2
Fore
SplineSet
383 580 m 1xd8
 327 580 l 1
 408 690 l 1
 488 690 l 1
 383 580 l 1xd8
381 544 m 0
 489 544 543 491 543 408 c 0
 543 380 542 362 530 298 c 2
 476 0 l 1
 390 0 l 1
 443 292 l 2
 451 337 454 363 454 384 c 0
 454 438 426 478 351 476 c 0xd8
 267 474 187 414 155 233 c 2
 114 0 l 1
 28 0 l 1
 121 530 l 1
 207 530 l 1
 191 439 l 1xb8
 235 500 l 1
 286 535 327 544 381 544 c 0
EndSplineSet
EndChar

StartChar: ncommaaccent
Encoding: 326 326 174
Width: 595
GlyphClass: 2
Flags: MW
HStem: -195 144<156 285 156 285> 0 21G<28 114 28 28 390 476 390 390> 476 68 510 20G<121 207 207 207>
VStem: 454 89<394 411>
AnchorPoint: "Anchor-0" 250 0 basechar 0
LayerCount: 2
Fore
SplineSet
381 544 m 0xe8
 489 544 543 491 543 408 c 0
 543 380 542 362 530 298 c 2
 476 0 l 1
 390 0 l 1
 443 292 l 2
 451 337 454 363 454 384 c 0
 454 438 426 478 351 476 c 0xe8
 267 474 187 414 155 233 c 2
 114 0 l 1
 28 0 l 1
 121 530 l 1
 207 530 l 1
 191 439 l 1xd8
 235 500 l 1
 286 535 327 544 381 544 c 0xe8
216 -51 m 1
 285 -51 l 1
 285 -58 l 1
 204 -195 l 1
 156 -195 l 1
 216 -51 l 1
EndSplineSet
EndChar

StartChar: Ncaron
Encoding: 327 327 59
Width: 717
GlyphClass: 2
Flags: MW
HStem: 0 21G<52 138 52 52 460 592 460 460> 0 82<521 521 521 592 460 521> 608 82<243 243> 670 20G<174 306 306 306 628 714 714 714> 736 94<423 423 423 439 372 484>
VStem: 52 662
AnchorPoint: "Anchor-0" 322 0 basechar 0
LayerCount: 2
Fore
SplineSet
423 736 m 1x9c
 372 830 l 1
 439 830 l 1
 460 775 l 1
 499 830 l 1
 567 830 l 1
 484 736 l 1
 423 736 l 1x9c
714 690 m 1
 592 0 l 1
 460 0 l 1
 243 608 l 1xac
 138 0 l 1
 52 0 l 1
 174 690 l 1
 306 690 l 1
 521 82 l 1x5c
 628 690 l 1
 714 690 l 1
EndSplineSet
Position2: "'cpsp' Capital Spacing in Latin lookup 0 subtable" dx=5 dy=0 dh=10 dv=0
EndChar

StartChar: Eng
Encoding: 330 330 61
Width: 717
GlyphClass: 2
Flags: MW
HStem: -223 70<408 435 408 459.5> 0 21G<53 139 53 53> 598 92<243 243> 670 20G<174 306 306 306 628 714 714 714>
VStem: 53 661
LayerCount: 2
Fore
SplineSet
714 690 m 1xd8
 581 -67 l 2
 558 -197 523 -223 396 -223 c 1
 408 -153 l 1
 462 -153 483 -128 491 -83 c 2
 500 -31 l 1
 243 598 l 1xe8
 139 0 l 1
 53 0 l 1
 174 690 l 1
 306 690 l 1
 530 124 l 1
 628 690 l 1
 714 690 l 1xd8
EndSplineSet
Position2: "'cpsp' Capital Spacing in Latin lookup 0 subtable" dx=5 dy=0 dh=10 dv=0
EndChar

StartChar: eng
Encoding: 331 331 175
Width: 595
GlyphClass: 2
Flags: MW
HStem: -174 70<301 328 301 333.5> 0 21G<28 114 28 28> 476 68 510 20G<121 207 207 207>
VStem: 454 89<394 411>
LayerCount: 2
Fore
SplineSet
381 544 m 0xe8
 489 544 543 491 543 408 c 0
 543 380 542 362 530 298 c 2
 473 -18 l 2
 469 -38 465 -55 460 -69 c 0
 428 -164 378 -174 289 -174 c 1
 301 -104 l 1
 355 -104 375 -82 384 -34 c 2
 443 292 l 2
 451 337 454 363 454 384 c 0
 454 438 426 478 351 476 c 0xe8
 267 474 187 414 155 233 c 2
 114 0 l 1
 28 0 l 1
 121 530 l 1
 207 530 l 1
 191 439 l 1xd8
 235 500 l 1
 286 535 327 544 381 544 c 0xe8
EndSplineSet
EndChar

StartChar: omacron
Encoding: 333 333 183
Width: 588
GlyphClass: 2
Flags: MW
HStem: -14 66<216 332 216 363> 478 66<256 372> 604 52<244 474 234 484>
VStem: 28 94<175.5 282.5 175.5 291.5> 466 94<247.5 354.5>
LayerCount: 2
Fore
SplineSet
474 604 m 1
 234 604 l 1
 244 656 l 1
 484 656 l 1
 474 604 l 1
333 544 m 0
 497 544 560 431 560 310 c 0
 560 167 471 -14 255 -14 c 0
 91 -14 28 99 28 220 c 0
 28 363 117 544 333 544 c 0
266 52 m 0
 398 52 466 187 466 308 c 0
 466 401 422 478 322 478 c 0
 190 478 122 343 122 222 c 0
 122 129 166 52 266 52 c 0
EndSplineSet
EndChar

StartChar: Ohungarumlaut
Encoding: 336 336 68
Width: 747
GlyphClass: 2
Flags: MW
HStem: -14 68<291.5 450 291.5 472> 636 68<334 492> 736 94<351 501 351 501 460 501 421 516 460 460>
VStem: 59 94<216 363.5 216 388> 631 94<326.5 474>
LayerCount: 2
Fore
SplineSet
407 736 m 1
 351 736 l 1
 421 830 l 1
 501 830 l 1
 407 736 l 1
460 736 m 1
 530 830 l 1
 610 830 l 1
 516 736 l 1
 460 736 l 1
447 704 m 0
 630 704 725 568 725 405 c 0
 725 199 607 -14 337 -14 c 0
 154 -14 59 122 59 285 c 0
 59 491 177 704 447 704 c 0
355 54 m 0
 545 54 631 248 631 405 c 0
 631 543 555 636 429 636 c 0
 239 636 153 442 153 285 c 0
 153 147 228 54 355 54 c 0
EndSplineSet
Position2: "'cpsp' Capital Spacing in Latin lookup 0 subtable" dx=5 dy=0 dh=10 dv=0
EndChar

StartChar: ohungarumlaut
Encoding: 337 337 182
Width: 588
GlyphClass: 2
Flags: MW
HStem: -14 66<216 332 216 363> 478 66<256 372> 580 110<260 421 260 421 382 421 341 438 382 382>
VStem: 28 94<175.5 282.5 175.5 291.5> 466 94<247.5 354.5>
LayerCount: 2
Fore
SplineSet
316 580 m 1
 260 580 l 1
 341 690 l 1
 421 690 l 1
 316 580 l 1
382 580 m 1
 463 690 l 1
 543 690 l 1
 438 580 l 1
 382 580 l 1
333 544 m 0
 497 544 560 431 560 310 c 0
 560 167 471 -14 255 -14 c 0
 91 -14 28 99 28 220 c 0
 28 363 117 544 333 544 c 0
266 52 m 0
 398 52 466 187 466 308 c 0
 466 401 422 478 322 478 c 0
 190 478 122 343 122 222 c 0
 122 129 166 52 266 52 c 0
EndSplineSet
EndChar

StartChar: OE
Encoding: 338 338 72
Width: 1100
GlyphClass: 2
Flags: MW
HStem: -14 68<278 361.5> 0 70<657 1018> 310 70<712 1033 700 1045> 620 70<755 755 755 1117> 636 68<340 494 307.5 528>
VStem: 56 96<207 351.5 207 364.5> 626.54 29.46
LayerCount: 2
Fore
SplineSet
755 620 m 1x76
 712 380 l 1
 1045 380 l 1
 1033 310 l 1
 700 310 l 1
 657 70 l 1
 1031 70 l 1
 1018 0 l 1
 559 0 l 1x76
 584 141 l 1
 544 68 l 1
 482 9 406 -14 317 -14 c 0
 146 -14 56 89 56 274 c 0
 56 455 172 704 443 704 c 0
 545 704 599 680 641 618 c 1xae
 656 546 l 1
 681 690 l 1
 1130 690 l 1
 1117 620 l 1
 755 620 l 1x76
339 54 m 0xae
 484 54 589 173 620 345 c 1
 642 477 615 636 441 636 c 0
 239 636 152 427 152 276 c 0
 152 138 217 54 339 54 c 0xae
EndSplineSet
Position2: "'cpsp' Capital Spacing in Latin lookup 0 subtable" dx=5 dy=0 dh=10 dv=0
EndChar

StartChar: oe
Encoding: 339 339 186
Width: 969
GlyphClass: 2
Flags: MW
HStem: -14 66<210 294.5 634 703.5> 239 66<565 861 565 934 552 861> 478 66<255 376 719.5 788>
VStem: 24 95<160.5 259.5 160.5 265.5> 467 83<147.5 369.5> 864 86<338.5 387.5>
LayerCount: 2
Fore
SplineSet
934 239 m 1
 552 239 l 1
 550 225 550 211 550 199 c 0
 550 96 599 52 669 52 c 0
 738 52 802 95 827 171 c 1
 917 171 l 1
 874 43 763 -14 654 -14 c 0
 571 -14 506 22 479 112 c 1
 422 27 345 -14 244 -14 c 0
 90 -14 24 81 24 201 c 0
 24 330 108 544 342 544 c 0
 445 544 509 502 537 416 c 1
 597 506 676 544 763 544 c 0
 887 544 950 466 950 347 c 0
 950 312 944 271 934 239 c 1
255 52 m 0
 407 52 467 218 467 323 c 0
 467 416 421 478 331 478 c 0
 179 478 119 312 119 207 c 0
 119 114 165 52 255 52 c 0
750 478 m 0
 665 478 595 418 565 305 c 1
 861 305 l 1
 863 319 864 333 864 344 c 0
 864 431 826 478 750 478 c 0
EndSplineSet
EndChar

StartChar: racute
Encoding: 341 341 191
Width: 324
GlyphClass: 2
Flags: MW
HStem: 0 21G<28 114 28 28> 510 20G<122 208 208 208> 522 20G<319.5 339> 535 7 580 110<191 352 191 352>
VStem: 28 339
AnchorPoint: "Anchor-0" 71 0 basechar 0
LayerCount: 2
Fore
SplineSet
247 580 m 1xac
 191 580 l 1
 272 690 l 1
 352 690 l 1
 247 580 l 1xac
332 542 m 0
 346 542 357 540 367 535 c 1
 355 470 l 1x9c
 266 476 189 423 167 302 c 2
 114 0 l 1
 28 0 l 1
 122 530 l 1
 208 530 l 1
 193 447 l 1xcc
 254 518 l 1
 278 533 307 542 332 542 c 0
EndSplineSet
EndChar

StartChar: rcommaaccent
Encoding: 343 343 193
Width: 324
GlyphClass: 2
Flags: MW
HStem: -195 144<-23 106 -23 106> 0 21G<28 114 28 28> 510 20G<122 208 208 208> 522 20G<319.5 339> 535 7
VStem: -23 390
AnchorPoint: "Anchor-0" 71 0 basechar 0
LayerCount: 2
Fore
SplineSet
332 542 m 0xd4
 346 542 357 540 367 535 c 1
 355 470 l 1xcc
 266 476 189 423 167 302 c 2
 114 0 l 1
 28 0 l 1
 122 530 l 1
 208 530 l 1
 193 447 l 1xe4
 254 518 l 1
 278 533 307 542 332 542 c 0xd4
37 -51 m 1
 106 -51 l 1
 106 -58 l 1
 25 -195 l 1
 -23 -195 l 1
 37 -51 l 1
EndSplineSet
EndChar

StartChar: Sacute
Encoding: 346 346 81
Width: 565
GlyphClass: 2
Flags: MW
HStem: -14 68<212 303.5 212 322> 636 68<300 384.5> 736 94<330 480 330 480>
VStem: 101 96<478.5 548.5 478.5 551.5> 423 96<149 227> 472 92<499 499>
AnchorPoint: "Anchor-0" 258 0 basechar 0
LayerCount: 2
Fore
SplineSet
386 736 m 1xf8
 330 736 l 1
 400 830 l 1
 480 830 l 1
 386 736 l 1xf8
360 704 m 0xf4
 503 704 571 617 564 499 c 1
 472 499 l 1xf4
 479 586 428 636 341 636 c 0
 259 636 197 589 197 508 c 0
 197 449 237 420 325 399 c 0
 453 368 519 313 519 209 c 0
 519 73 401 -14 243 -14 c 0
 101 -14 9 63 17 196 c 1
 109 196 l 1
 113 105 167 54 257 54 c 0
 350 54 423 104 423 194 c 0xf8
 423 260 379 294 278 319 c 0
 174 345 101 389 101 482 c 0
 101 621 219 704 360 704 c 0xf4
EndSplineSet
Position2: "'cpsp' Capital Spacing in Latin lookup 0 subtable" dx=5 dy=0 dh=10 dv=0
EndChar

StartChar: Scedilla
Encoding: 350 350 83
Width: 565
GlyphClass: 2
Flags: MW
HStem: -210 42<182.5 217 182.5 225> -13 67<221 221 274 274> 636 68<300 384.5>
VStem: 101 96<478.5 548.5 478.5 551.5> 264 58<-134 -105> 423 96<149 227> 472 92<499 499>
AnchorPoint: "Anchor-0" 258 0 basechar 0
LayerCount: 2
Fore
SplineSet
564 499 m 1xfa
 472 499 l 1xfa
 479 586 428 636 341 636 c 0
 259 636 197 589 197 508 c 0
 197 449 237 420 325 399 c 0
 453 368 519 313 519 209 c 0
 519 82 416 -2 274 -13 c 1
 254 -40 l 1
 299 -48 322 -78 322 -115 c 0
 322 -182 262 -210 188 -210 c 0
 164 -210 147 -207 134 -201 c 1
 142 -161 l 1
 155 -166 172 -168 193 -168 c 0
 241 -168 264 -148 264 -120 c 0
 264 -90 233 -71 175 -78 c 1
 221 -13 l 1
 91 -6 9 70 17 196 c 1
 109 196 l 1
 113 105 167 54 257 54 c 0
 350 54 423 104 423 194 c 0xfc
 423 260 379 294 278 319 c 0
 174 345 101 389 101 482 c 0
 101 621 219 704 360 704 c 0
 503 704 571 617 564 499 c 1xfa
EndSplineSet
Substitution2: "'locl' Localized Forms in Latin lookup 2 subtable" Scommaaccent
Substitution2: "'locl' Localized Forms in Latin lookup 1 subtable" Scommaaccent
Substitution2: "'aalt' Access All Alternates in Latin lookup 0 subtable" Scommaaccent
Position2: "'cpsp' Capital Spacing in Latin lookup 0 subtable" dx=5 dy=0 dh=10 dv=0
EndChar

StartChar: scedilla
Encoding: 351 351 197
Width: 451
GlyphClass: 2
Flags: MW
HStem: -210 42<101.5 136 101.5 144> -20 66<188 192 188 188> 478 66<212 279>
VStem: 52 94<368.5 415 368.5 427.5> 183 58<-134 -105> 305 94<108 159.5> 340 90<379 379>
AnchorPoint: "Anchor-0" 172 0 basechar 0
LayerCount: 2
Fore
SplineSet
242 303 m 0xfc
 344 272 399 230 399 143 c 0
 399 51 324 -20 192 -20 c 2
 188 -20 l 1
 173 -40 l 1
 218 -48 241 -78 241 -115 c 0
 241 -182 181 -210 107 -210 c 0
 83 -210 66 -207 53 -201 c 1
 61 -161 l 1
 74 -166 91 -168 112 -168 c 0
 160 -168 183 -148 183 -120 c 0
 183 -90 152 -71 94 -78 c 1
 138 -16 l 1
 31 3 -7 80 -10 150 c 1
 80 150 l 1
 87 73 135 46 199 46 c 0
 259 46 305 80 305 136 c 0xfc
 305 183 274 210 199 233 c 0
 117 258 52 292 52 384 c 0
 52 471 120 544 253 544 c 0
 376 544 428 476 430 379 c 1
 340 379 l 1xfa
 337 441 309 478 249 478 c 0
 175 478 146 437 146 393 c 0
 146 344 185 320 242 303 c 0xfc
EndSplineSet
Substitution2: "'locl' Localized Forms in Latin lookup 2 subtable" scommaaccent
Substitution2: "'locl' Localized Forms in Latin lookup 1 subtable" scommaaccent
Substitution2: "'aalt' Access All Alternates in Latin lookup 0 subtable" scommaaccent
EndChar

StartChar: Scaron
Encoding: 352 352 82
Width: 565
GlyphClass: 2
Flags: MW
HStem: -14 68<212 303.5 212 322> 636 68<300 384.5> 736 94<334 334 334 350 283 395>
VStem: 101 96<478.5 548.5 478.5 551.5> 423 96<149 227> 472 92<499 499>
AnchorPoint: "Anchor-0" 258 0 basechar 0
LayerCount: 2
Fore
SplineSet
334 736 m 1xf8
 283 830 l 1
 350 830 l 1
 371 775 l 1
 410 830 l 1
 478 830 l 1
 395 736 l 1
 334 736 l 1xf8
564 499 m 1xf4
 472 499 l 1xf4
 479 586 428 636 341 636 c 0
 259 636 197 589 197 508 c 0
 197 449 237 420 325 399 c 0
 453 368 519 313 519 209 c 0
 519 73 401 -14 243 -14 c 0
 101 -14 9 63 17 196 c 1
 109 196 l 1
 113 105 167 54 257 54 c 0
 350 54 423 104 423 194 c 0xf8
 423 260 379 294 278 319 c 0
 174 345 101 389 101 482 c 0
 101 621 219 704 360 704 c 0
 503 704 571 617 564 499 c 1xf4
EndSplineSet
Position2: "'cpsp' Capital Spacing in Latin lookup 0 subtable" dx=5 dy=0 dh=10 dv=0
EndChar

StartChar: Tcedilla
Encoding: 354 354 88
Width: 613
GlyphClass: 2
Flags: MW
HStem: -210 42<201.5 236 201.5 244> 0 21G<234 250 234 234 302 320 302 302> 620 70<110 344 97 688 430 430 430 675>
VStem: 283 58<-134 -105>
AnchorPoint: "Anchor-0" 277 0 basechar 0
LayerCount: 2
Fore
SplineSet
302 0 m 1
 273 -40 l 1
 318 -48 341 -78 341 -115 c 0
 341 -182 281 -210 207 -210 c 0
 183 -210 166 -207 153 -201 c 1
 161 -161 l 1
 174 -166 191 -168 212 -168 c 0
 260 -168 283 -148 283 -120 c 0
 283 -90 252 -71 194 -78 c 1
 250 0 l 1
 234 0 l 1
 344 620 l 1
 97 620 l 1
 110 690 l 1
 688 690 l 1
 675 620 l 1
 430 620 l 1
 320 0 l 1
 302 0 l 1
EndSplineSet
Substitution2: "'locl' Localized Forms in Latin lookup 2 subtable" uni021A
Substitution2: "'locl' Localized Forms in Latin lookup 1 subtable" uni021A
Substitution2: "'aalt' Access All Alternates in Latin lookup 0 subtable" uni021A
Position2: "'cpsp' Capital Spacing in Latin lookup 0 subtable" dx=5 dy=0 dh=10 dv=0
EndChar

StartChar: tcedilla
Encoding: 355 355 203
Width: 303
GlyphClass: 2
Flags: MW
HStem: -210 42<48.5 83 48.5 91> -8 67.23 0 21G<97 97 215 215> 460 66<60 118 48 129 215 294>
VStem: 52 90<51 104.5> 130 58<-134 -105>
AnchorPoint: "Anchor-0" 119 0 basechar 0
LayerCount: 2
Fore
SplineSet
203 460 m 1xd4
 149 155 l 2
 143 121 142 109 142 100 c 0
 142 62 169 53 227 63 c 1
 215 0 l 1
 197 -5 173 -8 151 -8 c 2
 144 -8 l 1xd8
 120 -40 l 1
 165 -48 188 -78 188 -115 c 0
 188 -182 128 -210 54 -210 c 0
 30 -210 13 -207 0 -201 c 1
 8 -161 l 1
 21 -166 38 -168 59 -168 c 0
 107 -168 130 -148 130 -120 c 0
 130 -90 99 -71 41 -78 c 1xd4
 97 0 l 1
 67 11 52 33 52 69 c 0
 52 83 55 108 63 151 c 2
 118 460 l 1
 48 460 l 1
 60 526 l 1
 129 526 l 1
 151 649 l 1xb8
 237 649 l 1
 215 526 l 1
 306 526 l 1
 294 460 l 1
 203 460 l 1xd4
EndSplineSet
Substitution2: "'locl' Localized Forms in Latin lookup 2 subtable" uni021B
Substitution2: "'locl' Localized Forms in Latin lookup 1 subtable" uni021B
Substitution2: "'aalt' Access All Alternates in Latin lookup 0 subtable" uni021B
EndChar

StartChar: Tcaron
Encoding: 356 356 87
Width: 613
GlyphClass: 2
Flags: MW
HStem: 0 21G<234 320 234 234> 620 70<110 344 97 688 430 675 430 430> 736 94<378 378 378 394 327 439>
VStem: 97 591<620 690>
AnchorPoint: "Anchor-0" 277 0 basechar 0
LayerCount: 2
Fore
SplineSet
378 736 m 1
 327 830 l 1
 394 830 l 1
 415 775 l 1
 454 830 l 1
 522 830 l 1
 439 736 l 1
 378 736 l 1
675 620 m 1
 430 620 l 1
 320 0 l 1
 234 0 l 1
 344 620 l 1
 97 620 l 1
 110 690 l 1
 688 690 l 1
 675 620 l 1
EndSplineSet
Position2: "'cpsp' Capital Spacing in Latin lookup 0 subtable" dx=5 dy=0 dh=10 dv=0
EndChar

StartChar: tcaron
Encoding: 357 357 202
Width: 303
GlyphClass: 2
Flags: MW
HStem: -8 67.23 460 66<60 118 48 129 215 294> 591 58<151 309 151 261> 591 144<261 390 261 390>
VStem: 52 90<42 104.5>
AnchorPoint: "Anchor-0" 119 0 basechar 0
LayerCount: 2
Fore
SplineSet
390 735 m 1xd8
 390 728 l 1
 309 591 l 1
 261 591 l 1
 321 735 l 1
 390 735 l 1xd8
215 526 m 1
 306 526 l 1
 294 460 l 1
 203 460 l 1
 149 155 l 2
 143 121 142 109 142 100 c 0
 142 62 169 53 227 63 c 1
 215 0 l 1
 197 -5 173 -8 151 -8 c 0
 87 -8 52 15 52 69 c 0
 52 83 55 108 63 151 c 2
 118 460 l 1
 48 460 l 1
 60 526 l 1
 129 526 l 1
 151 649 l 1
 237 649 l 1xe8
 215 526 l 1
EndSplineSet
EndChar

StartChar: Tbar
Encoding: 358 358 86
Width: 634
GlyphClass: 2
Flags: MW
HStem: 0 21G<234 320 234 234> 305 56<189 288 179 298 384 489> 620 70<110 344 97 688 430 675 430 430>
VStem: 97 591<620 690>
AnchorPoint: "Anchor-0" 277 0 basechar 0
LayerCount: 2
Fore
SplineSet
430 620 m 1
 384 361 l 1
 499 361 l 1
 489 305 l 1
 374 305 l 1
 320 0 l 1
 234 0 l 1
 288 305 l 1
 179 305 l 1
 189 361 l 1
 298 361 l 1
 344 620 l 1
 97 620 l 1
 110 690 l 1
 688 690 l 1
 675 620 l 1
 430 620 l 1
EndSplineSet
Position2: "'cpsp' Capital Spacing in Latin lookup 0 subtable" dx=5 dy=0 dh=10 dv=0
EndChar

StartChar: Uring
Encoding: 366 366 98
Width: 683
GlyphClass: 2
Flags: MW
HStem: -14 68<267.5 370 267.5 389.5> 670 20G<170 256 256 256 602 688 688 688> 716 36<429.5 453.5 429.5 465> 838 36<442.5 466.5>
VStem: 86 86<143 194> 356 50<777 803.5 777 812> 490 50<786.5 813>
LayerCount: 2
Fore
SplineSet
458 874 m 0
 510 874 540 845 540 807 c 0
 540 749 492 716 438 716 c 0xfe
 386 716 356 745 356 783 c 0
 356 841 404 874 458 874 c 0
456 838 m 0
 429 838 406 820 406 787 c 0
 406 767 419 752 440 752 c 0xfe
 467 752 490 770 490 803 c 0
 490 823 477 838 456 838 c 0
688 690 m 1
 611 255 l 2
 607 233 603 213 598 193 c 0
 566 61 474 -14 305 -14 c 0
 159 -14 86 55 86 179 c 0
 86 209 89 235 94 262 c 2
 170 690 l 1
 256 690 l 1
 182 270 l 2
 174 224 172 208 172 182 c 0
 172 104 218 54 317 54 c 0
 423 54 485 97 514 202 c 0
 519 220 523 241 527 263 c 2
 602 690 l 1
 688 690 l 1
EndSplineSet
Position2: "'cpsp' Capital Spacing in Latin lookup 0 subtable" dx=5 dy=0 dh=10 dv=0
EndChar

StartChar: uring
Encoding: 367 367 213
Width: 590
GlyphClass: 2
Flags: MW
HStem: -14 68 0 21G<384 470 384 384> 510 20G<115 201 201 201 477 563 563 563> 565 36<343.5 367.5 343.5 376.5> 697 36<356.5 380.5>
VStem: 48 89<119 136> 269 51<625.5 655.5 625.5 661.5> 404 51<642.5 672.5>
LayerCount: 2
Fore
SplineSet
347 565 m 0xbf
 300 565 269 593 269 633 c 0
 269 690 318 733 377 733 c 0
 424 733 455 705 455 665 c 0
 455 608 406 565 347 565 c 0xbf
370 697 m 0
 343 697 320 674 320 637 c 0
 320 614 333 601 354 601 c 0
 381 601 404 624 404 661 c 0
 404 684 391 697 370 697 c 0
563 530 m 1
 470 0 l 1
 384 0 l 1
 400 91 l 1x7f
 356 30 l 1
 305 -5 264 -14 210 -14 c 0
 102 -14 48 39 48 122 c 0
 48 150 49 168 61 232 c 2
 115 530 l 1
 201 530 l 1
 148 238 l 2
 140 193 137 167 137 146 c 0
 137 92 165 52 240 54 c 0
 324 56 404 116 436 297 c 2
 477 530 l 1
 563 530 l 1
EndSplineSet
EndChar

StartChar: Uhungarumlaut
Encoding: 368 368 95
Width: 683
GlyphClass: 2
Flags: MW
HStem: -14 68<267.5 370 267.5 389.5> 670 20G<170 256 256 256 602 688 688 688> 736 94<333 483 333 483 442 442 442 483 403 498>
VStem: 86 86<143 194>
LayerCount: 2
Fore
SplineSet
389 736 m 1
 333 736 l 1
 403 830 l 1
 483 830 l 1
 389 736 l 1
498 736 m 1
 442 736 l 1
 512 830 l 1
 592 830 l 1
 498 736 l 1
688 690 m 1
 611 255 l 2
 607 233 603 213 598 193 c 0
 566 61 474 -14 305 -14 c 0
 159 -14 86 55 86 179 c 0
 86 209 89 235 94 262 c 2
 170 690 l 1
 256 690 l 1
 182 270 l 2
 174 224 172 208 172 182 c 0
 172 104 218 54 317 54 c 0
 423 54 485 97 514 202 c 0
 519 220 523 241 527 263 c 2
 602 690 l 1
 688 690 l 1
EndSplineSet
Position2: "'cpsp' Capital Spacing in Latin lookup 0 subtable" dx=5 dy=0 dh=10 dv=0
EndChar

StartChar: Uogonek
Encoding: 370 370 97
Width: 683
GlyphClass: 2
Flags: MW
HStem: -223 54<266 340> -14 68 670 20G<170 256 256 256 602 688 688 688>
VStem: 86 86<143 194> 207 86<-142 -125>
LayerCount: 2
Fore
SplineSet
688 690 m 1
 611 255 l 2
 607 233 603 213 598 193 c 0
 571 83 503 12 382 -8 c 1
 329 -30 293 -87 293 -127 c 0
 293 -157 306 -169 330 -169 c 0
 350 -169 369 -163 389 -149 c 1
 380 -195 l 1
 356 -212 324 -223 287 -223 c 0
 245 -223 207 -203 207 -150 c 0
 207 -100 237 -49 295 -14 c 1
 156 -11 86 58 86 179 c 0
 86 209 89 235 94 262 c 2
 170 690 l 1
 256 690 l 1
 182 270 l 2
 174 224 172 208 172 182 c 0
 172 104 218 54 317 54 c 0
 423 54 485 97 514 202 c 0
 519 220 523 241 527 263 c 2
 602 690 l 1
 688 690 l 1
EndSplineSet
Position2: "'cpsp' Capital Spacing in Latin lookup 0 subtable" dx=5 dy=0 dh=10 dv=0
EndChar

StartChar: uogonek
Encoding: 371 371 212
Width: 590
GlyphClass: 2
Flags: MW
HStem: -223 54<305 379> -14 68 0 21G<449 470 449 449> 510 20G<115 201 201 201 477 563 563 563>
VStem: 48 89<119 136> 246 86<-142 -118.5>
LayerCount: 2
Fore
SplineSet
563 530 m 1xdc
 470 0 l 1
 449 0 l 1xbc
 381 -11 332 -81 332 -127 c 0
 332 -157 345 -169 369 -169 c 0
 389 -169 408 -163 428 -149 c 1
 419 -195 l 1
 395 -212 363 -223 326 -223 c 0
 284 -223 246 -203 246 -150 c 0
 246 -87 294 -22 386 10 c 1
 400 91 l 1
 356 30 l 1
 305 -5 264 -14 210 -14 c 0
 102 -14 48 39 48 122 c 0
 48 150 49 168 61 232 c 2
 115 530 l 1
 201 530 l 1
 148 238 l 2
 140 193 137 167 137 146 c 0
 137 92 165 52 240 54 c 0
 324 56 404 116 436 297 c 2
 477 530 l 1
 563 530 l 1xdc
EndSplineSet
EndChar

StartChar: Ycircumflex
Encoding: 374 374 108
Width: 581
GlyphClass: 2
Flags: MW
HStem: 0 21G<216 302 216 216> 670 20G<94 185 185 185 567 668 668 668> 736 94<293 435 293 435 419 419 419 435 376 486>
VStem: 94 574<690 690>
LayerCount: 2
Fore
SplineSet
359 736 m 1
 293 736 l 1
 376 830 l 1
 435 830 l 1
 486 736 l 1
 419 736 l 1
 398 791 l 1
 359 736 l 1
349 268 m 1
 302 0 l 1
 216 0 l 1
 264 272 l 1
 94 690 l 1
 185 690 l 1
 319 350 l 1
 567 690 l 1
 668 690 l 1
 349 268 l 1
EndSplineSet
Position2: "'cpsp' Capital Spacing in Latin lookup 0 subtable" dx=5 dy=0 dh=10 dv=0
EndChar

StartChar: ycircumflex
Encoding: 375 375 223
Width: 494
GlyphClass: 2
Flags: MW
HStem: -210 71<8 39.5 8 62> 510 20G<35 133 133 133 448 547 547 547> 580 110<204 350 204 350 333 333 333 350 291 397> 643 47<311 311>
VStem: -30 577
LayerCount: 2
Fore
SplineSet
267 580 m 1xe8
 204 580 l 1
 291 690 l 1
 350 690 l 1
 397 580 l 1
 333 580 l 1xe8
 311 643 l 1xd8
 267 580 l 1xe8
547 530 m 1
 252 0 l 2
 161 -163 112 -210 12 -210 c 0
 -3 -210 -17 -209 -30 -207 c 1
 -18 -136 l 1
 -7 -138 3 -139 13 -139 c 0
 66 -139 101 -117 139 -46 c 2
 148 -29 l 1
 35 530 l 1
 133 530 l 1
 209 63 l 1
 448 530 l 1
 547 530 l 1
EndSplineSet
EndChar

StartChar: Ydieresis
Encoding: 376 376 109
Width: 581
GlyphClass: 2
Flags: MW
HStem: 0 21G<216 302 216 216> 670 20G<94 185 185 185 567 668 668 668> 737 92<321.5 332.5 461.5 472.5>
VStem: 280 94<776 790> 420 94<776 790>
LayerCount: 2
Fore
SplineSet
319 737 m 0
 296 737 280 754 280 776 c 0
 280 804 308 829 335 829 c 0
 358 829 374 812 374 790 c 0
 374 762 346 737 319 737 c 0
459 737 m 0
 436 737 420 754 420 776 c 0
 420 804 448 829 475 829 c 0
 498 829 514 812 514 790 c 0
 514 762 486 737 459 737 c 0
349 268 m 1
 302 0 l 1
 216 0 l 1
 264 272 l 1
 94 690 l 1
 185 690 l 1
 319 350 l 1
 567 690 l 1
 668 690 l 1
 349 268 l 1
EndSplineSet
Position2: "'cpsp' Capital Spacing in Latin lookup 0 subtable" dx=5 dy=0 dh=10 dv=0
EndChar

StartChar: Zacute
Encoding: 377 377 112
Width: 591
GlyphClass: 2
Flags: MW
HStem: 0 70<123 522> 620 70<149 517 136 638> 736 94<356 506 356 506>
VStem: -1 639
LayerCount: 2
Fore
SplineSet
412 736 m 1
 356 736 l 1
 426 830 l 1
 506 830 l 1
 412 736 l 1
626 621 m 1
 123 70 l 1
 535 70 l 1
 522 0 l 1
 -1 0 l 1
 11 66 l 1
 517 620 l 1
 136 620 l 1
 149 690 l 1
 638 690 l 1
 626 621 l 1
EndSplineSet
Position2: "'cpsp' Capital Spacing in Latin lookup 0 subtable" dx=5 dy=0 dh=10 dv=0
EndChar

StartChar: Zdotaccent
Encoding: 379 379 114
Width: 591
GlyphClass: 2
Flags: MW
HStem: 0 70<123 522> 620 70<149 517 136 638> 737 92<391.5 402.5>
VStem: 350 94<776 790>
LayerCount: 2
Fore
SplineSet
389 737 m 0
 366 737 350 754 350 776 c 0
 350 804 378 829 405 829 c 0
 428 829 444 812 444 790 c 0
 444 762 416 737 389 737 c 0
626 621 m 1
 123 70 l 1
 535 70 l 1
 522 0 l 1
 -1 0 l 1
 11 66 l 1
 517 620 l 1
 136 620 l 1
 149 690 l 1
 638 690 l 1
 626 621 l 1
EndSplineSet
Position2: "'cpsp' Capital Spacing in Latin lookup 0 subtable" dx=5 dy=0 dh=10 dv=0
EndChar

StartChar: zdotaccent
Encoding: 380 380 229
Width: 474
GlyphClass: 2
Flags: MW
HStem: 0 68<98 395> 458 68<96 368 84 482> 594 110<298 316>
VStem: 251 112<640 658>
LayerCount: 2
Fore
SplineSet
298 594 m 0
 270 594 251 614 251 640 c 0
 251 676 280 704 316 704 c 0
 344 704 363 684 363 658 c 0
 363 622 334 594 298 594 c 0
470 457 m 1
 98 68 l 1
 407 68 l 1
 395 0 l 1
 -18 0 l 1
 -7 66 l 1
 368 458 l 1
 84 458 l 1
 96 526 l 1
 482 526 l 1
 470 457 l 1
EndSplineSet
EndChar

StartChar: Zcaron
Encoding: 381 381 113
Width: 591
GlyphClass: 2
Flags: MW
HStem: 0 70<123 522> 620 70<149 517 136 638> 736 94<360 360 360 376 309 421>
VStem: -1 639
LayerCount: 2
Fore
SplineSet
360 736 m 1
 309 830 l 1
 376 830 l 1
 397 775 l 1
 436 830 l 1
 504 830 l 1
 421 736 l 1
 360 736 l 1
626 621 m 1
 123 70 l 1
 535 70 l 1
 522 0 l 1
 -1 0 l 1
 11 66 l 1
 517 620 l 1
 136 620 l 1
 149 690 l 1
 638 690 l 1
 626 621 l 1
EndSplineSet
Position2: "'cpsp' Capital Spacing in Latin lookup 0 subtable" dx=5 dy=0 dh=10 dv=0
EndChar

StartChar: zcaron
Encoding: 382 382 228
Width: 474
GlyphClass: 2
Flags: MW
HStem: 0 68<98 395> 458 68<96 368 84 482> 580 110<265 265 265 282 218 324>
VStem: -18 500
LayerCount: 2
Fore
SplineSet
265 580 m 1
 218 690 l 1
 282 690 l 1
 304 627 l 1
 348 690 l 1
 411 690 l 1
 324 580 l 1
 265 580 l 1
470 457 m 1
 98 68 l 1
 407 68 l 1
 395 0 l 1
 -18 0 l 1
 -7 66 l 1
 368 458 l 1
 84 458 l 1
 96 526 l 1
 482 526 l 1
 470 457 l 1
EndSplineSet
EndChar

StartChar: Scommaaccent
Encoding: 536 536 84
Width: 565
GlyphClass: 2
Flags: MW
HStem: -195 144<164 293 164 293> -14 68<212 303.5 212 322> 636 68<300 384.5>
VStem: 101 96<478.5 548.5 478.5 551.5> 423 96<149 227> 472 92<499 499>
AnchorPoint: "Anchor-0" 258 0 basechar 0
LayerCount: 2
Fore
SplineSet
360 704 m 0x74
 503 704 571 617 564 499 c 1
 472 499 l 1x74
 479 586 428 636 341 636 c 0
 259 636 197 589 197 508 c 0
 197 449 237 420 325 399 c 0
 453 368 519 313 519 209 c 0
 519 73 401 -14 243 -14 c 0
 101 -14 9 63 17 196 c 1
 109 196 l 1
 113 105 167 54 257 54 c 0
 350 54 423 104 423 194 c 0x78
 423 260 379 294 278 319 c 0
 174 345 101 389 101 482 c 0
 101 621 219 704 360 704 c 0x74
293 -58 m 1xf8
 212 -195 l 1
 164 -195 l 1
 224 -51 l 1
 293 -51 l 1
 293 -58 l 1xf8
EndSplineSet
Position2: "'cpsp' Capital Spacing in Latin lookup 0 subtable" dx=5 dy=0 dh=10 dv=0
EndChar

StartChar: uni021B
Encoding: 539 539 204
Width: 303
GlyphClass: 2
Flags: MW
HStem: -195 144<25 154 25 154> -8 67.23 460 66<60 118 48 129 215 294>
VStem: 52 90<42 104.5>
AnchorPoint: "Anchor-0" 119 0 basechar 0
LayerCount: 2
Fore
SplineSet
203 460 m 1
 149 155 l 2
 143 121 142 109 142 100 c 0
 142 62 169 53 227 63 c 1
 215 0 l 1
 197 -5 173 -8 151 -8 c 0
 87 -8 52 15 52 69 c 0
 52 83 55 108 63 151 c 2
 118 460 l 1
 48 460 l 1
 60 526 l 1
 129 526 l 1
 151 649 l 1
 237 649 l 1
 215 526 l 1
 306 526 l 1
 294 460 l 1
 203 460 l 1
85 -51 m 1
 154 -51 l 1
 154 -58 l 1
 73 -195 l 1
 25 -195 l 1
 85 -51 l 1
EndSplineSet
EndChar

StartChar: circumflex
Encoding: 710 710 330
Width: 300
Flags: MW
HStem: 580 110<44 190 44 190 173 190 131 237 173 173> 643 47<151 151>
VStem: 44 193<580 580>
LayerCount: 2
Fore
SplineSet
173 580 m 1xa0
 151 643 l 1x60
 107 580 l 1
 44 580 l 1
 131 690 l 1
 190 690 l 1
 237 580 l 1
 173 580 l 1xa0
EndSplineSet
EndChar

StartChar: caron
Encoding: 711 711 328
Width: 300
Flags: MW
HStem: 580 110<111 128 64 170 111 111>
VStem: 64 193<690 690>
LayerCount: 2
Fore
SplineSet
257 690 m 1
 170 580 l 1
 111 580 l 1
 64 690 l 1
 128 690 l 1
 150 627 l 1
 194 690 l 1
 257 690 l 1
EndSplineSet
EndChar

StartChar: breve
Encoding: 728 728 327
Width: 300
Flags: MW
HStem: 566 55<128 163.5 128 174.5> 566 124<96 112 59 174.5>
VStem: 54.76 57.24
LayerCount: 2
Fore
SplineSet
210 690 m 1x60
 263 690 l 1
 248 607 210 566 139 566 c 0
 53 566 48 631 59 690 c 1
 112 690 l 1x60
 108 654 107 621 149 621 c 0xa0
 178 621 200 638 210 690 c 1x60
EndSplineSet
EndChar

StartChar: dotaccent
Encoding: 729 729 332
Width: 300
Flags: MW
HStem: 594 110<144 162> 684 20G<144 176>
VStem: 97 112<640 658>
LayerCount: 2
Fore
SplineSet
162 704 m 0x60
 190 704 209 684 209 658 c 0
 209 622 180 594 144 594 c 0xa0
 116 594 97 614 97 640 c 0
 97 676 126 704 162 704 c 0x60
EndSplineSet
EndChar

StartChar: ring
Encoding: 730 730 337
Width: 300
Flags: MW
HStem: 565 36<131.5 155.5 131.5 164.5> 697 36<144.5 168.5>
VStem: 57 51<625.5 655.5 625.5 661.5> 192 51<642.5 672.5>
LayerCount: 2
Fore
SplineSet
165 733 m 0
 212 733 243 705 243 665 c 0
 243 608 194 565 135 565 c 0
 88 565 57 593 57 633 c 0
 57 690 106 733 165 733 c 0
158 697 m 0
 131 697 108 674 108 637 c 0
 108 614 121 601 142 601 c 0
 169 601 192 624 192 661 c 0
 192 684 179 697 158 697 c 0
EndSplineSet
EndChar

StartChar: ogonek
Encoding: 731 731 336
Width: 300
Flags: MW
HStem: -223 54<88 162> 0 21G<232 232>
VStem: 29 86<-142 -118>
LayerCount: 2
Fore
SplineSet
171 11 m 1
 232 0 l 1
 164 -11 115 -81 115 -127 c 0
 115 -157 128 -169 152 -169 c 0
 172 -169 191 -163 211 -149 c 1
 202 -195 l 1
 178 -212 146 -223 109 -223 c 0
 67 -223 29 -203 29 -150 c 0
 29 -86 78 -21 171 11 c 1
EndSplineSet
EndChar

StartChar: tilde
Encoding: 732 732 338
Width: 300
Flags: MW
HStem: 596 71<187.5 262> 600 71<38 112.5 38 112.5>
VStem: 38 224<600 667>
LayerCount: 2
Fore
SplineSet
103 671 m 0x60
 122 671 137 667 162 658 c 0
 185 650 195 647 204 647 c 0
 214 647 221 652 224 667 c 1
 262 667 l 1
 252 611 229 596 197 596 c 0xa0
 178 596 163 600 138 609 c 0
 115 617 105 620 96 620 c 0
 86 620 79 615 76 600 c 1
 38 600 l 1
 48 656 71 671 103 671 c 0x60
EndSplineSet
EndChar

StartChar: hungarumlaut
Encoding: 733 733 334
Width: 300
Flags: MW
HStem: 580 110<50 211 50 211 172 172 172 211 131 228>
VStem: 50 283<580 690>
LayerCount: 2
Fore
SplineSet
106 580 m 1
 50 580 l 1
 131 690 l 1
 211 690 l 1
 106 580 l 1
228 580 m 1
 172 580 l 1
 253 690 l 1
 333 690 l 1
 228 580 l 1
EndSplineSet
EndChar

StartChar: uni0326
Encoding: 806 806 339
Width: 0
GlyphClass: 4
Flags: MW
HStem: -195 144<78 207 78 207>
VStem: 78 129
AnchorPoint: "Anchor-0" 172 0 mark 0
LayerCount: 2
Fore
SplineSet
207 -58 m 1
 126 -195 l 1
 78 -195 l 1
 138 -51 l 1
 207 -51 l 1
 207 -58 l 1
EndSplineSet
EndChar

StartChar: Wgrave
Encoding: 7808 7808 104
Width: 953
GlyphClass: 2
Flags: MW
HStem: 0 21G<161 275 161 161 593 706 593 593> 0 88<667 667 667 706 593 667> 595 85<543 543> 670 20G<101 196 196 196 925 1020 1020 1020> 736 94<548 548 548 566 486 604>
VStem: 101 919<690 690>
LayerCount: 2
Fore
SplineSet
548 736 m 1x9c
 486 830 l 1
 566 830 l 1
 604 736 l 1
 548 736 l 1x9c
1020 690 m 1
 706 0 l 1
 593 0 l 1
 543 595 l 1xac
 275 0 l 1
 161 0 l 1
 101 690 l 1
 196 690 l 1x9c
 235 89 l 1
 496 680 l 1
 618 680 l 1
 667 88 l 1x6c
 925 690 l 1
 1020 690 l 1
EndSplineSet
Position2: "'cpsp' Capital Spacing in Latin lookup 0 subtable" dx=5 dy=0 dh=10 dv=0
EndChar

StartChar: wgrave
Encoding: 7809 7809 219
Width: 760
GlyphClass: 2
Flags: MW
HStem: 0 21G<110 213 110 110 448 550 448 448> 0 89<518 518 518 550 448 518> 444 86<409 409> 510 20G<35 134 134 134 369 478 478 478 719 813 813 813> 580 110<411 411 411 426 346 467>
VStem: 35 778<530 530>
LayerCount: 2
Fore
SplineSet
411 580 m 1x9c
 346 690 l 1
 426 690 l 1
 467 580 l 1
 411 580 l 1x9c
813 530 m 1
 550 0 l 1
 448 0 l 1
 409 444 l 1xac
 213 0 l 1
 110 0 l 1
 35 530 l 1
 134 530 l 1
 178 90 l 1
 369 530 l 1
 478 530 l 1
 518 89 l 1x5c
 719 530 l 1
 813 530 l 1
EndSplineSet
EndChar

StartChar: Wdieresis
Encoding: 7812 7812 103
Width: 953
GlyphClass: 2
Flags: MW
HStem: 0 21G<161 275 161 161 593 706 593 593> 0 88<667 667 667 706 593 667> 595 85<543 543> 670 20G<101 196 196 196 925 1020 1020 1020> 737 92<504.5 515.5 644.5 655.5>
VStem: 101 919<690 690> 463 94<776 790> 603 94<776 790>
LayerCount: 2
Fore
SplineSet
502 737 m 0x5b
 479 737 463 754 463 776 c 0
 463 804 491 829 518 829 c 0
 541 829 557 812 557 790 c 0
 557 762 529 737 502 737 c 0x5b
642 737 m 0
 619 737 603 754 603 776 c 0
 603 804 631 829 658 829 c 0
 681 829 697 812 697 790 c 0
 697 762 669 737 642 737 c 0
1020 690 m 1
 706 0 l 1
 593 0 l 1
 543 595 l 1xac
 275 0 l 1
 161 0 l 1
 101 690 l 1
 196 690 l 1x9c
 235 89 l 1
 496 680 l 1
 618 680 l 1x69
 667 88 l 1
 925 690 l 1
 1020 690 l 1
EndSplineSet
Position2: "'cpsp' Capital Spacing in Latin lookup 0 subtable" dx=5 dy=0 dh=10 dv=0
EndChar

StartChar: wdieresis
Encoding: 7813 7813 218
Width: 760
GlyphClass: 2
Flags: MW
HStem: 0 21G<110 213 110 110 448 550 448 448> 0 89<518 518 518 550 448 518> 444 86<409 409> 510 20G<35 134 134 134 369 478 478 478 719 813 813 813> 583 92<364.5 375.5 510.5 521.5>
VStem: 323 94<622 636> 469 94<622 636>
LayerCount: 2
Fore
SplineSet
362 583 m 0x5e
 339 583 323 600 323 622 c 0
 323 650 351 675 378 675 c 0
 401 675 417 658 417 636 c 0
 417 608 389 583 362 583 c 0x5e
508 583 m 0
 485 583 469 600 469 622 c 0
 469 650 497 675 524 675 c 0
 547 675 563 658 563 636 c 0
 563 608 535 583 508 583 c 0
813 530 m 1
 550 0 l 1
 448 0 l 1
 409 444 l 1xac
 213 0 l 1
 110 0 l 1
 35 530 l 1
 134 530 l 1
 178 90 l 1
 369 530 l 1
 478 530 l 1
 518 89 l 1
 719 530 l 1
 813 530 l 1
EndSplineSet
EndChar

StartChar: endash
Encoding: 8211 8211 270
Width: 500
Flags: MW
HStem: 264 56<75 425 65 435>
VStem: 65 370<264 320>
LayerCount: 2
Fore
SplineSet
425 264 m 1
 65 264 l 1
 75 320 l 1
 435 320 l 1
 425 264 l 1
EndSplineSet
EndChar

StartChar: emdash
Encoding: 8212 8212 269
Width: 1000
Flags: MW
HStem: 264 56<75 925 65 935>
VStem: 65 870<264 320>
LayerCount: 2
Fore
SplineSet
925 264 m 1
 65 264 l 1
 75 320 l 1
 935 320 l 1
 925 264 l 1
EndSplineSet
EndChar

StartChar: quoteleft
Encoding: 8216 8216 279
Width: 222
Flags: MW
HStem: 470 220<89 299 89 299>
VStem: 89 210
LayerCount: 2
Fore
SplineSet
91 482 m 1
 218 690 l 1
 299 690 l 1
 182 470 l 1
 89 470 l 1
 91 482 l 1
EndSplineSet
EndChar

StartChar: quoteright
Encoding: 8217 8217 280
Width: 222
Flags: MW
HStem: 470 220<37 247 37 247> 670 20G<154 247 247 247>
VStem: 37 210
LayerCount: 2
Fore
SplineSet
245 678 m 1x60
 118 470 l 1
 37 470 l 1xa0
 154 690 l 1
 247 690 l 1
 245 678 l 1x60
EndSplineSet
EndChar

StartChar: quotedblleft
Encoding: 8220 8220 277
Width: 392
Flags: MW
HStem: 470 220<89 299 89 299 259 259 259 299 218 352>
VStem: 89 380<470 690>
LayerCount: 2
Fore
SplineSet
91 482 m 1
 218 690 l 1
 299 690 l 1
 182 470 l 1
 89 470 l 1
 91 482 l 1
261 482 m 1
 388 690 l 1
 469 690 l 1
 352 470 l 1
 259 470 l 1
 261 482 l 1
EndSplineSet
EndChar

StartChar: quotedblright
Encoding: 8221 8221 278
Width: 392
Flags: MW
HStem: 470 220<37 247 37 247 207 207 207 247 154 288>
VStem: 37 380<470 690>
LayerCount: 2
Fore
SplineSet
245 678 m 1
 118 470 l 1
 37 470 l 1
 154 690 l 1
 247 690 l 1
 245 678 l 1
415 678 m 1
 288 470 l 1
 207 470 l 1
 324 690 l 1
 417 690 l 1
 415 678 l 1
EndSplineSet
EndChar

StartChar: quotedblbase
Encoding: 8222 8222 276
Width: 403
Flags: MW
HStem: -120 220<-87 124 -87 124 83 83 83 124 30 164>
VStem: -87 381<-120 100>
LayerCount: 2
Fore
SplineSet
122 88 m 1
 -6 -120 l 1
 -87 -120 l 1
 30 100 l 1
 124 100 l 1
 122 88 l 1
292 88 m 1
 164 -120 l 1
 83 -120 l 1
 200 100 l 1
 294 100 l 1
 292 88 l 1
EndSplineSet
EndChar

StartChar: dagger
Encoding: 8224 8224 319
Width: 560
Flags: MW
HStem: 378 70 670 20G<299 401 401 401>
VStem: 75 452<374 452>
LayerCount: 2
Fore
SplineSet
513 374 m 1
 335 382 l 1
 251 -160 l 1
 149 -160 l 1
 257 382 l 1
 75 374 l 1
 89 452 l 1
 268 444 l 1
 299 690 l 1
 401 690 l 1
 346 444 l 1
 527 452 l 1
 513 374 l 1
EndSplineSet
EndChar

StartChar: daggerdbl
Encoding: 8225 8225 320
Width: 530
Flags: MW
HStem: 82 70 378 70 670 20G<299 401 401 401>
VStem: 23 504<78 452>
LayerCount: 2
Fore
SplineSet
335 382 m 1
 293 148 l 1
 475 156 l 1
 461 78 l 1
 282 86 l 1
 251 -160 l 1
 149 -160 l 1
 204 86 l 1
 23 78 l 1
 37 156 l 1
 215 148 l 1
 257 382 l 1
 75 374 l 1
 89 452 l 1
 268 444 l 1
 299 690 l 1
 401 690 l 1
 346 444 l 1
 527 452 l 1
 513 374 l 1
 335 382 l 1
EndSplineSet
EndChar

StartChar: bullet
Encoding: 8226 8226 246
Width: 364
Flags: MW
HStem: 201 208<167.5 196.5>
VStem: 76 212<290 320>
LayerCount: 2
Fore
SplineSet
200 409 m 0
 253 409 288 373 288 324 c 0
 288 256 229 201 164 201 c 0
 111 201 76 237 76 286 c 0
 76 354 135 409 200 409 c 0
EndSplineSet
EndChar

StartChar: ellipsis
Encoding: 8230 8230 249
Width: 633
Flags: MW
HStem: -14 128<54.5 73.5 254.5 273.5 454.5 473.5>
VStem: 0 128<39 61> 200 128<39 61> 400 128<39 61>
LayerCount: 2
Fore
SplineSet
75 114 m 0
 108 114 128 91 128 61 c 0
 128 17 94 -14 53 -14 c 0
 20 -14 0 9 0 39 c 0
 0 83 34 114 75 114 c 0
275 114 m 0
 308 114 328 91 328 61 c 0
 328 17 294 -14 253 -14 c 0
 220 -14 200 9 200 39 c 0
 200 83 234 114 275 114 c 0
475 114 m 0
 508 114 528 91 528 61 c 0
 528 17 494 -14 453 -14 c 0
 420 -14 400 9 400 39 c 0
 400 83 434 114 475 114 c 0
EndSplineSet
EndChar

StartChar: perthousand
Encoding: 8240 8240 306
Width: 1077
Flags: MW
HStem: -14 60<499.5 542 499.5 570 836.5 879> 0 21G<54 147 54 54> 244 60<523 565.5 860 902.5> 386 60<202.5 245 202.5 273> 644 60<226 268.5> 670 20G<621 714 714 714>
VStem: 84 85<492 551 492 562.5> 302 85<539 598> 381 85<92 151 92 162.5> 599 85<139 198> 718 85<92 151 92 162.5> 936 85<139 198>
LayerCount: 2
Fore
SplineSet
214 386 m 0xbb70
 134 386 84 439 84 516 c 0
 84 609 139 704 257 704 c 0
 337 704 387 651 387 574 c 0
 387 481 332 386 214 386 c 0xbb70
621 690 m 1x4440
 714 690 l 1
 147 0 l 1
 54 0 l 1
 621 690 l 1x4440
250 644 m 0x3b40
 202 644 169 591 169 511 c 0
 169 473 184 446 221 446 c 0
 269 446 302 499 302 579 c 0
 302 617 287 644 250 644 c 0x3b40
554 304 m 0
 634 304 684 251 684 174 c 0
 684 81 629 -14 511 -14 c 0
 431 -14 381 39 381 116 c 0xa0c0
 381 209 436 304 554 304 c 0
891 304 m 0xa0f0
 971 304 1021 251 1021 174 c 0
 1021 81 966 -14 848 -14 c 0
 768 -14 718 39 718 116 c 0
 718 209 773 304 891 304 c 0xa0f0
518 46 m 0
 566 46 599 99 599 179 c 0
 599 217 584 244 547 244 c 0
 499 244 466 191 466 111 c 0
 466 73 481 46 518 46 c 0
855 46 m 0
 903 46 936 99 936 179 c 0
 936 217 921 244 884 244 c 0
 836 244 803 191 803 111 c 0
 803 73 818 46 855 46 c 0
EndSplineSet
EndChar

StartChar: guilsinglleft
Encoding: 8249 8249 274
Width: 377
Flags: MW
HStem: 82 332<280 293 222 363>
VStem: 114 249<248 414>
LayerCount: 2
Fore
SplineSet
190 241 m 1
 293 82 l 1
 222 82 l 1
 114 248 l 1
 280 414 l 1
 363 414 l 1
 190 241 l 1
EndSplineSet
EndChar

StartChar: guilsinglright
Encoding: 8250 8250 275
Width: 377
Flags: MW
HStem: 82 332<78 91 8 149>
VStem: 8 249<82 248>
LayerCount: 2
Fore
SplineSet
257 248 m 1
 91 82 l 1
 8 82 l 1
 181 255 l 1
 78 414 l 1
 149 414 l 1
 257 248 l 1
EndSplineSet
EndChar

StartChar: fraction
Encoding: 8260 8260 243
Width: 218
Flags: MW
HStem: 0 21G<-207 -114 -207 -207> 670 20G<360 453 453 453>
VStem: -207 660
LayerCount: 2
Fore
SplineSet
-114 0 m 1
 -207 0 l 1
 360 690 l 1
 453 690 l 1
 -114 0 l 1
EndSplineSet
EndChar

StartChar: Euro
Encoding: 8364 8364 286
Width: 580
Flags: MW
HStem: -14 68<273 332> 260 56<5 63 -15 64 158 420> 370 56<42 70 22 82 175 456> 636 68<338 430>
VStem: 63 94<260 260> 67 97
LayerCount: 2
Fore
SplineSet
414 704 m 0xf8
 490 704 541 680 571 641 c 1
 522 587 l 1
 496 619 454 636 406 636 c 0
 270 636 204 532 175 426 c 1
 477 426 l 1
 456 370 l 1
 164 370 l 1
 161 351 159 333 158 316 c 1xf4
 439 316 l 1
 420 260 l 1
 157 260 l 1
 163 102 224 54 322 54 c 0
 379 54 427 66 476 94 c 1
 463 23 l 1
 409 -5 359 -14 305 -14 c 0
 171 -14 68 41 63 260 c 1
 -15 260 l 1
 5 316 l 1xf8
 64 316 l 1
 65 334 67 352 70 370 c 1
 22 370 l 1
 42 426 l 1
 82 426 l 1xf4
 118 566 213 704 414 704 c 0xf8
EndSplineSet
EndChar

StartChar: trademark
Encoding: 8482 8482 325
Width: 539
Flags: MW
HStem: 456 203<76 335 76 335 224 335 260 274 260 408 421 458> 460 44<350 350 350 368 316 350> 619 41<38 105 31 236 155 229 155 155>
VStem: 298 44.5
LayerCount: 2
Fore
SplineSet
155 619 m 1x30
 126 456 l 1
 76 456 l 1
 105 619 l 1
 31 619 l 1
 38 660 l 1
 236 660 l 1
 229 619 l 1
 155 619 l 1x30
494 659 m 1x90
 458 456 l 1
 408 456 l 1
 435 598 l 1x90
 368 460 l 1
 316 460 l 1
 298 597 l 1
 274 456 l 1
 224 456 l 1
 260 659 l 1
 335 659 l 1
 350 504 l 1x70
 421 659 l 1
 494 659 l 1x90
EndSplineSet
EndChar

StartChar: partialdiff
Encoding: 8706 8706 304
Width: 580
Flags: MW
HStem: -14 66<205.5 289 205.5 349> 426 66<237.5 322> 692 66<282.5 357>
VStem: 34 94<140 257.5 140 268.5> 439 94<476.5 549>
LayerCount: 2
Fore
SplineSet
322 758 m 0
 481 758 533 644 533 490 c 0
 533 269 467 -14 231 -14 c 0
 115 -14 34 55 34 183 c 0
 34 354 122 492 292 492 c 0
 369 492 416 463 436 415 c 1
 438 440 439 464 439 489 c 0
 439 609 408 692 306 692 c 0
 239 692 199 675 148 637 c 1
 119 690 l 1
 185 738 243 758 322 758 c 0
239 52 m 0
 339 52 400 170 425 330 c 1
 405 398 360 426 284 426 c 0
 191 426 128 330 128 185 c 0
 128 95 172 52 239 52 c 0
EndSplineSet
EndChar

StartChar: product
Encoding: 8719 8719 309
Width: 580
Flags: MW
HStem: 620 70<92 141 79 610 227 451 227 227 537 597 537 537>
VStem: 11 599
LayerCount: 2
Fore
SplineSet
597 620 m 1
 537 620 l 1
 407 -110 l 1
 321 -110 l 1
 451 620 l 1
 227 620 l 1
 97 -110 l 1
 11 -110 l 1
 141 620 l 1
 79 620 l 1
 92 690 l 1
 610 690 l 1
 597 620 l 1
EndSplineSet
EndChar

StartChar: summation
Encoding: 8721 8721 311
Width: 580
Flags: MW
HStem: -110 70<58 436> 620 70<206 559 206 206>
VStem: -53 625
LayerCount: 2
Fore
SplineSet
559 620 m 1
 206 620 l 1
 395 300 l 1
 58 -40 l 1
 449 -40 l 1
 436 -110 l 1
 -53 -110 l 1
 -41 -42 l 1
 295 301 l 1
 107 622 l 1
 119 690 l 1
 572 690 l 1
 559 620 l 1
EndSplineSet
EndChar

StartChar: minus
Encoding: 8722 8722 301
Width: 580
Flags: MW
HStem: 291 56<75 485 65 495>
VStem: 65 430<291 347>
LayerCount: 2
Fore
SplineSet
485 291 m 1
 65 291 l 1
 75 347 l 1
 495 347 l 1
 485 291 l 1
EndSplineSet
EndChar

StartChar: radical
Encoding: 8730 8730 310
Width: 580
Flags: MW
HStem: 254 56<52 109 42 165>
VStem: 42 573<254 780>
LayerCount: 2
Fore
SplineSet
615 780 m 1
 235 -160 l 1
 162 -160 l 1
 109 254 l 1
 42 254 l 1
 52 310 l 1
 165 310 l 1
 212 -83 l 1
 553 780 l 1
 615 780 l 1
EndSplineSet
EndChar

StartChar: infinity
Encoding: 8734 8734 296
Width: 992
Flags: MW
HStem: -14 66<207 281 207 289.5 645 747.5> 478 66<244.5 347 711 785>
VStem: 28 94<169.5 276.5 169.5 290> 442 108<265 265> 870 94<253.5 360.5>
LayerCount: 2
Fore
SplineSet
755 544 m 0
 897 544 964 444 964 306 c 0
 964 174 882 -14 677 -14 c 0
 581 -14 505 38 475 147 c 1
 408 38 342 -14 237 -14 c 0
 95 -14 28 86 28 224 c 0
 28 356 110 544 315 544 c 0
 411 544 487 492 517 383 c 1
 584 492 650 544 755 544 c 0
248 52 m 0
 314 52 396 111 442 265 c 1
 440 419 390 478 304 478 c 0
 185 478 122 327 122 226 c 0
 122 113 166 52 248 52 c 0
688 52 m 0
 807 52 870 203 870 304 c 0
 870 417 826 478 744 478 c 0
 678 478 596 419 550 265 c 1
 552 111 602 52 688 52 c 0
EndSplineSet
EndChar

StartChar: integral
Encoding: 8747 8747 297
Width: 580
Flags: MW
HStem: -160 56<154 202.5 154 218.5> 698 56<376.5 425>
VStem: 246 62<479 569 479 584.5> 271 62<25 115>
LayerCount: 2
Fore
SplineSet
420 754 m 0xe0
 451 754 471 750 494 732 c 1
 469 678 l 1
 451 694 437 698 413 698 c 0
 340 698 308 624 308 514 c 0xe0
 308 444 312 390 320 304 c 1
 329 221 333 162 333 85 c 0
 333 -66 278 -160 159 -160 c 0
 128 -160 108 -156 85 -138 c 1
 110 -84 l 1
 128 -100 142 -104 166 -104 c 0
 239 -104 271 -30 271 80 c 0xd0
 271 150 267 204 259 290 c 1
 250 373 246 432 246 509 c 0
 246 660 301 754 420 754 c 0xe0
EndSplineSet
EndChar

StartChar: approxequal
Encoding: 8776 8776 289
Width: 560
Flags: MW
HStem: 141 61<359.5 384> 217 61<148.5 173.5> 301 61<387.5 412> 377 61<176.5 201.5>
VStem: 42 478<205 378>
LayerCount: 2
Fore
SplineSet
203 438 m 0
 243 438 266 425 313 397 c 0
 348 376 373 362 402 362 c 0
 433 362 455 377 481 411 c 1
 520 378 l 1
 478 327 439 301 385 301 c 0x78
 346 301 323 314 276 342 c 0
 241 363 216 377 187 377 c 0
 157 377 134 362 108 328 c 1
 70 365 l 1
 112 416 150 438 203 438 c 0
175 278 m 0
 215 278 238 265 285 237 c 0
 320 216 345 202 374 202 c 0
 405 202 427 217 453 251 c 1
 491 218 l 1
 449 167 411 141 357 141 c 0xd8
 318 141 295 154 248 182 c 0
 213 203 188 217 159 217 c 0
 129 217 106 202 80 168 c 1
 42 205 l 1
 84 256 122 278 175 278 c 0
EndSplineSet
EndChar

StartChar: notequal
Encoding: 8800 8800 303
Width: 580
Flags: MW
HStem: 187 56<57 145 47 188 254 467 57 211> 387 56<93 297 83 340 406 503 93 363> 387 143<83 472 406 472 406 503 363 472>
VStem: 47 466<187 443>
LayerCount: 2
Fore
SplineSet
363 387 m 1xd0
 254 243 l 1
 477 243 l 1
 467 187 l 1
 211 187 l 1
 145 100 l 1
 79 100 l 1
 145 187 l 1
 47 187 l 1
 57 243 l 1
 188 243 l 1
 297 387 l 1
 83 387 l 1
 93 443 l 1
 340 443 l 1xd0
 406 530 l 1
 472 530 l 1xb0
 406 443 l 1
 513 443 l 1
 503 387 l 1
 363 387 l 1xd0
EndSplineSet
EndChar

StartChar: lessequal
Encoding: 8804 8804 299
Width: 580
Flags: MW
HStem: 0 56<35 445 25 455>
VStem: 25 510
LayerCount: 2
Fore
SplineSet
523 443 m 1
 141 305 l 1
 475 171 l 1
 463 103 l 1
 73 274 l 1
 85 342 l 1
 535 513 l 1
 523 443 l 1
35 56 m 1
 455 56 l 1
 445 0 l 1
 25 0 l 1
 35 56 l 1
EndSplineSet
EndChar

StartChar: greaterequal
Encoding: 8805 8805 295
Width: 580
Flags: MW
HStem: 0 56<35 445 25 455>
VStem: 25 480<0 342>
LayerCount: 2
Fore
SplineSet
505 342 m 1
 493 274 l 1
 43 103 l 1
 55 174 l 1
 437 312 l 1
 103 446 l 1
 115 513 l 1
 505 342 l 1
35 56 m 1
 455 56 l 1
 445 0 l 1
 25 0 l 1
 35 56 l 1
EndSplineSet
EndChar

StartChar: lozenge
Encoding: 9674 9674 312
Width: 512
Flags: MW
HStem: 0 21G<162 228 162 162> 0 59<205 205 205 228 162 205> 631 59<307 307> 670 20G<284 350 350 350>
VStem: 56 400<345 345>
LayerCount: 2
Fore
SplineSet
456 345 m 1x98
 228 0 l 1
 162 0 l 1
 56 345 l 1
 284 690 l 1
 350 690 l 1
 456 345 l 1x98
390 345 m 1
 307 631 l 1
 122 345 l 1
 205 59 l 1x68
 390 345 l 1
EndSplineSet
EndChar

StartChar: fi
Encoding: 64257 64257 231
Width: 521
GlyphClass: 3
Flags: MW
HStem: 0 21G<35 121 35 35 315 401 315 315> 460 66<80 116 69 128 213 395> 680.77 68.23 680.77 73.23
VStem: 35 458
LayerCount: 2
Fore
SplineSet
493 526 m 1xe8
 401 0 l 1
 315 0 l 1
 395 460 l 1
 202 460 l 1
 121 0 l 1
 35 0 l 1
 116 460 l 1
 69 460 l 1
 80 526 l 1
 128 526 l 1
 130 540 l 2
 133 560 139 586 144 604 c 0
 172 701 249 754 386 754 c 0xd8
 408 754 429 752 447 749 c 1
 434 678 l 1
 303 690 250 665 230 602 c 0
 225 588 220 563 217 548 c 2
 213 526 l 1
 493 526 l 1xe8
EndSplineSet
Ligature2: "'liga' Standard Ligatures in Latin lookup 4 subtable" f i
EndChar

StartChar: fl
Encoding: 64258 64258 232
Width: 532
GlyphClass: 3
Flags: MW
HStem: -4 21G<375.5 408> -4 67<375.5 471> 0 21G<34 120 34 34 460 460> 460 66<80 115 68 127 213 310> 688 66<328 379.5> 715 20G<523 523>
VStem: 321 92<35 106>
LayerCount: 2
Fore
SplineSet
413 100 m 0x56
 413 74 431 60 471 63 c 1x5a
 460 0 l 1
 440 -3 418 -4 398 -4 c 0
 353 -4 321 9 321 61 c 0x9a
 321 76 324 95 334 149 c 2
 428 682 l 1
 409 686 389 688 370 688 c 0
 286 688 245 651 229 602 c 0
 225 588 219 563 217 548 c 2
 213 526 l 1
 322 526 l 1
 310 460 l 1
 201 460 l 1
 120 0 l 1
 34 0 l 1
 115 460 l 1
 68 460 l 1
 80 526 l 1
 127 526 l 1
 129 540 l 1
 133 560 138 586 143 604 c 0
 171 701 251 754 386 754 c 0x3a
 438 754 488 747 523 735 c 1
 420 152 l 2
 415 125 413 112 413 100 c 0x56
EndSplineSet
Ligature2: "'liga' Standard Ligatures in Latin lookup 4 subtable" f l
EndChar

StartChar: .notdef
Encoding: 65536 -1 0
Width: 561
Flags: MW
HStem: 0 50<141 481 141 561> 650 50<141 481 141 141>
LayerCount: 2
Fore
SplineSet
61 0 m 1
 61 700 l 1
 561 700 l 1
 561 0 l 1
 61 0 l 1
311 395 m 1
 481 650 l 1
 141 650 l 1
 311 395 l 1
341 350 m 1
 511 95 l 1
 511 605 l 1
 341 350 l 1
141 50 m 1
 481 50 l 1
 311 305 l 1
 141 50 l 1
111 605 m 1
 111 95 l 1
 281 350 l 1
 111 605 l 1
EndSplineSet
EndChar

StartChar: a.alt
Encoding: 65537 -1 230
Width: 612
GlyphClass: 2
Flags: MW
HStem: -14 66<204.5 251> 0 21G<406 492 406 406> 478 66<261 362 233 381.5> 510 20G<498 584 584 584>
VStem: 26 94<161 273.5 161 284> 460.72 23.28
LayerCount: 2
Fore
SplineSet
584 530 m 1x9c
 492 0 l 1
 406 0 l 1
 421 85 l 1x6c
 371 28 l 1
 337 3 278 -14 224 -14 c 0
 92 -14 26 81 26 202 c 0
 26 366 126 544 340 544 c 0
 384 544 438 526 461 500 c 1
 484 450 l 1xac
 498 530 l 1
 584 530 l 1x9c
457 289 m 1
 457 291 l 1x6c
 474 388 435 478 328 478 c 0
 194 478 120 341 120 206 c 0
 120 116 161 52 248 52 c 0xa8
 336 52 425 108 452 260 c 2
 457 289 l 1
EndSplineSet
EndChar
